<svg width="42" height="43" viewBox="0 0 42 43" fill="none" xmlns="http://www.w3.org/2000/svg">
<path d="M13.6895 11.9157L8.96697 26.6499C8.93895 26.7318 8.93075 26.8192 8.94306 26.9048C8.95536 26.9905 8.98782 27.072 9.03776 27.1427C9.0877 27.2134 9.15369 27.2712 9.23032 27.3114C9.30696 27.3516 9.39204 27.3731 9.47858 27.374H10.8009C10.9189 27.3737 11.0336 27.3352 11.128 27.2642C11.2223 27.1933 11.2912 27.0938 11.3243 26.9805L12.0641 24.6192H18.53L18.4395 24.4736L19.2502 26.9805C19.2833 27.0938 19.3522 27.1933 19.4465 27.2642C19.5409 27.3352 19.6556 27.3737 19.7736 27.374H21.0959C21.1826 27.3745 21.268 27.3545 21.3454 27.3155C21.4227 27.2765 21.4897 27.2197 21.5408 27.1498C21.5919 27.0798 21.6257 26.9988 21.6393 26.9132C21.653 26.8277 21.6461 26.7402 21.6193 26.6578L16.8968 11.9236C16.8632 11.8106 16.7942 11.7114 16.7 11.6406C16.6057 11.5698 16.4913 11.531 16.3734 11.53H14.2011C14.0861 11.5324 13.9748 11.5709 13.8829 11.6401C13.7911 11.7094 13.7234 11.8058 13.6895 11.9157ZM12.8512 22.258L15.2873 14.6744L17.743 22.258H12.8512Z" fill="black"/>
<path d="M27.029 11.5339H25.7697C25.4654 11.5339 25.2188 11.7806 25.2188 12.0849V26.8191C25.2188 27.1234 25.4654 27.3701 25.7697 27.3701H27.029C27.3333 27.3701 27.58 27.1234 27.58 26.8191V12.0849C27.58 11.7806 27.3333 11.5339 27.029 11.5339Z" fill="black"/>
<path d="M20.5988 33.2771H9.14672C8.29503 33.2771 7.47823 32.9388 6.87599 32.3365C6.27375 31.7343 5.93542 30.9175 5.93542 30.0658V9.72755C5.93542 8.87585 6.27375 8.05905 6.87599 7.45681C7.47823 6.85457 8.29503 6.51624 9.14672 6.51624H29.485C30.3367 6.51624 31.1535 6.85457 31.7557 7.45681C32.358 8.05905 32.6963 8.87585 32.6963 9.72755V19.8967C32.7035 20.1114 32.7952 20.3145 32.9514 20.4619C33.1077 20.6093 33.3158 20.6891 33.5306 20.6838C34.2007 20.6817 34.8622 20.8353 35.4629 21.1324C35.5876 21.1964 35.7267 21.2269 35.8667 21.2211C36.0067 21.2152 36.1429 21.1732 36.2618 21.0991C36.3807 21.0249 36.4784 20.9212 36.5453 20.7981C36.6122 20.675 36.646 20.5366 36.6435 20.3965V9.72755C36.6435 8.78803 36.4583 7.85773 36.0984 6.98988C35.7385 6.12203 35.211 5.33366 34.5461 4.66987C33.8812 4.00608 33.092 3.4799 32.2235 3.12144C31.3551 2.76298 30.4245 2.57927 29.485 2.58082H9.14672C7.2513 2.58082 5.4335 3.33378 4.09323 4.67405C2.75296 6.01432 2 7.83212 2 9.72755V30.0658C2 31.9612 2.75296 33.779 4.09323 35.1193C5.4335 36.4596 7.2513 37.2125 9.14672 37.2125H22.2517C22.4127 37.2127 22.5702 37.1652 22.7042 37.0759C22.8382 36.9867 22.9428 36.8597 23.0047 36.7111C23.0666 36.5624 23.0831 36.3987 23.052 36.2407C23.021 36.0827 22.9438 35.9375 22.8302 35.8233C22.2179 35.2615 21.7218 34.5849 21.3701 33.832C21.3138 33.6717 21.2096 33.5325 21.0717 33.4333C20.9338 33.3341 20.7687 33.2796 20.5988 33.2771Z" fill="#B6B6B6"/>
<path d="M38.1006 34.7728L41.6661 33.3678C41.7395 33.3388 41.8025 33.2884 41.8468 33.2231C41.8912 33.1579 41.915 33.0808 41.915 33.0018C41.915 32.9229 41.8912 32.8458 41.8468 32.7805C41.8025 32.7153 41.7395 32.6649 41.6661 32.6358L38.1006 31.2309C37.4694 30.9813 36.8961 30.605 36.4162 30.125C35.9363 29.6451 35.5599 29.0719 35.3104 28.4407L33.9054 24.8988C33.8763 24.8256 33.8258 24.7628 33.7605 24.7186C33.6953 24.6744 33.6182 24.6508 33.5394 24.6509C33.4606 24.6508 33.3836 24.6744 33.3183 24.7186C33.2531 24.7628 33.2026 24.8256 33.1734 24.8988L31.7685 28.4407C31.5195 29.0722 31.1434 29.6458 30.6634 30.1258C30.1834 30.6058 29.6098 30.982 28.9783 31.2309L25.4364 32.6358C25.363 32.6649 25.3 32.7153 25.2556 32.7805C25.2112 32.8458 25.1875 32.9229 25.1875 33.0018C25.1875 33.0808 25.2112 33.1579 25.2556 33.2231C25.3 33.2884 25.363 33.3388 25.4364 33.3678L28.9783 34.7728C29.6098 35.0217 30.1834 35.3979 30.6634 35.8779C31.1434 36.3579 31.5195 36.9315 31.7685 37.563L33.1734 41.1049C33.202 41.1788 33.2522 41.2425 33.3175 41.2874C33.3828 41.3323 33.4601 41.3565 33.5394 41.3567C33.6187 41.3565 33.6961 41.3323 33.7614 41.2874C33.8267 41.2425 33.8769 41.1788 33.9054 41.1049L35.3104 37.563C35.5599 36.9318 35.9363 36.3586 36.4162 35.8786C36.8961 35.3987 37.4694 35.0223 38.1006 34.7728Z" fill="#FFC107"/>
</svg>
