<svg viewBox="0 0 36 37" fill="none" xmlns="http://www.w3.org/2000/svg">
<path d="M10.5 27.3705L10.5 24.3705" stroke="#5F5F5F" stroke-width="2" stroke-linecap="round"/>
<path d="M18 27.3705L18 22.8705" stroke="#5F5F5F" stroke-width="2" stroke-linecap="round"/>
<path d="M25.5 27.3705L25.5 19.8705" stroke="#5F5F5F" stroke-width="2" stroke-linecap="round"/>
<path d="M9 16.6205C8.44772 16.6205 8 17.0682 8 17.6205C8 18.1728 8.44772 18.6205 9 18.6205V16.6205ZM24.8682 10.6166C25.1423 10.1371 24.9757 9.52625 24.4961 9.25224C24.0166 8.97823 23.4058 9.14483 23.1318 9.62434L24.8682 10.6166ZM20.8372 8.82598C20.2923 8.91587 19.9234 9.43048 20.0133 9.9754C20.1032 10.5203 20.6178 10.8892 21.1628 10.7993L20.8372 8.82598ZM22.9015 9.499L22.7387 8.51233H22.7387L22.9015 9.499ZM25.0228 10.7048L24.0615 10.9802L25.0228 10.7048ZM24.5387 12.6459C24.6908 13.1768 25.2445 13.4839 25.7754 13.3318C26.3063 13.1797 26.6134 12.626 26.4613 12.0951L24.5387 12.6459ZM24.4112 9.47779L24.9054 8.60842V8.60842L24.4112 9.47779ZM9 17.6205V18.6205C15.9822 18.6205 21.6352 16.2744 24.8682 10.6166L24 10.1205L23.1318 9.62434C20.3648 14.4665 15.5178 16.6205 9 16.6205V17.6205ZM21 9.81265L21.1628 10.7993L23.0642 10.4857L22.9015 9.499L22.7387 8.51233L20.8372 8.82598L21 9.81265ZM25.0228 10.7048L24.0615 10.9802L24.5387 12.6459L25.5 12.3705L26.4613 12.0951L25.9841 10.4294L25.0228 10.7048ZM22.9015 9.499L23.0642 10.4857C23.488 10.4158 23.7194 10.3793 23.8852 10.3717C24.0276 10.3652 23.9909 10.3892 23.917 10.3472L24.4112 9.47779L24.9054 8.60842C24.5208 8.38986 24.129 8.35849 23.794 8.37377C23.4825 8.38799 23.1143 8.45038 22.7387 8.51233L22.9015 9.499ZM25.0228 10.7048L25.9841 10.4294C25.892 10.1079 25.7956 9.76239 25.6697 9.48348C25.5262 9.16566 25.3034 8.8347 24.9054 8.60842L24.4112 9.47779L23.917 10.3472C23.8853 10.3291 23.8558 10.3034 23.8362 10.2794C23.821 10.2609 23.8264 10.2611 23.8468 10.3063C23.8681 10.3534 23.8955 10.4262 23.933 10.5445C23.9704 10.6626 24.0102 10.8012 24.0615 10.9802L25.0228 10.7048Z" fill="#5F5F5F"/>
<path d="M3.75 18.3705C3.75 11.653 3.75 8.29421 5.83686 6.20735C7.92373 4.12048 11.2825 4.12048 18 4.12048C24.7175 4.12048 28.0763 4.12048 30.1631 6.20735C32.25 8.29421 32.25 11.653 32.25 18.3705C32.25 25.088 32.25 28.4468 30.1631 30.5336C28.0763 32.6205 24.7175 32.6205 18 32.6205C11.2825 32.6205 7.92373 32.6205 5.83686 30.5336C3.75 28.4468 3.75 25.088 3.75 18.3705Z" stroke="#5F5F5F" stroke-width="2"/>
</svg>
