<svg width="26" height="31" viewBox="0 0 26 31" fill="none" xmlns="http://www.w3.org/2000/svg">
<path d="M18.6321 0.53125C18.7012 0.53125 18.7704 0.53125 18.8434 0.53125C19.0129 2.62575 18.2135 4.19075 17.2419 5.32407C16.2885 6.44957 14.9831 7.54116 12.8716 7.37553C12.7308 5.31103 13.5315 3.8621 14.5018 2.73138C15.4017 1.67761 17.0515 0.739917 18.6321 0.53125Z" fill="#0E1633"/>
<path d="M25.0247 22.333C25.0247 22.3539 25.0247 22.3721 25.0247 22.3917C24.4313 24.1888 23.5849 25.729 22.552 27.1584C21.6091 28.4561 20.4536 30.2024 18.3904 30.2024C16.6076 30.2024 15.4234 29.056 13.5963 29.0247C11.6635 28.9934 10.6006 29.9832 8.83347 30.2323C8.63132 30.2323 8.42918 30.2323 8.23094 30.2323C6.9333 30.0445 5.88605 29.0169 5.12311 28.0909C2.87342 25.3548 1.13496 21.8205 0.811523 17.2976C0.811523 16.8542 0.811523 16.4121 0.811523 15.9686C0.948461 12.7317 2.52129 10.0999 4.61187 8.8244C5.7152 8.14623 7.23195 7.56849 8.92085 7.82671C9.64466 7.93887 10.3841 8.18666 11.0323 8.43185C11.6466 8.6679 12.4147 9.08654 13.1424 9.06437C13.6354 9.05002 14.1258 8.7931 14.6227 8.61182C16.0781 8.08624 17.5049 7.48372 19.3855 7.76672C21.6456 8.10841 23.2498 9.11262 24.2409 10.662C22.329 11.8788 20.8175 13.7124 21.0757 16.8437C21.3052 19.6881 22.9589 21.3523 25.0247 22.333Z" fill="#0E1633"/>
</svg>
