<svg width="30" height="31" viewBox="0 0 30 31" fill="none" xmlns="http://www.w3.org/2000/svg">
<path d="M15 15.5V23" stroke="#ED1C24" stroke-width="2" stroke-linecap="round"/>
<path d="M15 23C12.9079 23 11.0871 24.265 10.1471 26.1312C9.69808 27.0225 10.3424 28 11.1985 28H18.8015C19.6576 28 20.3019 27.0225 19.8529 26.1312C18.9129 24.265 17.0921 23 15 23Z" stroke="#ED1C24" stroke-width="2" stroke-linecap="round"/>
<path d="M6.25 6.75H4.98089C3.74773 6.75 3.13116 6.75 2.75021 7.21316C2.36926 7.67632 2.48098 8.19497 2.7044 9.23225C3.13117 11.2136 4.05685 12.9543 5.31112 14.25" stroke="#ED1C24" stroke-width="2" stroke-linecap="round"/>
<path d="M23.75 6.75H25.0191C26.2523 6.75 26.8688 6.75 27.2498 7.21316C27.6307 7.67632 27.519 8.19497 27.2956 9.23225C26.8688 11.2136 25.9431 12.9543 24.6889 14.25" stroke="#ED1C24" stroke-width="2" stroke-linecap="round"/>
<path d="M15 15.5C19.8325 15.5 23.75 11.6039 23.75 6.79776C23.75 6.67174 23.7473 6.54634 23.742 6.42161C23.6886 5.17258 23.6619 4.54806 22.8154 3.77403C21.9689 3 21.0309 3 19.155 3H10.8449C8.96908 3 8.03115 3 7.18464 3.77403C6.33814 4.54806 6.31144 5.17258 6.25803 6.42161C6.25269 6.54634 6.25 6.67174 6.25 6.79776C6.25 11.6039 10.1675 15.5 15 15.5Z" stroke="#ED1C24" stroke-width="2" stroke-linecap="round"/>
</svg>
