<svg viewBox="0 0 41 43" fill="none" xmlns="http://www.w3.org/2000/svg">
<path d="M11.975 17.9254C11.975 18.4056 12.0269 18.7949 12.1177 19.0805C12.2216 19.366 12.3513 19.6774 12.533 20.0149C12.5979 20.1187 12.6239 20.2225 12.6239 20.3134C12.6239 20.4432 12.546 20.5729 12.3773 20.7027L11.5597 21.2478C11.4429 21.3257 11.3261 21.3646 11.2223 21.3646C11.0925 21.3646 10.9627 21.2997 10.8329 21.1829C10.6512 20.9882 10.4955 20.7806 10.3657 20.5729C10.2359 20.3523 10.1061 20.1057 9.96337 19.8072C8.95108 21.0012 7.67922 21.5982 6.1478 21.5982C5.05764 21.5982 4.18811 21.2867 3.55218 20.6638C2.91625 20.0408 2.5918 19.2102 2.5918 18.172C2.5918 17.0688 2.98114 16.1734 3.77281 15.4985C4.56447 14.8236 5.6157 14.4862 6.95245 14.4862C7.3937 14.4862 7.84794 14.5251 8.32813 14.59C8.80832 14.6549 9.30149 14.7587 9.82061 14.8755V13.9281C9.82061 12.9418 9.61296 12.254 9.21064 11.8516C8.79534 11.4493 8.09452 11.2546 7.09521 11.2546C6.64097 11.2546 6.17376 11.3066 5.69357 11.4234C5.21338 11.5402 4.74617 11.6829 4.29193 11.8646C4.08428 11.9555 3.92854 12.0074 3.8377 12.0333C3.74685 12.0593 3.68196 12.0723 3.63005 12.0723C3.44835 12.0723 3.35751 11.9425 3.35751 11.6699V11.034C3.35751 10.8264 3.38346 10.6706 3.44835 10.5798C3.51324 10.4889 3.63005 10.3981 3.81174 10.3072C4.26598 10.0736 4.81106 9.87896 5.44699 9.72322C6.08291 9.55451 6.75778 9.47664 7.47157 9.47664C9.01597 9.47664 10.1451 9.82705 10.8718 10.5279C11.5856 11.2287 11.949 12.2929 11.949 13.7205V17.9254H11.975ZM6.70586 19.8981C7.13414 19.8981 7.5754 19.8202 8.04261 19.6645C8.50982 19.5087 8.92512 19.2232 9.27553 18.8339C9.48318 18.5873 9.63892 18.3147 9.71679 18.0033C9.79466 17.6918 9.84657 17.3154 9.84657 16.8742V16.3291C9.47021 16.2382 9.06788 16.1604 8.65258 16.1085C8.23728 16.0566 7.83496 16.0306 7.43264 16.0306C6.5631 16.0306 5.92718 16.1993 5.4989 16.5497C5.07062 16.9001 4.86297 17.3933 4.86297 18.0422C4.86297 18.6522 5.01871 19.1064 5.34316 19.4179C5.65464 19.7423 6.10887 19.8981 6.70586 19.8981ZM17.1273 21.2997C16.8937 21.2997 16.738 21.2608 16.6341 21.1699C16.5303 21.0921 16.4395 20.9104 16.3616 20.6638L13.3117 10.6317C13.2339 10.3721 13.1949 10.2034 13.1949 10.1126C13.1949 9.90492 13.2988 9.78811 13.5064 9.78811H14.7783C15.0248 9.78811 15.1936 9.82705 15.2844 9.9179C15.3882 9.99577 15.4661 10.1775 15.544 10.424L17.7243 19.0156L19.7489 10.424C19.8138 10.1645 19.8916 9.99577 19.9955 9.9179C20.0993 9.84003 20.281 9.78811 20.5146 9.78811H21.5528C21.7994 9.78811 21.9681 9.82705 22.072 9.9179C22.1758 9.99577 22.2666 10.1775 22.3186 10.424L24.3691 19.1194L26.6143 10.424C26.6922 10.1645 26.783 9.99577 26.8739 9.9179C26.9777 9.84003 27.1464 9.78811 27.38 9.78811H28.587C28.7946 9.78811 28.9114 9.89194 28.9114 10.1126C28.9114 10.1775 28.8985 10.2423 28.8855 10.3202C28.8725 10.3981 28.8466 10.5019 28.7946 10.6447L25.6669 20.6768C25.589 20.9363 25.4982 21.105 25.3944 21.1829C25.2905 21.2608 25.1218 21.3127 24.9012 21.3127H23.7851C23.5385 21.3127 23.3698 21.2738 23.266 21.1829C23.1621 21.0921 23.0713 20.9233 23.0194 20.6638L21.0078 12.2929L19.0091 20.6508C18.9442 20.9104 18.8664 21.0791 18.7625 21.1699C18.6587 21.2608 18.477 21.2997 18.2434 21.2997H17.1273ZM33.8042 21.6501C33.1293 21.6501 32.4545 21.5723 31.8056 21.4165C31.1567 21.2608 30.6505 21.0921 30.3131 20.8974C30.1054 20.7806 29.9627 20.6508 29.9108 20.534C29.8588 20.4172 29.8329 20.2874 29.8329 20.1706V19.5087C29.8329 19.2362 29.9367 19.1064 30.1314 19.1064C30.2093 19.1064 30.2871 19.1194 30.365 19.1453C30.4429 19.1713 30.5597 19.2232 30.6894 19.2751C31.1307 19.4698 31.6109 19.6255 32.117 19.7294C32.6362 19.8332 33.1423 19.8851 33.6614 19.8851C34.4791 19.8851 35.115 19.7423 35.5562 19.4568C35.9975 19.1713 36.2311 18.756 36.2311 18.2239C36.2311 17.8605 36.1143 17.562 35.8807 17.3154C35.6471 17.0688 35.2058 16.8482 34.5699 16.6406L32.6881 16.0566C31.7407 15.7581 31.0399 15.3168 30.6116 14.7328C30.1833 14.1617 29.9627 13.5258 29.9627 12.851C29.9627 12.3059 30.0795 11.8257 30.3131 11.4104C30.5467 10.9951 30.8582 10.6317 31.2475 10.3462C31.6369 10.0477 32.0781 9.82705 32.5972 9.67131C33.1164 9.51557 33.6614 9.45068 34.2325 9.45068C34.518 9.45068 34.8165 9.46366 35.102 9.5026C35.4005 9.54153 35.673 9.59344 35.9456 9.64536C36.2052 9.71025 36.4517 9.77514 36.6853 9.85301C36.9189 9.93087 37.1006 10.0087 37.2304 10.0866C37.4121 10.1904 37.5419 10.2943 37.6198 10.4111C37.6976 10.5149 37.7366 10.6576 37.7366 10.8393V11.4493C37.7366 11.7219 37.6327 11.8646 37.4381 11.8646C37.3343 11.8646 37.1655 11.8127 36.9449 11.7089C36.2052 11.3714 35.3746 11.2027 34.4531 11.2027C33.7134 11.2027 33.1293 11.3195 32.727 11.5661C32.3247 11.8127 32.117 12.1891 32.117 12.7212C32.117 13.0846 32.2468 13.396 32.5064 13.6426C32.7659 13.8892 33.2461 14.1358 33.934 14.3564L35.7769 14.9404C36.7113 15.2389 37.3862 15.6542 37.7885 16.1863C38.1908 16.7184 38.3855 17.3284 38.3855 18.0033C38.3855 18.5613 38.2687 19.0675 38.048 19.5087C37.8144 19.95 37.503 20.3393 37.1006 20.6508C36.6983 20.9753 36.2181 21.2089 35.6601 21.3776C35.0761 21.5593 34.4661 21.6501 33.8042 21.6501Z" fill="#252F3E"/>
<path d="M36.2572 27.9579C31.9874 31.1116 25.7839 32.7857 20.4499 32.7857C12.9745 32.7857 6.23881 30.0214 1.15139 25.4271C0.749065 25.0637 1.11245 24.5706 1.59264 24.8561C7.09537 28.0487 13.8829 29.9825 20.9041 29.9825C25.6411 29.9825 30.8453 28.9961 35.6343 26.9715C36.3481 26.6471 36.958 27.4387 36.2572 27.9579ZM38.0352 25.9333C37.4901 25.2325 34.4273 25.5959 33.0386 25.7646C32.6233 25.8165 32.5585 25.4531 32.9348 25.1806C35.3747 23.4674 39.385 23.9606 39.8522 24.5316C40.3194 25.1157 39.7224 29.1259 37.4382 31.0467C37.0878 31.3452 36.7504 31.1894 36.9061 30.8001C37.4253 29.5152 38.5803 26.6211 38.0352 25.9333Z" fill="#FF9900"/>
</svg>
