<svg width="36" height="37" viewBox="0 0 36 37" fill="none" xmlns="http://www.w3.org/2000/svg">
<path d="M19.5 3.44136C19.0066 3.39448 18.5062 3.37048 18 3.37048C9.71667 3.37048 3 9.79584 3 17.7206C3 21.5281 4.55 24.9878 7.07833 27.5551C7.635 28.1204 8.00667 28.8927 7.85667 29.6876C7.60912 30.9873 7.04811 32.1996 6.22667 33.2099C8.38793 33.6119 10.6352 33.25 12.5625 32.2251C13.2438 31.8628 13.5844 31.6816 13.8248 31.6449C14.0652 31.6082 14.4095 31.6728 15.0981 31.8022C16.0549 31.9818 17.026 32.0719 18 32.0706C25.2449 32.0706 31.5979 27.1553 33 20.6205" stroke="#5F5F5F" stroke-width="2" stroke-linecap="round" stroke-linejoin="round"/>
<path d="M24.5869 12.4706L24.0195 11.6471H24.0195L24.5869 12.4706ZM30.9131 12.4706L31.4805 11.6471L30.9131 12.4706ZM22.9157 15.6532L22.175 16.325H22.175L22.9157 15.6532ZM32.5843 15.6532L31.8436 14.9813L32.5843 15.6532ZM24.5869 12.4706L25.1543 13.294C26.7479 12.196 28.7521 12.196 30.3457 13.294L30.9131 12.4706L31.4805 11.6471C29.2036 10.0783 26.2964 10.0783 24.0195 11.6471L24.5869 12.4706ZM25.178 16.8705V17.8705H30.322V16.8705V15.8705H25.178V16.8705ZM22.9157 15.6532L23.6564 14.9813C23.5591 14.8741 23.5231 14.8017 23.51 14.7673C23.4986 14.7373 23.4997 14.7242 23.5004 14.7169C23.5029 14.6904 23.5278 14.584 23.6973 14.3921C24.069 13.971 24.6356 13.6514 25.1543 13.294L24.5869 12.4706L24.0195 11.6471C23.7129 11.8584 22.785 12.4035 22.198 13.0684C21.888 13.4195 21.5676 13.9113 21.5092 14.5289C21.4469 15.1887 21.6998 15.8011 22.175 16.325L22.9157 15.6532ZM30.9131 12.4706L30.3457 13.294C30.8644 13.6514 31.431 13.971 31.8027 14.3921C31.9722 14.584 31.9971 14.6904 31.9996 14.7169C32.0003 14.7242 32.0014 14.7373 31.99 14.7673C31.9769 14.8017 31.9409 14.8741 31.8436 14.9813L32.5843 15.6532L33.325 16.325C33.8002 15.8011 34.0531 15.1887 33.9908 14.5289C33.9324 13.9113 33.612 13.4195 33.302 13.0684C32.715 12.4035 31.7871 11.8584 31.4805 11.6471L30.9131 12.4706ZM32.5843 15.6532L31.8436 14.9813C31.2711 15.6124 30.8036 15.8705 30.322 15.8705V16.8705V17.8705C31.6434 17.8705 32.6098 17.1134 33.325 16.325L32.5843 15.6532ZM22.9157 15.6532L22.175 16.325C22.8902 17.1134 23.8566 17.8705 25.178 17.8705V16.8705V15.8705C24.6964 15.8705 24.2289 15.6124 23.6564 14.9813L22.9157 15.6532ZM30.375 6.07048H29.375C29.375 7.03611 28.6211 7.77048 27.75 7.77048V8.77048V9.77048C29.7784 9.77048 31.375 8.08719 31.375 6.07048H30.375ZM27.75 8.77048V7.77048C26.8789 7.77048 26.125 7.03611 26.125 6.07048H25.125H24.125C24.125 8.08719 25.7216 9.77048 27.75 9.77048V8.77048ZM25.125 6.07048H26.125C26.125 5.10486 26.8789 4.37048 27.75 4.37048V3.37048V2.37048C25.7216 2.37048 24.125 4.05377 24.125 6.07048H25.125ZM27.75 3.37048V4.37048C28.6211 4.37048 29.375 5.10486 29.375 6.07048H30.375H31.375C31.375 4.05377 29.7784 2.37048 27.75 2.37048V3.37048Z" fill="#5F5F5F"/>
<path d="M17.9933 18.3705H18.0067M12 18.3705H12.0135" stroke="#5F5F5F" stroke-width="3" stroke-linecap="round" stroke-linejoin="round"/>
</svg>
