<svg width="40" height="40" viewBox="0 0 40 40" fill="none" xmlns="http://www.w3.org/2000/svg">
<path d="M35 35C34.5474 35.3391 34.0479 35.6345 33.5103 35.8788C31.7765 36.6667 29.4861 36.6667 24.9053 36.6667H15.0947C10.5139 36.6667 8.2235 36.6667 6.4897 35.8788C5.95206 35.6345 5.45263 35.3391 5 35" stroke="#ED1C24" stroke-width="2" stroke-linecap="round"/>
<path d="M3.33301 16.6667C3.33301 10.7709 3.33301 7.82297 5.08767 5.85484C5.36832 5.54005 5.67764 5.24893 6.0121 4.98479C8.10323 3.33334 11.2354 3.33334 17.4997 3.33334H22.4997C28.764 3.33334 31.8961 3.33334 33.9872 4.98479C34.3217 5.24893 34.631 5.54005 34.9117 5.85484C36.6663 7.82297 36.6663 10.7709 36.6663 16.6667C36.6663 22.5625 36.6663 25.5104 34.9117 27.4785C34.631 27.7933 34.3217 28.0844 33.9872 28.3486C31.8961 30 28.764 30 22.4997 30H17.4997C11.2354 30 8.10323 30 6.0121 28.3486C5.67764 28.0844 5.36832 27.7933 5.08767 27.4785C3.33301 25.5104 3.33301 22.5625 3.33301 16.6667Z" stroke="#ED1C24" stroke-width="2" stroke-linecap="round" stroke-linejoin="round"/>
<path d="M30.833 16.6667H30.818" stroke="#ED1C24" stroke-width="2" stroke-linecap="round" stroke-linejoin="round"/>
<path d="M9.16602 16.6667H9.15105" stroke="#ED1C24" stroke-width="2" stroke-linecap="round" stroke-linejoin="round"/>
<path d="M24.2516 16.6667C24.2516 18.9679 22.3862 20.8333 20.085 20.8333C17.7838 20.8333 15.9183 18.9679 15.9183 16.6667C15.9183 14.3655 17.7838 12.5 20.085 12.5C22.3862 12.5 24.2516 14.3655 24.2516 16.6667Z" stroke="#ED1C24" stroke-width="2"/>
</svg>
