<svg width="auto" viewBox="0 0 33 33" fill="none" xmlns="http://www.w3.org/2000/svg">
<path d="M9.15088 31.3701V16.7837C9.15088 15.1609 9.15088 14.3496 9.51774 13.669C9.88461 12.9885 10.5585 12.5497 11.9063 11.6722L15.0286 9.63948C15.8164 9.12657 16.2103 8.87012 16.6509 8.87012C17.0914 8.87012 17.4853 9.12657 18.2732 9.63948L21.3954 11.6722C22.7432 12.5497 23.4172 12.9885 23.784 13.669C24.1509 14.3496 24.1509 15.1609 24.1509 16.7837V31.3701" stroke="#5B5B5B" stroke-width="2" stroke-linecap="round" stroke-linejoin="round"/>
<path d="M16.6509 17.8701H16.6644" stroke="#5B5B5B" stroke-width="2" stroke-linecap="round" stroke-linejoin="round"/>
<path d="M28.6509 31.3701V24.1135C28.6509 20.6761 27.2343 20.3979 24.1509 19.3701" stroke="#5B5B5B" stroke-width="2" stroke-linecap="round" stroke-linejoin="round"/>
<path d="M4.65088 31.3701V24.1135C4.65088 20.6761 6.06744 20.3979 9.15088 19.3701" stroke="#5B5B5B" stroke-width="2" stroke-linecap="round" stroke-linejoin="round"/>
<path d="M1.65088 31.3701H31.6509" stroke="#5B5B5B" stroke-width="2" stroke-linecap="round" stroke-linejoin="round"/>
<path d="M16.6509 8.87012V5.84343M16.6509 5.84343V2.82564C16.6509 2.11434 16.6509 1.75869 16.8705 1.53772C17.56 0.844208 20.4009 2.48466 21.4813 3.14991C22.3936 3.7117 22.6509 4.83383 22.6509 5.84343H16.6509Z" stroke="#5B5B5B" stroke-width="2" stroke-linecap="round" stroke-linejoin="round"/>
<path d="M13.6509 31.3701L13.6509 26.8701C13.6509 25.4559 13.6509 24.7488 14.0902 24.3095C14.5296 23.8701 15.2367 23.8701 16.6509 23.8701C18.0651 23.8701 18.7722 23.8701 19.2115 24.3095C19.6509 24.7488 19.6509 25.4559 19.6509 26.8701V31.3701" stroke="#5B5B5B" stroke-width="2" stroke-linecap="round" stroke-linejoin="round"/>
</svg>
