<svg width="26" height="26" viewBox="0 0 26 26" fill="none" xmlns="http://www.w3.org/2000/svg">
<path d="M14.5189 1.0625V2.71545C16.222 2.71545 17.8174 3.12868 19.3053 3.95516C20.7215 4.76441 21.8509 5.84916 22.6934 7.20939C23.5539 8.6385 23.9841 10.1709 23.9841 11.8066H25.7051C25.7051 9.86099 25.1942 8.05308 24.1724 6.38292C23.1864 4.76441 21.8509 3.48166 20.1658 2.53465C18.4269 1.55322 16.5446 1.0625 14.5189 1.0625ZM5.61843 3.54192C5.13442 3.54192 4.71315 3.68827 4.35462 3.98098L1.58497 6.69285L1.66564 6.64119C1.21748 7.00277 0.92169 7.45045 0.778278 7.98421C0.652792 8.51797 0.688645 9.03452 0.885837 9.53385C1.38778 10.8769 2.06002 12.2543 2.90257 13.6662C4.08572 15.6119 5.49295 17.3595 7.12426 18.9092C9.74153 21.4402 12.9952 23.4375 16.8852 24.9011H16.9121C17.432 25.0733 17.9519 25.1077 18.4717 25.0044C19.0095 24.9011 19.4846 24.6772 19.8969 24.3329L22.6128 21.7243C22.9713 21.38 23.1506 20.9581 23.1506 20.4588C23.1506 19.9422 22.9713 19.5118 22.6128 19.1674L19.0902 15.7582C18.7317 15.4139 18.2835 15.2417 17.7457 15.2417C17.2079 15.2417 16.7598 15.4139 16.4012 15.7582L14.7072 17.4112C13.3448 16.7913 12.1616 16.0251 11.1577 15.1125C10.1538 14.1828 9.35611 13.055 8.76453 11.7292L10.4855 10.0762C10.8619 9.69742 11.0502 9.24975 11.0502 8.7332C11.0502 8.19944 10.835 7.76898 10.4048 7.44184L10.4855 7.51932L6.88225 3.98098C6.52372 3.68827 6.10245 3.54192 5.61843 3.54192ZM14.5189 4.36839V6.02134C15.6125 6.02134 16.6163 6.27961 17.5306 6.79616C18.4628 7.3127 19.1978 8.01865 19.7356 8.91399C20.2733 9.79212 20.5422 10.7563 20.5422 11.8066H22.2632C22.2632 10.4636 21.9136 9.21531 21.2145 8.06169C20.5154 6.94251 19.5832 6.04716 18.418 5.37566C17.2169 4.70415 15.9172 4.36839 14.5189 4.36839ZM5.61843 5.19486C5.67221 5.19486 5.73496 5.22069 5.80666 5.27235L9.32922 8.7332C9.34715 8.80207 9.32922 8.86234 9.27544 8.91399L6.72091 11.3418L6.90914 11.8583L7.25871 12.5815C7.54553 13.1669 7.87717 13.7351 8.25363 14.2861C8.7735 15.0609 9.34715 15.7238 9.97457 16.2748C10.8171 17.0668 11.83 17.79 13.0131 18.4443C13.6047 18.7714 14.1066 19.0125 14.5189 19.1674L15.0567 19.3999L17.665 16.8946C17.7009 16.8602 17.7278 16.843 17.7457 16.843C17.7636 16.843 17.7905 16.8602 17.8264 16.8946L21.4565 20.3813C21.4924 20.4157 21.5103 20.4416 21.5103 20.4588C21.5103 20.4588 21.4924 20.476 21.4565 20.5104L18.7675 23.0673C18.3731 23.3945 17.9429 23.4806 17.4768 23.3256C13.8198 21.9654 10.7723 20.1058 8.3343 17.7469C6.82847 16.3006 5.51087 14.6563 4.38151 12.8139C3.57481 11.4881 2.94738 10.2054 2.49922 8.96565V8.93982C2.42752 8.78486 2.41855 8.60407 2.47233 8.39745C2.52611 8.17361 2.62471 8.00143 2.76812 7.8809L5.43021 5.27235C5.48398 5.22069 5.54673 5.19486 5.61843 5.19486ZM14.5189 7.67428V9.32723C15.236 9.32723 15.8455 9.56828 16.3474 10.0504C16.8494 10.5325 17.1004 11.1179 17.1004 11.8066H18.8213C18.8213 11.0663 18.6241 10.3775 18.2297 9.74047C17.8533 9.10339 17.3334 8.60407 16.6701 8.24248C16.0068 7.86368 15.2898 7.67428 14.5189 7.67428Z" fill="#2F2D30"/>
</svg>
