<svg viewBox="0 0 141 71" fill="none" xmlns="http://www.w3.org/2000/svg">
<path d="M140.807 69.9945C140.807 69.9945 140.271 69.8381 139.278 69.5364C138.271 69.2347 136.806 68.7762 134.933 68.2403C134.462 68.1064 133.977 67.9611 133.455 67.816C132.946 67.6709 132.398 67.5146 131.825 67.3585C130.691 67.0575 129.468 66.7229 128.156 66.366C126.845 66.0432 125.444 65.6982 123.967 65.3195C122.477 64.9864 120.924 64.6081 119.295 64.2529C118.48 64.0868 117.64 63.9094 116.8 63.732C116.367 63.6433 115.947 63.5432 115.514 63.466C115.082 63.3887 114.636 63.3002 114.191 63.2116C113.313 63.0458 112.409 62.8688 111.493 62.7032C110.589 62.5261 109.661 62.3834 108.707 62.218C107.765 62.0639 106.811 61.8871 105.831 61.7447C104.865 61.6021 103.885 61.4597 102.893 61.3059C102.397 61.229 101.888 61.1635 101.393 61.1094C100.884 61.044 100.375 60.9785 99.8793 60.913C98.8619 60.7822 97.8444 60.6399 96.8021 60.5433C92.6569 60.0544 88.3613 59.7371 83.99 59.4658C82.8974 59.415 81.8048 59.3643 80.6994 59.3136L79.8736 59.2727L79.048 59.2546C78.5018 59.2463 77.9429 59.2267 77.3966 59.207C76.2916 59.1791 75.1864 59.1398 74.0563 59.1462C72.9642 59.1409 71.8468 59.1472 70.7545 59.1306C68.5074 59.1775 66.2597 59.1674 64.0642 59.2822C63.5057 59.3081 62.9599 59.3226 62.4141 59.3484L61.589 59.3759L60.7642 59.426C59.6601 59.4892 58.5688 59.5523 57.4774 59.6154C53.1255 59.9359 48.8248 60.3017 44.6912 60.8373C43.6638 60.9455 42.637 61.0993 41.6227 61.2417C41.1155 61.3128 40.6084 61.384 40.114 61.4551C39.6068 61.5263 39.1123 61.586 38.6179 61.6685C37.6292 61.822 36.6533 61.9869 35.6772 62.1404C34.7137 62.2825 33.7636 62.4814 32.8258 62.646C31.888 62.8221 30.9501 62.9754 30.0506 63.1626C29.1384 63.3499 28.2515 63.5256 27.3646 63.7014C26.9211 63.7836 26.4777 63.8772 26.0597 63.9706C25.629 64.0641 25.1983 64.1576 24.7803 64.2511C23.9316 64.438 23.1083 64.6248 22.2977 64.8115C20.6765 65.1849 19.1317 65.5807 17.6626 65.9305C16.1939 66.3145 14.8012 66.6753 13.4971 67.0242C12.1932 67.3844 10.9909 67.7441 9.86417 68.0465C9.29457 68.2091 8.76306 68.3714 8.24412 68.5224C7.7253 68.6847 7.24433 68.824 6.77605 68.9632C4.91564 69.5202 3.46065 69.9951 2.47369 70.3081C1.48673 70.621 0.942519 70.7835 0.942519 70.7835C0.942519 70.7835 1.448 70.5643 2.39571 70.1491C2.87592 69.9415 3.45733 69.6992 4.15237 69.3993C4.83459 69.088 5.64379 68.7761 6.54136 68.4181C6.99643 68.2334 7.4642 68.0486 7.95723 67.8523C8.46296 67.6559 8.98126 67.4481 9.52509 67.2515C10.6253 66.8468 11.8142 66.4189 13.0915 65.9563C14.3818 65.5164 15.7482 65.0647 17.1903 64.5785C17.9243 64.358 18.6583 64.1262 19.4301 63.8828C20.1894 63.6508 20.9739 63.3959 21.7841 63.1751C25.012 62.2689 28.5315 61.3155 32.3065 60.5087C34.1809 60.0655 36.1324 59.7016 38.1217 59.3147C39.1225 59.1041 40.1368 58.9618 41.1507 58.7853C42.1773 58.6088 43.2038 58.4322 44.2562 58.2897C45.3085 58.1357 46.3608 57.9932 47.4131 57.8393C48.4781 57.6966 49.5561 57.5767 50.634 57.4454C51.1667 57.3855 51.7246 57.314 52.2573 57.2541C52.8026 57.1941 53.3481 57.1455 53.8936 57.0969C54.9973 56.9996 56.0881 56.891 57.2046 56.805C61.6325 56.4612 66.202 56.2875 70.6713 56.2395C71.8015 56.2445 72.9444 56.2494 74.0746 56.2544C75.2047 56.2481 76.3354 56.2986 77.4533 56.3378C78.0121 56.3461 78.5711 56.3657 79.1427 56.3852L79.9812 56.4147L80.8198 56.4668C81.938 56.5288 83.0562 56.5908 84.1743 56.6528C84.7334 56.6838 85.28 56.7377 85.8392 56.7801C86.3857 56.8225 86.9451 56.8763 87.4915 56.9074C88.038 56.9498 88.5846 57.0036 89.1311 57.0461C89.6777 57.0999 90.2244 57.1538 90.7584 57.2191C91.8391 57.3382 92.9197 57.4459 93.9877 57.5651C95.056 57.7071 96.1115 57.8492 97.1544 57.9913C98.2098 58.1219 99.2403 58.2869 100.258 58.4519C101.288 58.6169 102.319 58.759 103.311 58.947C105.309 59.3114 107.268 59.6532 109.165 60.0751C112.958 60.8507 116.485 61.7529 119.733 62.6339C120.549 62.857 121.326 63.0917 122.103 63.315C122.868 63.5497 123.619 63.7618 124.358 63.9739C125.811 64.4439 127.187 64.8915 128.487 65.3054C129.775 65.7535 130.973 66.1679 132.07 66.5602C132.63 66.7506 133.153 66.9639 133.663 67.1432C134.161 67.3339 134.646 67.5247 135.092 67.693C136.01 68.0407 136.813 68.3435 137.503 68.647C138.204 68.9391 138.791 69.1862 139.263 69.3771C140.309 69.781 140.807 69.9945 140.807 69.9945Z" fill="#F7F7F7"/>
<path d="M112.304 28.2264L112.303 28.1242C112.289 28.0222 112.275 27.9315 112.261 27.8408L112.247 27.7274C112.221 27.6027 112.206 27.4666 112.167 27.3307L112.061 26.9568C112.034 26.8662 111.995 26.7756 111.956 26.6737L111.929 26.5944C111.863 26.3791 111.76 26.1868 111.669 26.0057L111.578 25.8473C111.448 25.6097 111.306 25.3948 111.152 25.18C111.152 25.18 111.061 25.067 111.035 25.0218C110.919 24.8635 110.791 24.7053 110.662 24.5698L110.418 24.2987C110.354 24.2309 110.277 24.1519 110.187 24.0843L110.11 24.0053L109.802 23.7345L109.38 23.3962C109.341 23.351 109.29 23.3173 109.239 23.2835L108.906 23.0582C108.689 22.9232 108.433 22.7656 108.165 22.6308C107.629 22.3499 107.056 22.1485 106.483 22.0039C105.924 21.8706 105.314 21.7942 104.692 21.7747C104.628 21.775 104.552 21.7754 104.476 21.7758C103.436 21.781 102.385 21.9678 101.336 22.3362C100.402 22.67 99.4682 23.1285 98.5869 23.7003C98.1713 23.9634 97.7689 24.2604 97.3919 24.5686C97.1908 24.7285 97.0025 24.8996 96.8267 25.048L96.5505 25.299L96.2745 25.5614L95.961 25.8693L95.5227 26.3481L95.285 26.633C95.0099 26.9747 94.7351 27.3392 94.4111 27.8287C93.9253 28.5914 93.5038 29.4218 93.1342 30.354C92.8139 31.1612 92.532 31.9909 92.289 32.8999C92.1792 33.2749 92.0573 33.6953 91.9358 34.1497L91.8994 34.2861L91.6196 35.2973C91.1679 36.7973 90.5512 38.2868 89.8067 39.6975C89.6952 39.925 89.5835 40.1298 89.4466 40.3574C89.372 40.4826 89.2975 40.6191 89.2228 40.7443L89.0737 41.006C88.9119 41.2678 88.7626 41.5182 88.6005 41.7572C88.5508 41.8483 88.4756 41.9281 88.426 42.0191C88.2515 42.2809 88.0894 42.52 87.9019 42.7592L87.7645 42.9415C87.6896 43.044 87.6147 43.1465 87.5396 43.2376L87.152 43.7161C86.2019 44.9009 85.0611 46.064 83.7672 47.1484C83.2521 47.5708 82.5607 48.1076 81.8178 48.5879C81.5787 48.7479 81.3268 48.9081 81.0625 49.0796L80.8106 49.2397C80.7098 49.2969 80.5964 49.3656 80.4956 49.4228C80.4326 49.4572 80.357 49.503 80.294 49.5373L80.1932 49.5946C80.0546 49.6747 79.9285 49.7434 79.7772 49.8236L79.2349 50.0986C79.1214 50.1559 79.0078 50.2019 78.9069 50.2478C78.8311 50.2822 78.7681 50.3166 78.6797 50.351C78.44 50.4657 78.2128 50.5576 77.9476 50.6611C77.8212 50.7071 77.7076 50.7531 77.594 50.799L77.0382 51.0061C76.8235 51.0866 76.6464 51.1328 76.4949 51.1903L75.9261 51.3748L75.0789 51.606L74.8004 51.6641L74.2311 51.7918L73.3828 51.9436L73.0916 51.9904L72.509 52.0728L71.66 52.1565C71.6219 52.1567 71.5712 52.1569 71.5077 52.1572C71.4697 52.1574 71.4191 52.169 71.381 52.1692L70.6456 52.207L69.8591 52.2109C69.783 52.2113 69.7069 52.2117 69.6561 52.212L69.0214 52.1811C68.8438 52.182 68.6788 52.1715 68.5136 52.1497C68.4246 52.1388 68.3103 52.128 68.2214 52.1171C67.942 52.0958 67.6752 52.0631 67.3956 52.0191L66.8365 51.9425L66.2898 51.8432C64.8911 51.5779 63.4904 51.1425 62.126 50.5594C60.8892 50.0323 59.6633 49.3577 58.4742 48.5808C57.3872 47.8488 56.35 47.0371 55.4009 46.1682C54.5543 45.3896 53.7323 44.5428 52.9214 43.5597C52.6385 43.2321 52.3807 42.893 52.1358 42.5652C52.0585 42.4635 51.9811 42.3618 51.9038 42.26C51.7879 42.1131 51.6845 41.9548 51.5813 41.8078C51.3748 41.5139 51.1813 41.2425 51.0004 40.9598C50.4321 40.1117 49.1937 38.3819 48.7659 37.6125L45.7706 32.1474L45.8867 33.3836C45.9976 34.1772 46.1513 35.3678 46.5243 36.875C47.0162 38.7673 47.6455 40.4888 48.4389 42.1414C48.6214 42.5489 48.8417 42.9449 49.0624 43.3636L49.2182 43.6692C49.2182 43.6692 49.3606 43.9067 49.4127 44.0199C49.6585 44.4272 49.8917 44.8345 50.1757 45.2415C50.9636 46.4289 51.7625 47.4687 52.6112 48.4289C53.6652 49.5922 54.7301 50.5967 55.8826 51.4986C57.1761 52.5245 58.5823 53.4252 60.0503 54.1893C61.5947 54.9757 63.2897 55.6253 65.1222 56.0926L65.8092 56.2593L66.4959 56.392C66.8774 56.4695 67.2586 56.5243 67.6272 56.5792L67.9068 56.6232C68.1484 56.6673 68.3897 56.6888 68.631 56.7103L69.3676 56.7746C69.5326 56.7852 69.6977 56.7957 69.8626 56.7948C69.9387 56.7945 70.7003 56.8246 70.7003 56.8246L71.677 56.8084C71.7531 56.808 71.8292 56.8076 71.918 56.8072L72.5138 56.7701C72.704 56.7578 72.8942 56.7455 73.0843 56.7332L73.8192 56.6501L74.174 56.6142L74.5664 56.5442L75.2882 56.4271L75.3134 56.4156C75.4525 56.3809 75.5918 56.3575 75.7438 56.334C76.0855 56.2642 76.4272 56.1944 76.7812 56.0905C77.6288 55.882 78.5136 55.6052 79.6627 55.1569C80.6855 54.7433 81.5812 54.319 82.3752 53.8725C84.0391 52.9677 85.6493 51.8136 87.1681 50.433C88.6114 49.1096 89.8884 47.6735 90.9743 46.159L91.3862 45.5896C91.4735 45.4643 91.5607 45.3277 91.6479 45.1911L91.7726 45.009C91.9846 44.7016 92.1713 44.3943 92.3453 44.087L92.5197 43.8138C92.7432 43.4043 92.9792 42.9832 93.1906 42.6191L93.1905 42.6078C93.265 42.4712 93.3268 42.3348 93.4013 42.1982C93.5377 41.9366 93.6867 41.6635 93.7977 41.3906C94.5652 39.7756 95.2048 38.0818 95.7171 36.3432L96.0575 35.0934C96.1791 34.6503 96.2638 34.2981 96.3865 33.9458C96.6425 33.0708 96.8883 32.4001 97.1478 31.8088C97.4942 31.0696 97.817 30.4666 98.1789 29.9655C98.3663 29.7149 98.566 29.4416 98.8293 29.1793L98.9921 28.997L99.2931 28.7005L99.5441 28.4723L99.7198 28.3125L99.9335 28.1413C100.059 28.0498 100.21 27.9356 100.361 27.8327C100.638 27.6385 100.927 27.4441 101.23 27.2837C101.81 26.9404 102.403 26.6878 102.972 26.5148C103.465 26.3648 103.933 26.2943 104.377 26.2921C104.428 26.2918 104.479 26.2916 104.53 26.2913C104.974 26.3118 105.368 26.4005 105.726 26.5916L105.751 26.6028C105.815 26.6366 105.879 26.6816 105.968 26.7266L106.007 26.7491L106.147 26.8391L106.493 27.1097C106.531 27.1435 106.57 27.1887 106.621 27.2225C106.647 27.2451 106.66 27.2677 106.698 27.2789C106.711 27.2901 106.711 27.2901 106.736 27.3014L106.877 27.4368C107.16 27.7304 107.354 28.0357 107.472 28.3642C107.577 28.6814 107.594 29.0103 107.522 29.3624C107.438 29.76 107.265 30.1806 107.041 30.5562C106.568 31.3301 105.829 32.0827 104.973 32.6997C104.571 32.9968 104.142 33.2485 103.714 33.4549L103.373 33.6155L102.994 33.7763L102.224 34.1092C101.176 34.5456 100.091 35.0277 99.1476 35.7018C98.9338 35.8618 98.7327 36.0216 98.5442 36.1701L98.4813 36.2158L98.3308 36.3641C98.1802 36.501 98.0548 36.6264 97.9295 36.7632L97.917 36.7746L97.4415 37.333C97.0675 37.8908 96.783 38.505 96.6129 39.1412C96.055 41.3112 96.7347 42.9983 96.7347 42.9983L97.2671 41.8951C97.3168 41.804 97.3538 41.7131 97.4035 41.6221C97.5522 41.3263 97.7261 41.0077 97.9502 40.6549L97.9626 40.6321C98.2613 40.1427 98.6487 39.6415 99.0873 39.1855C99.5634 38.6725 100.142 38.2724 100.811 37.9627C101.505 37.6415 102.352 37.399 103.503 37.0982L104.35 36.867L104.793 36.7513C104.907 36.7167 105.033 36.682 105.147 36.636L105.298 36.5899C105.981 36.3595 106.637 36.0612 107.293 35.7175C107.935 35.3625 108.565 34.9395 109.155 34.4487C109.796 33.9348 110.36 33.3533 110.835 32.7156C111.397 31.9866 111.806 31.1903 112.063 30.3493C112.209 29.8153 112.292 29.361 112.312 28.9071C112.334 28.6574 112.319 28.4419 112.304 28.2264Z" fill="#F7F7F7"/>
<path d="M43.0633 23.9347C43.1197 24.4109 43.2778 24.9093 43.5369 25.3617C43.7442 25.7237 44.0019 26.0628 44.3358 26.4014C44.9264 26.9997 45.54 27.3937 46.0764 27.6973C46.6127 28.0009 47.1742 28.2817 47.7862 28.5395C56.2889 32.0362 71.6887 31.9929 80.7542 30.5293C82.0709 30.3071 83.2608 30.0969 84.2725 29.8309C87.9904 28.848 90.6996 27.3142 90.6996 27.3142C87.2648 27.5584 83.7841 28.2225 80.3497 28.512C71.5779 29.0666 61.6382 28.4812 51.9619 26.5786C45.5793 25.3628 47.632 21.9492 52.3293 21.1882C54.1878 20.657 56.2885 20.2267 58.9226 19.8505C62.6584 19.3099 66.6764 19.0288 70.8878 19.0076C71.5854 19.0041 72.2959 19.0119 73.0064 19.0196C75.4805 19.0526 77.8669 19.1767 80.0892 19.3811C81.2958 19.4998 82.4644 19.6301 83.57 19.7947L84.4342 19.9265L85.3494 20.0807C86.0102 20.1795 86.6578 20.233 87.4065 20.2519C87.5842 20.2623 87.7745 20.2614 87.9647 20.2604C89.322 20.2536 90.4998 20.0889 91.5869 19.7658C92.3958 19.5121 93.0896 19.1796 93.6809 18.7683C94.3604 18.2997 94.9366 17.6843 95.3091 17.0017C95.5081 16.6717 95.6562 16.3193 95.7534 15.9558L95.7782 15.9103C95.7903 15.8649 95.8026 15.8308 95.8146 15.774L95.8756 15.5695L95.8993 15.4219L95.923 15.2856L95.9466 15.138C95.9581 15.0359 95.9697 14.9451 95.9686 14.8543C96.0363 14.1393 95.9386 13.391 95.7021 12.7002C95.2818 11.4885 94.4948 10.3807 93.3163 9.411C92.4066 8.65549 91.3209 8.02566 90.0333 7.4876C89.0132 7.0503 87.8676 6.71572 86.5702 6.42729C84.5354 5.99508 82.3384 5.79058 79.8392 5.78045L79.6743 5.78127C77.6955 5.79122 75.642 5.92632 73.5773 6.18627C72.6019 6.30462 71.6143 6.45706 70.6521 6.62071L69.2596 6.86594C68.8545 6.93604 68.4621 7.00608 68.0695 7.06477L67.9176 7.08823C64.7522 7.59194 62.0785 7.84361 59.7191 7.85546C59.2244 7.85795 58.7422 7.84903 58.2726 7.8287C56.8131 7.76796 55.5044 7.59303 54.3972 7.2923C53.2265 6.99188 52.2825 6.54285 51.6542 5.97878C51.0775 5.48253 50.4829 4.55528 50.4117 3.89766C50.2825 2.62774 50.8727 1.04791 50.8727 1.04791C50.8727 1.04791 50.2955 1.58399 49.9841 2.07336C49.5481 2.74487 49.3154 3.44939 49.2985 4.16417C49.2918 4.66336 49.3735 5.13941 49.5692 5.59221C49.7779 6.07897 50.1007 6.55381 50.537 6.97136C51.3199 7.73884 52.431 8.36855 53.8572 8.8265C55.067 9.21747 56.4782 9.48265 58.1418 9.63311C59.2212 9.72979 60.3888 9.76929 61.6192 9.76311C63.6361 9.75298 65.8924 9.60551 68.3245 9.30968L68.4512 9.2977C68.8691 9.23888 69.2999 9.19134 69.7051 9.13258L71.0856 8.94413C72.0102 8.82604 72.9605 8.73051 73.8983 8.64639C75.4443 8.51383 76.839 8.4501 78.1455 8.44354C78.7037 8.44074 79.2492 8.44934 79.7823 8.46935C82.0412 8.54876 84.0105 8.79978 85.7791 9.24467C86.8096 9.50041 87.7649 9.8246 88.594 10.2061C89.5378 10.6325 90.3301 11.1277 90.9455 11.6691C91.6249 12.2669 92.0766 12.9226 92.2747 13.5796C92.4727 14.2253 92.3917 14.8836 92.0555 15.4185C91.9064 15.6802 91.6931 15.8854 91.4162 16.0684C91.1519 16.2398 90.7858 16.3892 90.3813 16.516C89.7491 16.6893 89.0143 16.7724 88.1771 16.7766C87.9615 16.7777 87.7332 16.7789 87.5046 16.7573C86.9715 16.7373 86.4506 16.6719 85.9931 16.5948L85.1158 16.429L84.2005 16.2634C83.031 16.0651 81.7731 15.8899 80.5029 15.7488C78.1528 15.477 75.6516 15.2967 73.0502 15.219C71.8954 15.1908 70.7535 15.1739 69.6246 15.1795C65.6669 15.1994 61.8134 15.4457 58.2038 15.9289C57.0258 16.0823 55.8357 16.2812 54.5574 16.5258C53.2413 16.7933 52.0648 17.0715 50.9522 17.3834C49.612 17.7645 48.45 18.1901 47.3901 18.6719C46.7215 18.9815 46.1543 19.2907 45.6129 19.6337C45.0843 19.9881 44.4556 20.4563 43.9055 21.1398C43.6056 21.527 43.3695 21.9366 43.2223 22.3684C43.1855 22.4707 43.1491 22.607 43.1125 22.732L43.0765 22.9023L43.0642 22.9364C43.0523 23.0045 43.0406 23.084 43.0288 23.1635L43.0173 23.2656C43.0181 23.3337 43.0184 23.3564 43.0185 23.3677L43.0072 23.4812L43.0087 23.606L43.01 23.7194L43.0633 23.9347Z" fill="#F7F7F7"/>
</svg>
