<svg width="40" height="40" viewBox="0 0 40 40" fill="none" xmlns="http://www.w3.org/2000/svg">
<g clip-path="url(#clip0_262_2738)">
<path d="M10.2826 5.03126C9.44516 4.19376 9.44516 2.8386 10.2826 2.0011C10.7402 1.54344 10.7402 0.80157 10.2826 0.343914C9.825 -0.113743 9.08305 -0.113743 8.62539 0.343914C6.87617 2.09313 6.87617 4.93923 8.62539 6.68845C9.46281 7.52587 9.46281 8.8811 8.62539 9.7186C8.16773 10.1763 8.16773 10.9181 8.62539 11.3758C9.08297 11.8334 9.825 11.8334 10.2826 11.3758C12.0318 9.62657 12.0318 6.78048 10.2826 5.03126Z" fill="#FD684D"/>
<path d="M17.3136 5.03126C16.4762 4.19376 16.4762 2.8386 17.3136 2.0011C17.7712 1.54344 17.7712 0.80157 17.3136 0.343914C16.856 -0.113743 16.1141 -0.113743 15.6564 0.343914C13.9072 2.09313 13.9072 4.93923 15.6564 6.68845C16.4938 7.52587 16.4938 8.8811 15.6564 9.7186C15.1987 10.1763 15.1987 10.9181 15.6564 11.3758C16.114 11.8334 16.8561 11.8334 17.3136 11.3758C19.0628 9.62657 19.0628 6.78048 17.3136 5.03126Z" fill="#FD684D"/>
<path d="M24.3446 5.03126C23.5072 4.19376 23.5072 2.8386 24.3446 2.0011C24.8022 1.54344 24.8022 0.80157 24.3446 0.343914C23.887 -0.113743 23.145 -0.113743 22.6874 0.343914C20.9382 2.09313 20.9382 4.93923 22.6874 6.68845C23.5248 7.52587 23.5248 8.8811 22.6874 9.7186C22.2297 10.1763 22.2297 10.9181 22.6874 11.3758C23.145 11.8334 23.8871 11.8334 24.3446 11.3758C26.0939 9.62657 26.0939 6.78048 24.3446 5.03126Z" fill="#FD684D"/>
<path d="M29.4534 30.5465C35.2688 30.5465 40 25.8153 40 20C40 18.0615 38.4229 16.4844 36.4844 16.4844H32.9463C32.9612 16.0948 32.9689 15.7041 32.9689 15.3126C32.9689 14.6654 32.4442 14.1407 31.797 14.1407H1.1731C0.525908 14.1407 0.00122055 14.6654 0.00122055 15.3126C0.00122055 21.7182 2.05692 28.438 6.34114 32.9683H1.1731C0.304111 32.9683 -0.264483 33.8852 0.124892 34.6641C0.926924 36.268 2.15778 37.6144 3.68474 38.5576C5.21122 39.5008 6.96606 39.9992 8.75942 39.9992H24.2108C27.8654 39.9992 31.2092 37.9361 32.8453 34.664C33.2339 33.8868 32.6681 32.9682 31.7971 32.9682H26.6289C27.3232 32.234 27.9736 31.4244 28.5733 30.5464H29.4534V30.5465ZM32.7653 18.8281H36.4845C37.1307 18.8281 37.6564 19.3538 37.6564 20C37.6564 24.3465 34.2579 27.9137 29.9788 28.1856C31.4437 25.3508 32.3784 22.1502 32.7653 18.8281ZM29.5813 35.2964C28.2211 36.7747 26.2947 37.6557 24.2107 37.6557H8.75942C6.67544 37.6557 4.74911 36.7747 3.38888 35.2964C4.42145 35.2964 29.0225 35.2964 29.5813 35.2964ZM23.1375 32.9683H9.83255C5.517 29.7035 2.66286 23.3517 2.36981 16.4689L30.6003 16.4845C30.3414 22.5661 27.9169 29.3526 23.1375 32.9683Z" fill="#FD684D"/>
</g>
<defs>
<clipPath id="clip0_262_2738">
<rect width="40" height="40" fill="white"/>
</clipPath>
</defs>
</svg>
