<svg width="150" height="82" viewBox="0 0 152 87" fill="none" xmlns="http://www.w3.org/2000/svg">
<path d="M152 86.2843C152 86.2843 151.42 86.089 150.344 85.7123C149.254 85.3356 147.667 84.7635 145.638 84.0938C145.128 83.9264 144.604 83.745 144.038 83.5636C143.486 83.3822 142.892 83.1869 142.271 82.9915C141.043 82.6148 139.719 82.1962 138.297 81.7498C136.876 81.3451 135.358 80.9126 133.757 80.4382C132.143 80.0197 130.459 79.5453 128.693 79.0988C127.81 78.8895 126.899 78.6663 125.988 78.443C125.519 78.3314 125.064 78.2058 124.594 78.1082C124.125 78.0105 123.642 77.8989 123.159 77.7873C122.207 77.578 121.227 77.3547 120.234 77.1455C119.254 76.9222 118.247 76.7408 117.212 76.5316C116.191 76.3362 115.156 76.113 114.093 75.9316C113.044 75.7502 111.982 75.5688 110.905 75.3735C110.367 75.2758 109.815 75.1921 109.277 75.1223C108.725 75.0386 108.173 74.9549 107.635 74.8712C106.531 74.7038 105.427 74.5224 104.296 74.3968C99.797 73.769 95.1328 73.3504 90.3858 72.9876C89.1991 72.9179 88.0124 72.8481 86.8118 72.7783L85.9148 72.7225L85.0179 72.6946C84.4245 72.6807 83.8173 72.6528 83.224 72.6249C82.0234 72.583 80.8229 72.5272 79.5947 72.5272C78.408 72.5132 77.1936 72.5132 76.0069 72.4853C73.5644 72.5272 71.1219 72.4993 68.7346 72.6249C68.1275 72.6528 67.5341 72.6667 66.9407 72.6946L66.0438 72.7225L65.1468 72.7783C63.9463 72.8481 62.7595 72.9179 61.5728 72.9876C56.8396 73.3504 52.1616 73.769 47.663 74.3968C46.5453 74.5224 45.4275 74.7038 44.3236 74.8712C43.7716 74.9549 43.2196 75.0386 42.6814 75.1223C42.1295 75.2061 41.5913 75.2758 41.0531 75.3735C39.9768 75.5549 38.9142 75.7502 37.8517 75.9316C36.8029 76.099 35.768 76.3362 34.7468 76.5316C33.7256 76.7408 32.7045 76.9222 31.7247 77.1455C30.7312 77.3687 29.7652 77.578 28.7993 77.7873C28.3163 77.8849 27.8333 77.9966 27.3779 78.1082C26.9088 78.2198 26.4396 78.3314 25.9842 78.443C25.0596 78.6663 24.1627 78.8895 23.2795 79.1128C21.5132 79.5592 19.8297 80.0336 18.229 80.4522C16.6282 80.9126 15.1103 81.3452 13.689 81.7637C12.2676 82.1963 10.9567 82.6288 9.72855 82.9915C9.10758 83.1869 8.52801 83.3822 7.96223 83.5636C7.39646 83.7589 6.87208 83.9264 6.36151 84.0938C4.333 84.7635 2.74607 85.3356 1.66972 85.7123C0.593371 86.089 0 86.2843 0 86.2843C0 86.2843 0.551975 86.0192 1.58693 85.5169C2.1113 85.2658 2.74607 84.9728 3.50504 84.61C4.2502 84.2333 5.13336 83.8566 6.11312 83.4241C6.6099 83.2008 7.12047 82.9776 7.65865 82.7404C8.21062 82.5032 8.77639 82.2521 9.36977 82.0149C10.5703 81.5265 11.8675 81.0103 13.2612 80.4522C14.6687 79.922 16.1591 79.3779 17.7322 78.7919C18.5325 78.5268 19.3329 78.2477 20.1747 77.9547C21.0026 77.6757 21.8582 77.3687 22.7414 77.1036C26.2602 76.0153 30.0964 74.8712 34.2086 73.9085C36.2509 73.3783 38.376 72.9458 40.5425 72.4853C41.6327 72.2342 42.7366 72.0668 43.8406 71.8575C44.9583 71.6482 46.0761 71.4389 47.2214 71.2715C48.3668 71.0901 49.5121 70.9227 50.6575 70.7413C51.8166 70.5738 52.9896 70.4343 54.1625 70.2808C54.7421 70.2111 55.3493 70.1274 55.9288 70.0576C56.5222 69.9878 57.1156 69.932 57.7089 69.8762C58.9095 69.7646 60.0962 69.639 61.3106 69.5414C66.1266 69.1507 71.0943 68.9693 75.9517 68.9414C77.1798 68.9554 78.4218 68.9693 79.6499 68.9833C80.8781 68.9833 82.1062 69.053 83.3206 69.1088C83.9277 69.1228 84.5349 69.1507 85.1559 69.1786L86.0666 69.2205L86.9774 69.2902C88.1917 69.3739 89.4061 69.4576 90.6204 69.5414C91.2276 69.5832 91.821 69.653 92.4281 69.7088C93.0215 69.7646 93.6287 69.8344 94.2221 69.8762C94.8154 69.932 95.4088 70.0018 96.0022 70.0576C96.5956 70.1274 97.1889 70.1971 97.7685 70.2808C98.9414 70.4343 100.114 70.5738 101.274 70.7273C102.433 70.9087 103.578 71.0901 104.71 71.2715C105.855 71.4389 106.973 71.6482 108.077 71.8575C109.194 72.0668 110.312 72.2481 111.388 72.4853C113.555 72.9458 115.68 73.3783 117.736 73.9085C121.848 74.8852 125.671 76.0153 129.19 77.1176C130.073 77.3966 130.915 77.6896 131.756 77.9687C132.584 78.2617 133.398 78.5268 134.199 78.7919C135.772 79.3779 137.262 79.936 138.67 80.4522C140.064 81.0103 141.361 81.5265 142.547 82.0149C143.155 82.2521 143.72 82.5172 144.272 82.7404C144.811 82.9776 145.335 83.2148 145.818 83.4241C146.811 83.8566 147.681 84.2333 148.426 84.61C149.185 84.9728 149.82 85.2797 150.33 85.5169C151.462 86.0192 152 86.2843 152 86.2843Z" fill="#ED1C24"/>
<path d="M121.559 34.6459V34.5203C121.545 34.3947 121.531 34.2831 121.517 34.1715L121.504 34.0319C121.476 33.8785 121.462 33.711 121.421 33.5436L121.31 33.0832C121.283 32.9716 121.241 32.8599 121.2 32.7344L121.172 32.6367C121.103 32.3716 120.993 32.1344 120.896 31.9112L120.8 31.7158C120.662 31.4228 120.51 31.1577 120.344 30.8926C120.344 30.8926 120.248 30.7531 120.22 30.6973C120.096 30.502 119.958 30.3066 119.82 30.1392L119.558 29.8043C119.489 29.7206 119.406 29.623 119.309 29.5392L119.227 29.4416L118.895 29.1067L118.44 28.6881C118.399 28.6323 118.343 28.5905 118.288 28.5486L117.929 28.2696C117.695 28.1021 117.419 27.9068 117.129 27.7394C116.55 27.3906 115.929 27.1394 115.308 26.958C114.7 26.7906 114.038 26.6929 113.362 26.665C113.293 26.665 113.21 26.665 113.127 26.665C111.996 26.665 110.85 26.8883 109.705 27.3348C108.684 27.7394 107.663 28.2975 106.697 28.9951C106.241 29.316 105.8 29.6788 105.386 30.0555C105.165 30.2508 104.958 30.4601 104.765 30.6415L104.461 30.9484L104.158 31.2694L103.813 31.6461L103.33 32.2321L103.068 32.5809C102.764 32.9995 102.46 33.4459 102.102 34.0459C101.563 34.9807 101.094 35.9992 100.68 37.1433C100.321 38.134 100.004 39.1525 99.7281 40.2687C99.6039 40.7291 99.4659 41.2454 99.3279 41.8035L99.2865 41.9709L98.9691 43.2127C98.4586 45.0544 97.7686 46.8822 96.9406 48.6123C96.8164 48.8913 96.6923 49.1425 96.5405 49.4215C96.4577 49.575 96.3749 49.7424 96.2921 49.8959L96.1265 50.2168C95.9471 50.5377 95.7815 50.8447 95.6021 51.1377C95.5469 51.2493 95.4641 51.347 95.4089 51.4586C95.2157 51.7795 95.0363 52.0725 94.8293 52.3655L94.6776 52.5887C94.5948 52.7143 94.5119 52.8399 94.4291 52.9515L94.0014 53.5375C92.9526 54.9886 91.6969 56.4117 90.2755 57.7372C89.7098 58.2534 88.9508 58.9092 88.1366 59.4952C87.8745 59.6905 87.5985 59.8859 87.3087 60.0952L87.0327 60.2905C86.9223 60.3602 86.7981 60.444 86.6877 60.5137C86.6187 60.5556 86.5359 60.6114 86.4669 60.6533L86.3565 60.723C86.2047 60.8207 86.0667 60.9044 85.9011 61.0021L85.3078 61.3369C85.1836 61.4067 85.0594 61.4625 84.949 61.5183C84.8662 61.5602 84.7972 61.602 84.7006 61.6439C84.4384 61.7834 84.19 61.895 83.9002 62.0206C83.7622 62.0764 83.6381 62.1322 83.5139 62.188L82.9067 62.4392C82.6721 62.5368 82.4789 62.5926 82.3133 62.6624L81.6923 62.8857L80.7678 63.1647L80.4642 63.2345L79.8432 63.3879L78.9187 63.5693L78.6013 63.6251L77.9665 63.7228L77.042 63.8205C77.0006 63.8205 76.9454 63.8205 76.8764 63.8205C76.835 63.8205 76.7798 63.8344 76.7384 63.8344L75.938 63.8763H75.0825C74.9997 63.8763 74.9169 63.8763 74.8617 63.8763L74.1717 63.8344C73.9785 63.8344 73.7991 63.8205 73.6197 63.7926C73.5231 63.7786 73.3989 63.7646 73.3023 63.7507C72.9987 63.7228 72.709 63.6809 72.4054 63.6251L71.7982 63.5275L71.2048 63.4019C69.6869 63.067 68.169 62.5229 66.6924 61.7973C65.3539 61.1416 64.0292 60.3044 62.7458 59.3417C61.5729 58.4348 60.4551 57.4302 59.434 56.3559C58.5232 55.3932 57.6401 54.3467 56.7707 53.1329C56.4671 52.7283 56.1911 52.3097 55.9289 51.9051C55.8461 51.7795 55.7633 51.6539 55.6805 51.5283C55.5563 51.347 55.446 51.1516 55.3356 50.9702C55.1148 50.6075 54.9078 50.2726 54.7146 49.9238C54.1074 48.8774 52.7827 46.7426 52.3273 45.7939L49.1396 39.0548L49.25 40.5757C49.3604 41.5523 49.5122 43.0173 49.8986 44.873C50.4092 47.2031 51.0716 49.3238 51.9133 51.3609C52.1065 51.8632 52.3411 52.3515 52.5757 52.8678L52.7413 53.2445C52.7413 53.2445 52.8931 53.5375 52.9483 53.677C53.2105 54.1793 53.4588 54.6816 53.7624 55.1839C54.6042 56.6489 55.4598 57.9325 56.3705 59.1185C57.5021 60.5556 58.6474 61.7973 59.8893 62.9135C61.2831 64.1832 62.801 65.2994 64.3879 66.2482C66.0577 67.2249 67.893 68.0341 69.8801 68.6201L70.6252 68.8294L71.3704 68.9968C71.7844 69.0945 72.1984 69.1643 72.5986 69.234L72.9021 69.2898C73.1643 69.3456 73.4265 69.3735 73.6887 69.4014L74.4891 69.4852C74.6685 69.4991 74.8479 69.5131 75.0273 69.5131C75.11 69.5131 75.938 69.5549 75.938 69.5549L77.0006 69.541C77.0834 69.541 77.1662 69.541 77.2628 69.541L77.9113 69.4991C78.1183 69.4852 78.3253 69.4712 78.5323 69.4573L79.3327 69.3596L79.719 69.3177L80.1468 69.234L80.9334 69.0945L80.961 69.0805C81.1128 69.0387 81.2646 69.0108 81.4302 68.9829C81.8027 68.8992 82.1753 68.8154 82.5617 68.6899C83.4863 68.4387 84.4522 68.1039 85.708 67.5597C86.8257 67.0574 87.8055 66.5412 88.6748 65.997C90.4963 64.8948 92.2627 63.4856 93.9324 61.7973C95.5193 60.1789 96.9268 58.4209 98.1274 56.5652L98.5828 55.8675C98.6794 55.7141 98.776 55.5466 98.8726 55.3792L99.0105 55.156C99.2451 54.7793 99.4521 54.4025 99.6453 54.0258L99.8385 53.691C100.087 53.1887 100.349 52.6724 100.584 52.226V52.212C100.666 52.0446 100.735 51.8771 100.818 51.7097C100.97 51.3888 101.136 51.054 101.26 50.7191C102.115 48.7378 102.833 46.6589 103.413 44.5242L103.799 42.9894C103.937 42.4453 104.034 42.0128 104.172 41.5802C104.461 40.5059 104.737 39.6827 105.027 38.9572C105.413 38.0503 105.772 37.3108 106.172 36.6969C106.379 36.3899 106.6 36.055 106.89 35.7341L107.069 35.5109L107.401 35.1481L107.677 34.8691L107.87 34.6738L108.104 34.4645C108.242 34.3529 108.408 34.2133 108.574 34.0878C108.877 33.8506 109.194 33.6134 109.526 33.418C110.16 32.9995 110.809 32.6925 111.43 32.4832C111.968 32.3018 112.479 32.2181 112.962 32.2181C113.017 32.2181 113.072 32.2181 113.127 32.2181C113.61 32.246 114.038 32.3576 114.424 32.5948L114.452 32.6088C114.521 32.6506 114.59 32.7065 114.687 32.7623L114.728 32.7902L114.88 32.9018L115.252 33.2367C115.294 33.2785 115.335 33.3343 115.39 33.3762C115.418 33.4041 115.432 33.432 115.473 33.4459C115.487 33.4599 115.487 33.4599 115.515 33.4738L115.666 33.6413C115.97 34.004 116.177 34.3808 116.301 34.7854C116.412 35.176 116.425 35.5807 116.343 36.0132C116.246 36.5015 116.053 37.0178 115.804 37.4782C115.28 38.427 114.466 39.3478 113.527 40.1013C113.086 40.464 112.617 40.771 112.148 41.0221L111.775 41.2175L111.361 41.4128L110.519 41.8174C109.374 42.3476 108.187 42.9336 107.152 43.7568C106.918 43.9521 106.697 44.1475 106.49 44.3289L106.421 44.3847L106.255 44.5661C106.09 44.7335 105.952 44.887 105.814 45.0544L105.8 45.0683L105.275 45.752C104.861 46.4357 104.544 47.1891 104.351 47.9705C103.716 50.6354 104.434 52.7143 104.434 52.7143L105.027 51.3609C105.082 51.2493 105.124 51.1377 105.179 51.0261C105.344 50.6633 105.538 50.2726 105.786 49.8401L105.8 49.8122C106.131 49.2122 106.559 48.5983 107.042 48.0402C107.566 47.4124 108.201 46.924 108.932 46.5473C109.691 46.1566 110.616 45.8636 111.872 45.5009L112.796 45.2218L113.279 45.0823C113.403 45.0404 113.541 44.9986 113.665 44.9428L113.831 44.887C114.576 44.6079 115.294 44.2451 116.011 43.8266C116.715 43.394 117.405 42.8778 118.054 42.2779C118.757 41.65 119.378 40.9384 119.903 40.1571C120.524 39.2641 120.979 38.2874 121.269 37.255C121.435 36.5992 121.531 36.0411 121.559 35.483C121.586 35.176 121.572 34.9109 121.559 34.6459Z" fill="#ED1C24"/>
<path d="M46.2832 28.8415C46.3384 29.4275 46.504 30.0414 46.78 30.5995C47.0008 31.046 47.2768 31.4645 47.6356 31.8831C48.2703 32.6226 48.9327 33.1109 49.5123 33.4876C50.0918 33.8644 50.699 34.2132 51.3614 34.5341C60.5656 38.8872 77.318 38.9291 87.1983 37.185C88.6335 36.92 89.9306 36.6688 91.0346 36.3479C95.0916 35.1619 98.0584 33.2923 98.0584 33.2923C94.3188 33.5714 90.524 34.3666 86.7844 34.7015C77.2352 35.3294 66.4303 34.548 55.929 32.1482C49.0017 30.6134 51.2786 26.4277 56.3982 25.5208C58.4267 24.879 60.7174 24.3627 63.5876 23.9163C67.6584 23.2744 72.0328 22.9535 76.6142 22.9535C77.3732 22.9535 78.146 22.9675 78.9187 22.9814C81.6096 23.0372 84.2039 23.2047 86.6188 23.4698C87.9297 23.6233 89.1993 23.7907 90.3998 24L91.3382 24.1674L92.3317 24.3627C93.0493 24.4883 93.753 24.5581 94.5672 24.586C94.7604 24.5999 94.9674 24.5999 95.1744 24.5999C96.6509 24.5999 97.9342 24.4046 99.121 24.0139C100.004 23.707 100.763 23.3023 101.412 22.8001C102.157 22.228 102.792 21.4746 103.206 20.6374C103.426 20.2328 103.592 19.8003 103.702 19.3538L103.73 19.298C103.744 19.2422 103.758 19.2003 103.771 19.1306L103.84 18.8794L103.868 18.698L103.896 18.5306L103.923 18.3492C103.937 18.2236 103.951 18.112 103.951 18.0004C104.034 17.1214 103.937 16.2005 103.689 15.3494C103.247 13.8565 102.405 12.4892 101.136 11.2893C100.156 10.3545 98.983 9.57312 97.5893 8.9034C96.4853 8.35926 95.2434 7.94068 93.8358 7.57792C91.6279 7.03377 89.2406 6.76868 86.5222 6.74077H86.3428C84.1901 6.74077 81.9546 6.89425 79.7053 7.2012C78.6427 7.34072 77.5664 7.52211 76.5176 7.71744L74.9997 8.01045C74.5581 8.09416 74.1303 8.17787 73.7026 8.24763L73.537 8.27554C70.0871 8.8755 67.1755 9.1685 64.6088 9.1685C64.0706 9.1685 63.5462 9.15455 63.0357 9.12664C61.4487 9.04293 60.0274 8.81969 58.8268 8.44297C57.5573 8.06626 56.5362 7.50816 55.86 6.81053C55.239 6.19662 54.6042 5.05252 54.5352 4.24328C54.4111 2.6806 55.0734 0.741211 55.0734 0.741211C55.0734 0.741211 54.4386 1.39698 54.0937 1.99693C53.6107 2.82013 53.3485 3.68518 53.3209 4.56419C53.3071 5.17809 53.3899 5.7641 53.5969 6.3222C53.8177 6.92215 54.1627 7.50816 54.6318 8.0244C55.4736 8.97317 56.6741 9.7545 58.2197 10.3266C59.5306 10.8149 61.0623 11.1497 62.8701 11.3451C64.043 11.4707 65.3125 11.5265 66.6511 11.5265C68.8452 11.5265 71.3015 11.359 73.951 11.0102L74.0889 10.9963C74.5443 10.9265 75.0135 10.8707 75.4551 10.8009L76.9592 10.5777C77.9666 10.4382 79.0015 10.3266 80.0227 10.2289C81.7062 10.0754 83.2241 10.0056 84.6455 10.0056C85.2526 10.0056 85.846 10.0196 86.4256 10.0475C88.8819 10.1591 91.0208 10.48 92.9389 11.0381C94.0566 11.359 95.0916 11.7637 95.9885 12.238C97.0097 12.7682 97.8652 13.3821 98.5276 14.0519C99.259 14.7913 99.742 15.6006 99.949 16.4098C100.156 17.2051 100.059 18.0144 99.6868 18.6701C99.5212 18.991 99.2866 19.2422 98.983 19.4654C98.6932 19.6747 98.293 19.8561 97.8515 20.0096C97.1615 20.2189 96.3611 20.3165 95.4504 20.3165C95.2158 20.3165 94.9674 20.3165 94.719 20.2886C94.1394 20.2607 93.5736 20.177 93.0769 20.0793L92.1247 19.87L91.1312 19.6608C89.8616 19.4096 88.4955 19.1864 87.1155 19.005C84.5627 18.6562 81.8442 18.419 79.0153 18.3074C77.7596 18.2655 76.5176 18.2376 75.2895 18.2376C70.9841 18.2376 66.7891 18.5166 62.8563 19.0887C61.5729 19.2701 60.2758 19.5073 58.882 19.8003C57.4469 20.1212 56.1636 20.456 54.9492 20.8328C53.4865 21.2932 52.217 21.8094 51.0578 22.3954C50.3264 22.7722 49.7055 23.1489 49.1121 23.5674C48.5325 24 47.8426 24.572 47.2354 25.4092C46.9042 25.8835 46.642 26.3858 46.4764 26.916C46.435 27.0416 46.3936 27.209 46.3522 27.3625L46.3108 27.5718L46.297 27.6137C46.2832 27.6974 46.2694 27.795 46.2556 27.8927L46.2418 28.0183C46.2418 28.102 46.2418 28.1299 46.2418 28.1438L46.228 28.2834V28.4369V28.5764L46.2832 28.8415Z" fill="#ED1C24"/>
</svg>
