<svg width="60" height="53" viewBox="0 0 60 53" fill="none" xmlns="http://www.w3.org/2000/svg">
<path d="M60 33.8341C60 33.8341 59.7712 33.7569 59.3463 33.6079C58.916 33.4589 58.2896 33.2326 57.4889 32.9677C57.2873 32.9015 57.0803 32.8298 56.857 32.758C56.6391 32.6863 56.4049 32.609 56.1598 32.5318C55.675 32.3828 55.1521 32.2172 54.591 32.0406C54.03 31.8806 53.4308 31.7095 52.7989 31.5219C52.1616 31.3563 51.4971 31.1687 50.7998 30.9921C50.4512 30.9093 50.0917 30.821 49.7322 30.7327C49.547 30.6886 49.3672 30.6389 49.182 30.6003C48.9968 30.5616 48.8062 30.5175 48.6155 30.4734C48.2397 30.3906 47.8529 30.3023 47.4607 30.2195C47.074 30.1312 46.6764 30.0595 46.2678 29.9767C45.8647 29.8994 45.4562 29.8111 45.0368 29.7394C44.6228 29.6676 44.2034 29.5959 43.7785 29.5186C43.566 29.48 43.3482 29.4469 43.1357 29.4193C42.9178 29.3862 42.7 29.3531 42.4875 29.32C42.0517 29.2538 41.616 29.182 41.1693 29.1324C39.3936 28.884 37.5524 28.7185 35.6786 28.575C35.2102 28.5474 34.7417 28.5198 34.2678 28.4922L33.9138 28.4701L33.5597 28.4591C33.3255 28.4536 33.0858 28.4425 32.8516 28.4315C32.3777 28.4149 31.9038 28.3929 31.419 28.3929C30.9505 28.3874 30.4712 28.3874 30.0027 28.3763C29.0386 28.3929 28.0744 28.3818 27.1321 28.4315C26.8924 28.4425 26.6582 28.4481 26.424 28.4591L26.0699 28.4701L25.7158 28.4922C25.2419 28.5198 24.7735 28.5474 24.305 28.575C22.4367 28.7185 20.5901 28.884 18.8143 29.1324C18.3731 29.182 17.9319 29.2538 17.4961 29.32C17.2783 29.3531 17.0604 29.3862 16.8479 29.4193C16.63 29.4524 16.4176 29.48 16.2052 29.5186C15.7803 29.5904 15.3609 29.6676 14.9414 29.7394C14.5275 29.8056 14.1189 29.8994 13.7158 29.9767C13.3128 30.0595 12.9097 30.1312 12.5229 30.2195C12.1307 30.3078 11.7494 30.3906 11.3681 30.4734C11.1775 30.512 10.9868 30.5561 10.8071 30.6003C10.6219 30.6444 10.4367 30.6886 10.2569 30.7327C9.89197 30.821 9.5379 30.9093 9.18929 30.9976C8.49206 31.1742 7.82751 31.3618 7.19564 31.5274C6.56378 31.7095 5.96459 31.8806 5.40354 32.0461C4.84249 32.2172 4.32501 32.3883 3.84022 32.5318C3.5951 32.609 3.36632 32.6863 3.14299 32.758C2.91965 32.8353 2.71266 32.9015 2.51112 32.9677C1.71039 33.2326 1.08398 33.4589 0.659101 33.6079C0.234226 33.7569 0 33.8341 0 33.8341C0 33.8341 0.217885 33.7293 0.626419 33.5306C0.833409 33.4313 1.08398 33.3154 1.38357 33.1719C1.67771 33.0229 2.02633 32.8739 2.41307 32.7028C2.60917 32.6145 2.81071 32.5262 3.02315 32.4324C3.24103 32.3386 3.46437 32.2393 3.69859 32.1455C4.17249 31.9523 4.68452 31.7481 5.23468 31.5274C5.79029 31.3177 6.37857 31.1025 6.99955 30.8707C7.31548 30.7658 7.63141 30.6555 7.96369 30.5396C8.29051 30.4292 8.62823 30.3078 8.97685 30.2029C10.3659 29.7725 11.8802 29.32 13.5034 28.9392C14.3096 28.7295 15.1484 28.5584 16.0036 28.3763C16.434 28.277 16.8697 28.2108 17.3055 28.128C17.7467 28.0452 18.1879 27.9624 18.64 27.8962C19.0921 27.8245 19.5443 27.7582 19.9964 27.6865C20.4539 27.6203 20.9169 27.5651 21.3799 27.5044C21.6087 27.4768 21.8484 27.4437 22.0772 27.4161C22.3114 27.3885 22.5456 27.3664 22.7798 27.3444C23.2537 27.3002 23.7222 27.2505 24.2015 27.2119C26.1026 27.0574 28.0636 26.9857 29.9809 26.9746C30.4657 26.9801 30.956 26.9856 31.4408 26.9912C31.9256 26.9912 32.4104 27.0188 32.8897 27.0408C33.1294 27.0464 33.369 27.0574 33.6142 27.0684L33.9737 27.085L34.3332 27.1126C34.8125 27.1457 35.2919 27.1788 35.7712 27.2119C36.0109 27.2285 36.2451 27.2561 36.4848 27.2781C36.719 27.3002 36.9587 27.3278 37.1929 27.3444C37.4271 27.3664 37.6614 27.394 37.8956 27.4161C38.1298 27.4437 38.364 27.4713 38.5928 27.5044C39.0558 27.5651 39.5188 27.6203 39.9764 27.681C40.434 27.7527 40.8861 27.8245 41.3327 27.8962C41.7848 27.9624 42.2261 28.0452 42.6618 28.128C43.103 28.2108 43.5443 28.2825 43.9691 28.3763C44.8243 28.5584 45.6632 28.7295 46.4748 28.9392C48.098 29.3255 49.6069 29.7725 50.9959 30.2085C51.3445 30.3188 51.6768 30.4347 52.0091 30.5451C52.3359 30.661 52.6573 30.7658 52.9732 30.8707C53.5942 31.1025 54.1825 31.3232 54.7381 31.5274C55.2882 31.7481 55.8003 31.9523 56.2687 32.1455C56.5084 32.2393 56.7317 32.3441 56.9496 32.4324C57.1621 32.5262 57.369 32.6201 57.5597 32.7028C57.9519 32.8739 58.2951 33.0229 58.5892 33.1719C58.8888 33.3154 59.1394 33.4368 59.3409 33.5306C59.7876 33.7293 60 33.8341 60 33.8341Z" fill="#ED1C24"/>
<path d="M47.9837 13.4101V13.3604C47.9782 13.3108 47.9728 13.2666 47.9673 13.2225L47.9619 13.1673C47.951 13.1066 47.9456 13.0404 47.9292 12.9741L47.8856 12.792C47.8747 12.7479 47.8584 12.7037 47.8421 12.6541L47.8312 12.6154C47.8039 12.5106 47.7604 12.4168 47.7222 12.3285L47.6841 12.2512C47.6296 12.1353 47.5697 12.0305 47.5043 11.9256C47.5043 11.9256 47.4662 11.8704 47.4553 11.8484C47.4063 11.7711 47.3518 11.6939 47.2973 11.6276L47.1938 11.4952C47.1666 11.4621 47.1339 11.4234 47.0958 11.3903L47.0631 11.3517L46.9324 11.2193L46.7526 11.0537C46.7363 11.0316 46.7145 11.0151 46.6927 10.9985L46.5511 10.8881C46.4585 10.8219 46.3495 10.7447 46.2352 10.6784C46.0064 10.5405 45.7613 10.4411 45.5161 10.3694C45.2765 10.3032 45.015 10.2646 44.7481 10.2535C44.7209 10.2535 44.6882 10.2535 44.6555 10.2535C44.2088 10.2535 43.7567 10.3418 43.3046 10.5184C42.9015 10.6784 42.4984 10.8992 42.1171 11.1751C41.9374 11.302 41.7631 11.4455 41.5997 11.5945C41.5125 11.6718 41.4308 11.7546 41.3545 11.8263L41.2347 11.9477L41.1149 12.0746L40.9787 12.2236L40.788 12.4554L40.6845 12.5934C40.5647 12.7589 40.4449 12.9355 40.3033 13.1728C40.0908 13.5426 39.9056 13.9454 39.7422 14.3979C39.6006 14.7897 39.4753 15.1926 39.3663 15.6341C39.3173 15.8162 39.2628 16.0204 39.2084 16.2411L39.192 16.3073L39.0668 16.7985C38.8652 17.5269 38.5929 18.2498 38.266 18.9341C38.217 19.0445 38.168 19.1438 38.1081 19.2542C38.0754 19.3149 38.0427 19.3811 38.01 19.4418L37.9447 19.5688C37.8738 19.6957 37.8085 19.8171 37.7377 19.933C37.7159 19.9771 37.6832 20.0158 37.6614 20.0599C37.5851 20.1868 37.5143 20.3027 37.4326 20.4186L37.3727 20.5069C37.34 20.5566 37.3073 20.6062 37.2747 20.6504L37.1058 20.8822C36.6918 21.4561 36.1961 22.019 35.6351 22.5432C35.4117 22.7474 35.1121 23.0068 34.7908 23.2386C34.6873 23.3158 34.5783 23.3931 34.4639 23.4759L34.355 23.5531C34.3114 23.5807 34.2624 23.6138 34.2188 23.6414C34.1916 23.658 34.1589 23.6801 34.1317 23.6966L34.0881 23.7242C34.0282 23.7628 33.9737 23.7959 33.9083 23.8346L33.6741 23.967C33.6251 23.9946 33.5761 24.0167 33.5325 24.0388C33.4998 24.0553 33.4726 24.0719 33.4344 24.0884C33.3309 24.1436 33.2329 24.1878 33.1185 24.2374C33.064 24.2595 33.015 24.2816 32.966 24.3037L32.7263 24.403C32.6337 24.4416 32.5574 24.4637 32.4921 24.4913L32.247 24.5796L31.882 24.6899L31.7622 24.7175L31.5171 24.7782L31.1521 24.85L31.0268 24.8721L30.7762 24.9107L30.4113 24.9493C30.3949 24.9493 30.3732 24.9493 30.3459 24.9493C30.3296 24.9493 30.3078 24.9548 30.2915 24.9548L29.9755 24.9714H29.6378C29.6051 24.9714 29.5724 24.9714 29.5506 24.9714L29.2783 24.9548C29.202 24.9548 29.1312 24.9493 29.0604 24.9383C29.0223 24.9328 28.9732 24.9272 28.9351 24.9217C28.8153 24.9107 28.7009 24.8941 28.5811 24.8721L28.3414 24.8334L28.1072 24.7838C27.508 24.6513 26.9088 24.4361 26.3259 24.1491C25.7976 23.8898 25.2747 23.5587 24.7681 23.1779C24.3051 22.8192 23.8639 22.4218 23.4608 21.9969C23.1013 21.6161 22.7526 21.2022 22.4095 20.7221C22.2896 20.5621 22.1807 20.3965 22.0772 20.2365C22.0445 20.1868 22.0118 20.1372 21.9791 20.0875C21.9301 20.0158 21.8865 19.9385 21.843 19.8668C21.7558 19.7233 21.6741 19.5908 21.5979 19.4529C21.3582 19.039 20.8353 18.1947 20.6555 17.8194L19.3972 15.154L19.4408 15.7555C19.4844 16.1418 19.5443 16.7212 19.6968 17.4552C19.8984 18.3768 20.1598 19.2156 20.4921 20.0213C20.5683 20.22 20.6609 20.4131 20.7535 20.6173L20.8189 20.7663C20.8189 20.7663 20.8788 20.8822 20.9006 20.9374C21.0041 21.136 21.1022 21.3347 21.222 21.5334C21.5543 22.1128 21.892 22.6205 22.2515 23.0896C22.6982 23.658 23.1503 24.1491 23.6405 24.5906C24.1907 25.0928 24.7899 25.5343 25.4163 25.9095C26.0754 26.2958 26.7998 26.6159 27.5842 26.8477L27.8784 26.9305L28.1725 26.9967C28.3359 27.0353 28.4993 27.0629 28.6573 27.0905L28.7771 27.1126C28.8806 27.1346 28.9841 27.1457 29.0876 27.1567L29.4036 27.1898C29.4744 27.1954 29.5452 27.2009 29.616 27.2009C29.6487 27.2009 29.9755 27.2174 29.9755 27.2174L30.3949 27.2119C30.4276 27.2119 30.4603 27.2119 30.4984 27.2119L30.7545 27.1954C30.8362 27.1898 30.9179 27.1843 30.9996 27.1788L31.3155 27.1402L31.468 27.1236L31.6369 27.0905L31.9474 27.0353L31.9583 27.0298C32.0182 27.0132 32.0781 27.0022 32.1435 26.9912C32.2905 26.9581 32.4376 26.9249 32.5901 26.8753C32.9551 26.7759 33.3364 26.6435 33.8321 26.4283C34.2733 26.2296 34.66 26.0254 35.0032 25.8102C35.7222 25.3742 36.4195 24.8169 37.0786 24.1491C37.705 23.509 38.2606 22.8137 38.7345 22.0797L38.9142 21.8038C38.9524 21.7431 38.9905 21.6768 39.0286 21.6106L39.0831 21.5223C39.1757 21.3733 39.2574 21.2243 39.3337 21.0753L39.4099 20.9429C39.508 20.7442 39.6115 20.54 39.7041 20.3634V20.3579C39.7368 20.2917 39.764 20.2255 39.7967 20.1592C39.8566 20.0323 39.922 19.8999 39.971 19.7674C40.3087 18.9838 40.5919 18.1615 40.8207 17.3172L40.9732 16.7102C41.0277 16.495 41.0658 16.3239 41.1203 16.1528C41.2347 15.7279 41.3437 15.4023 41.458 15.1153C41.6106 14.7566 41.7522 14.4641 41.9102 14.2213C41.9919 14.0999 42.079 13.9675 42.1934 13.8406L42.2642 13.7523L42.3949 13.6088L42.5039 13.4984L42.5801 13.4211L42.6727 13.3384C42.7272 13.2942 42.7926 13.239 42.8579 13.1894C42.9778 13.0956 43.1031 13.0017 43.2338 12.9245C43.4844 12.7589 43.7404 12.6375 43.9855 12.5547C44.1979 12.483 44.3995 12.4499 44.5901 12.4499C44.6119 12.4499 44.6337 12.4499 44.6555 12.4499C44.8461 12.4609 45.015 12.5051 45.1675 12.5989L45.1784 12.6044C45.2057 12.621 45.2329 12.643 45.271 12.6651L45.2874 12.6761L45.3473 12.7203L45.4944 12.8527C45.5107 12.8693 45.527 12.8914 45.5488 12.9079C45.5597 12.919 45.5652 12.93 45.5815 12.9355C45.587 12.941 45.587 12.941 45.5978 12.9466L45.6578 13.0128C45.7776 13.1563 45.8593 13.3053 45.9083 13.4653C45.9519 13.6198 45.9574 13.7798 45.9247 13.9509C45.8865 14.1441 45.8103 14.3483 45.7122 14.5304C45.5052 14.9056 45.1839 15.2698 44.8135 15.5678C44.6392 15.7113 44.454 15.8327 44.2688 15.9321L44.1217 16.0093L43.9583 16.0866L43.626 16.2466C43.1739 16.4563 42.7054 16.6881 42.2969 17.0137C42.2043 17.091 42.1171 17.1682 42.0354 17.24L42.0082 17.262L41.9428 17.3338C41.8775 17.4 41.823 17.4607 41.7685 17.5269L41.7631 17.5324L41.5561 17.8028C41.3927 18.0732 41.2674 18.3713 41.1911 18.6803C40.9406 19.7343 41.2238 20.5566 41.2238 20.5566L41.458 20.0213C41.4798 19.9771 41.4962 19.933 41.518 19.8888C41.5833 19.7454 41.6596 19.5908 41.7576 19.4198L41.7631 19.4087C41.8938 19.1714 42.0627 18.9286 42.2533 18.7079C42.4603 18.4595 42.7109 18.2664 42.9996 18.1174C43.2992 17.9629 43.6641 17.847 44.1598 17.7035L44.5248 17.5931L44.7154 17.538C44.7644 17.5214 44.8189 17.5048 44.8679 17.4828L44.9333 17.4607C45.2274 17.3503 45.5107 17.2068 45.7939 17.0413C46.0717 16.8702 46.3441 16.666 46.6001 16.4287C46.8779 16.1804 47.123 15.899 47.33 15.5899C47.5751 15.2367 47.7549 14.8504 47.8693 14.4421C47.9347 14.1827 47.9728 13.962 47.9837 13.7412C47.9946 13.6198 47.9891 13.515 47.9837 13.4101Z" fill="#ED1C24"/>
<path d="M18.2696 11.1143C18.2914 11.3461 18.3567 11.5889 18.4657 11.8096C18.5528 11.9862 18.6618 12.1518 18.8034 12.3173C19.054 12.6098 19.3154 12.8029 19.5442 12.9519C19.773 13.1009 20.0127 13.2389 20.2741 13.3658C23.9074 15.0876 30.5202 15.1042 34.4203 14.4144C34.9868 14.3095 35.4988 14.2102 35.9346 14.0832C37.536 13.6142 38.7072 12.8747 38.7072 12.8747C37.231 12.9851 35.7331 13.2996 34.2569 13.4321C30.4875 13.6804 26.2224 13.3714 22.0771 12.4222C19.3427 11.8151 20.2414 10.1596 22.2623 9.80088C23.0631 9.54703 23.9673 9.34284 25.1003 9.16625C26.7072 8.9124 28.4339 8.78547 30.2424 8.78547C30.5419 8.78547 30.847 8.79099 31.152 8.79651C32.2142 8.81858 33.2383 8.8848 34.1915 8.98966C34.709 9.05036 35.2101 9.11658 35.684 9.19936L36.0544 9.26558L36.4466 9.34284C36.7299 9.39251 37.0077 9.4201 37.3291 9.43114C37.4053 9.43666 37.487 9.43666 37.5687 9.43666C38.1516 9.43666 38.6582 9.3594 39.1266 9.20488C39.4752 9.08347 39.7748 8.92343 40.0308 8.72477C40.325 8.49851 40.5755 8.20051 40.739 7.8694C40.8261 7.70936 40.8915 7.53829 40.935 7.36169L40.9459 7.33962C40.9514 7.31755 40.9568 7.30099 40.9623 7.2734L40.9895 7.17407L41.0004 7.10233L41.0113 7.0361L41.0222 6.96436C41.0277 6.9147 41.0331 6.87055 41.0331 6.8264C41.0658 6.47873 41.0277 6.11451 40.9296 5.77788C40.7553 5.1874 40.423 4.64659 39.9219 4.172C39.5351 3.80225 39.0721 3.49322 38.522 3.22833C38.0862 3.01311 37.596 2.84755 37.0404 2.70407C36.1688 2.48885 35.2265 2.384 34.1534 2.37296H34.0826C33.2328 2.37296 32.3504 2.43366 31.4625 2.55507C31.0431 2.61026 30.6182 2.682 30.2042 2.75926L29.605 2.87514C29.4307 2.90826 29.2619 2.94137 29.093 2.96896L29.0276 2.98C27.6659 3.21729 26.5165 3.33318 25.5034 3.33318C25.2909 3.33318 25.0839 3.32766 24.8824 3.31663C24.256 3.28351 23.6949 3.19522 23.221 3.04622C22.7199 2.89722 22.3168 2.67648 22.0499 2.40055C21.8048 2.15774 21.5542 1.70522 21.527 1.38515C21.4779 0.767073 21.7394 0 21.7394 0C21.7394 0 21.4888 0.25937 21.3527 0.496666C21.162 0.822258 21.0585 1.16441 21.0476 1.51207C21.0422 1.75489 21.0749 1.98666 21.1566 2.2074C21.2437 2.4447 21.3799 2.67648 21.5651 2.88066C21.8974 3.25592 22.3713 3.56496 22.9813 3.79122C23.4988 3.98437 24.1035 4.11681 24.817 4.19407C25.28 4.24374 25.7812 4.26581 26.3095 4.26581C27.1756 4.26581 28.1452 4.19959 29.1911 4.06163L29.2455 4.05611C29.4253 4.02851 29.6105 4.00644 29.7848 3.97885L30.3785 3.89055C30.7762 3.83537 31.1847 3.79122 31.5878 3.75259C32.2523 3.69188 32.8515 3.66429 33.4126 3.66429C33.6523 3.66429 33.8865 3.66981 34.1153 3.68085C35.0848 3.725 35.9291 3.85192 36.6863 4.07266C37.1275 4.19959 37.536 4.35962 37.8901 4.54725C38.2932 4.75696 38.6309 4.99977 38.8924 5.26466C39.1811 5.55714 39.3717 5.87721 39.4534 6.19729C39.5351 6.51184 39.497 6.83192 39.3499 7.09129C39.2846 7.21821 39.192 7.31755 39.0721 7.40584C38.9577 7.48862 38.7998 7.56036 38.6255 7.62107C38.3531 7.70384 38.0372 7.74247 37.6777 7.74247C37.5851 7.74247 37.487 7.74247 37.389 7.73144C37.1602 7.7204 36.9369 7.68729 36.7408 7.64866L36.3649 7.56588L35.9727 7.4831C35.4716 7.38377 34.9323 7.29547 34.3876 7.22373C33.3799 7.08577 32.3068 6.99195 31.1902 6.94781C30.6945 6.93125 30.2042 6.92021 29.7194 6.92021C28.0199 6.92021 26.364 7.03058 24.8116 7.25684C24.305 7.32858 23.793 7.4224 23.2428 7.53829C22.6763 7.66521 22.1697 7.79766 21.6904 7.94666C21.113 8.12877 20.6119 8.33295 20.1543 8.56473C19.8656 8.71373 19.6205 8.86273 19.3863 9.02829C19.1575 9.19936 18.8851 9.42562 18.6454 9.75673C18.5147 9.94436 18.4112 10.143 18.3459 10.3527C18.3295 10.4024 18.3132 10.4686 18.2968 10.5293L18.2805 10.6121L18.275 10.6287C18.2696 10.6618 18.2641 10.7004 18.2587 10.739L18.2533 10.7887C18.2533 10.8218 18.2533 10.8328 18.2533 10.8384L18.2478 10.8935V10.9542V11.0094L18.2696 11.1143Z" fill="#ED1C24"/>
<path d="M32.0291 33.1885L29.9429 33.0837L30.0409 31.0584L36.1853 31.3729L36.0872 33.3982L34.001 33.2934L33.4454 44.7277L31.479 44.6284L32.0291 33.1885Z" fill="#414042"/>
<path d="M38.0973 45.0476L36.1309 44.8545L37.3946 31.439L39.3556 31.6321L38.0973 45.0476Z" fill="#414042"/>
<path d="M40.9407 45.5277L39.0178 45.0862L41.8503 31.9301L44.6229 32.5592L44.3887 42.4042L48.1417 33.3649L50.8054 33.9664L47.9729 47.1226L46.0446 46.6866L47.8258 38.4144L44.3778 46.3058L42.8254 45.9526L42.7164 37.2831L40.9407 45.5277Z" fill="#414042"/>
<path d="M24.9043 34.4189C24.8717 34.0602 24.7409 33.7843 24.5176 33.5911C24.2943 33.4035 24.0165 33.3207 23.6678 33.3539L22.4804 33.4753L22.8835 37.7631L24.0709 37.6473C24.3923 37.6141 24.6429 37.4707 24.8444 37.2223C25.0405 36.974 25.1222 36.6926 25.0895 36.378L24.9043 34.4189ZM23.4282 31.301C24.3814 31.2072 25.1713 31.45 25.8031 32.0073C26.386 32.5426 26.7237 33.2821 26.8054 34.1871L26.9906 36.1462C27.0723 37.0347 26.8544 37.8183 26.3097 38.4916C25.765 39.1869 25.0623 39.5732 24.2126 39.656L23.0687 39.7719L23.5426 44.8324L21.5816 45.031L20.3179 31.6155L23.4282 31.301Z" fill="#414042"/>
<path d="M17.6596 45.9528C16.8044 46.1018 16.0254 45.9197 15.3282 45.4119C14.631 44.9042 14.2006 44.2144 14.0536 43.337L12.3323 33.0505L14.2333 32.7194L15.9492 42.9893C16.0036 43.3039 16.1616 43.5522 16.4176 43.7343C16.6736 43.9164 16.9678 43.9882 17.2728 43.9385C17.5778 43.8833 17.8284 43.7178 18.0136 43.4529C18.1934 43.188 18.2478 42.901 18.1988 42.592L16.483 32.322L18.5148 31.9633L20.236 42.2443C20.3831 43.1383 20.2034 43.9385 19.6968 44.6559C19.2065 45.3733 18.5148 45.8038 17.6596 45.9528Z" fill="#414042"/>
<path d="M48.6482 47.4209L52.7117 34.6069L58.0554 36.3949L57.4453 38.3209L53.9755 37.162L52.8588 40.6828L55.3917 41.5326L54.7816 43.4586L52.2487 42.6143L51.1321 46.124L54.6073 47.2829L53.9973 49.2089L48.6482 47.4209Z" fill="#414042"/>
<path d="M11.0031 47.5915C10.1697 47.8509 9.37986 47.7626 8.61181 47.3542C7.86011 46.9404 7.34808 46.2947 7.09751 45.4559L5.01671 38.3922C4.76615 37.5368 4.84785 36.7201 5.26183 35.9309C5.66492 35.1583 6.29134 34.6286 7.10841 34.3747C7.95271 34.1098 8.74799 34.1981 9.49969 34.6286C10.2514 35.0424 10.7634 35.6771 11.014 36.5269L11.4443 38.0004L9.48335 38.6074L9.04213 37.1064C8.94953 36.7863 8.75888 36.56 8.48653 36.411C8.20873 36.2455 7.92003 36.2234 7.61499 36.3172C7.3154 36.411 7.09207 36.5876 6.95044 36.8856C6.79792 37.1671 6.76524 37.4651 6.85784 37.7686L8.94409 44.8488C9.03669 45.1524 9.22734 45.3952 9.49969 45.5331C9.7775 45.6821 10.0662 45.7208 10.3603 45.6269C10.6708 45.5331 10.8887 45.3345 11.0358 45.0585C11.1829 44.7716 11.221 44.4791 11.1284 44.1756L10.6055 42.3931L12.5664 41.7861L13.0948 43.5796C13.3454 44.4349 13.2691 45.2627 12.8497 46.0408C12.4466 46.8134 11.8365 47.3322 11.0031 47.5915Z" fill="#414042"/>
<path d="M29.2783 50.8863L28.7227 50.8753L28.7826 47.0896L30.3622 47.1172L30.3513 47.6856L29.3273 47.669L29.3109 48.7065L30.0572 48.7231L30.0518 49.2915L29.3001 49.2804L29.2783 50.8863Z" fill="#414042"/>
<path d="M31.2392 50.9304L30.6836 50.9194L30.7707 47.1337L32.345 47.1723L32.3395 47.7407L31.31 47.7186L31.2882 48.7561L32.0345 48.7782L32.0236 49.3466L31.2773 49.3245L31.2392 50.9304Z" fill="#414042"/>
<path d="M27.4643 47.9342C27.4589 47.8459 27.4262 47.7686 27.3609 47.7134C27.2955 47.6527 27.2138 47.6306 27.1266 47.6361C27.0395 47.6417 26.9632 47.6748 26.9087 47.7465C26.8488 47.8127 26.8216 47.89 26.827 47.9838L26.9632 50.0477C26.9687 50.1416 27.0068 50.2133 27.0722 50.2685C27.1375 50.3292 27.2192 50.3568 27.3064 50.3513C27.3935 50.3457 27.4698 50.3071 27.5243 50.2354C27.5842 50.1747 27.606 50.0919 27.6005 50.0036L27.4643 47.9342ZM27.0994 47.0677C27.3445 47.0512 27.5569 47.1229 27.7421 47.283C27.9274 47.4485 28.0254 47.6582 28.0417 47.9066L28.1779 49.965C28.1943 50.2133 28.1234 50.434 27.96 50.6217C27.8021 50.8093 27.5951 50.9086 27.3554 50.9252C27.1103 50.9417 26.8978 50.87 26.7181 50.7044C26.5383 50.5444 26.4403 50.3347 26.4185 50.0864L26.2823 48.028C26.266 47.7796 26.3368 47.5589 26.5002 47.3657C26.6582 47.1836 26.8597 47.0788 27.0994 47.0677Z" fill="#414042"/>
<path d="M32.6501 50.9635L32.7591 47.1778L34.3333 47.2274L34.317 47.7959L33.2929 47.7627L33.2657 48.8057L34.0119 48.8278L33.9956 49.3962L33.2493 49.3741L33.2166 50.4061L34.2462 50.4392L34.2298 51.0076L32.6501 50.9635Z" fill="#414042"/>
<path d="M34.6111 51.0576L34.8725 47.2829L36.4522 47.3988L36.4141 47.9672L35.39 47.8899L35.3138 48.9274L36.06 48.9826L36.0219 49.551L35.2756 49.4958L35.2048 50.5278L36.2234 50.605L36.1853 51.1734L34.6111 51.0576Z" fill="#414042"/>
<path d="M25.1549 51.0904C24.9098 51.1069 24.6974 51.0352 24.5122 50.8751C24.3324 50.7151 24.2289 50.5054 24.2126 50.2571L24.0601 48.1931C24.0383 47.9448 24.1145 47.7241 24.2725 47.5364C24.425 47.3488 24.632 47.244 24.8717 47.2274C25.1168 47.2053 25.3292 47.2826 25.5144 47.4426C25.6942 47.6026 25.7977 47.8124 25.814 48.0607L25.8467 48.4911L25.2748 48.5353L25.2421 48.0938C25.2366 48 25.1985 47.9282 25.1331 47.8675C25.0678 47.8068 24.9915 47.7792 24.8989 47.7903C24.8118 47.7958 24.7409 47.8344 24.6865 47.9062C24.632 47.9779 24.6048 48.0552 24.6102 48.1435L24.7627 50.2129C24.7682 50.3012 24.8063 50.3785 24.8717 50.4337C24.937 50.4944 25.0187 50.5219 25.1004 50.5164C25.193 50.5109 25.2639 50.4723 25.3238 50.4005C25.3783 50.3343 25.4055 50.2515 25.4 50.1632L25.3619 49.6445L25.9339 49.6004L25.972 50.1246C25.9883 50.3729 25.923 50.5992 25.7596 50.7813C25.5961 50.9634 25.4 51.0738 25.1549 51.0904Z" fill="#414042"/>
<path d="M37.9065 51.085C37.9719 51.096 38.0536 51.0629 38.1462 50.9911C38.0754 50.8587 37.9991 50.6931 37.9337 50.5055C37.9065 50.5386 37.8793 50.5717 37.852 50.6048C37.803 50.6821 37.7703 50.7538 37.7594 50.8256C37.7485 50.8863 37.754 50.947 37.7758 50.9911C37.803 51.0463 37.8466 51.0794 37.9065 51.085ZM38.0372 49.5232C38.0263 49.595 38.0427 49.7164 38.0808 49.8985C38.1026 49.8819 38.119 49.8654 38.1353 49.8488L38.1898 49.7936L38.2769 49.7108C38.3423 49.6501 38.3804 49.5839 38.3859 49.5232C38.3913 49.4791 38.3913 49.446 38.3859 49.4184C38.3641 49.3356 38.3205 49.2914 38.2551 49.2804C38.1898 49.2694 38.1407 49.2914 38.0972 49.3466C38.0645 49.4018 38.0427 49.457 38.0372 49.5232ZM38.8707 50.4614C38.7726 50.6931 38.6691 50.8863 38.5547 51.0353C38.6255 51.1291 38.6963 51.1843 38.7617 51.1953L38.7127 51.5154C38.582 51.4933 38.4512 51.405 38.3314 51.2615C38.1789 51.383 38.0155 51.4271 37.8629 51.405C37.6832 51.3719 37.5579 51.2781 37.4871 51.1125C37.4381 51.0132 37.4326 50.8973 37.449 50.7814C37.4653 50.6655 37.5143 50.5441 37.5906 50.4283C37.6069 50.4062 37.6451 50.362 37.7104 50.2793C37.7485 50.2351 37.7867 50.1965 37.8248 50.1578L37.7812 49.9812C37.7594 49.904 37.7431 49.8488 37.7377 49.8102C37.7213 49.744 37.7104 49.6888 37.7104 49.6391C37.7104 49.5839 37.7104 49.5287 37.7213 49.468C37.7377 49.3687 37.7758 49.2804 37.8357 49.2031C37.8956 49.1204 37.9719 49.0652 38.0699 49.0376C38.1407 49.0155 38.2224 49.0045 38.3042 49.021C38.3968 49.0376 38.4785 49.0707 38.5493 49.1314C38.6146 49.1921 38.6691 49.2638 38.6963 49.3521C38.7181 49.4239 38.7236 49.4956 38.7072 49.5729C38.6855 49.7108 38.6201 49.8323 38.5057 49.9371L38.4131 50.0254C38.3314 50.1027 38.2606 50.1744 38.1952 50.2406C38.2442 50.4117 38.3042 50.5717 38.3804 50.7207C38.4567 50.6048 38.522 50.4724 38.5765 50.3344L38.8707 50.4614Z" fill="#414042"/>
<path d="M21.2928 49.8877L21.5543 51.466L21.0041 51.5653L20.394 47.8293L20.9388 47.7355L21.2002 49.3248L21.8648 49.2089L21.5979 47.6196L22.1426 47.5257L22.7581 51.2563L22.2134 51.3501L21.9519 49.7718L21.2928 49.8877Z" fill="#414042"/>
<path d="M40.4939 48.5686L39.9165 48.4638L40.0146 47.9009L41.7141 48.2099L41.616 48.7728L41.0386 48.668L40.4939 51.8301L39.9492 51.7307L40.4939 48.5686Z" fill="#414042"/>
<path d="M41.5452 52.0285L42.5039 48.3697L44.0236 48.7946L43.882 49.3465L42.8906 49.0705L42.6291 50.0749L43.3482 50.2736L43.2065 50.8254L42.4875 50.6268L42.2206 51.6256L43.212 51.9015L43.0649 52.4479L41.5452 52.0285Z" fill="#414042"/>
<path d="M18.8035 48.7506L18.2316 48.872L18.1172 48.3147L19.8112 47.9504L19.9256 48.5078L19.3482 48.6347L19.991 51.7803L19.4463 51.8962L18.8035 48.7506Z" fill="#414042"/>
<path d="M18.4495 52.1063L17.9103 52.2332L17.0986 48.5413L17.6379 48.4144L18.4495 52.1063Z" fill="#414042"/>
<path d="M45.0478 49.9208L44.5194 51.3281L44.9225 51.4274L45.0478 49.9208ZM44.3124 51.8468L43.9911 52.6635L43.4246 52.5311L44.868 48.9937L45.6143 49.1703L45.3746 53.0002L44.8136 52.8677L44.8735 51.9903L44.3124 51.8468Z" fill="#414042"/>
<path d="M16.0473 48.7783L16.6192 48.6403L16.8916 52.4591L16.3741 52.5805L15.6115 50.6435L15.7858 52.724L15.2629 52.8509L13.8303 49.3081L14.3968 49.1701L15.1267 51.0795L14.9361 49.0432L15.5026 48.9052L16.2325 50.8091L16.0473 48.7783Z" fill="#414042"/>
</svg>
