<svg viewBox="0 0 71 64" fill="none" xmlns="http://www.w3.org/2000/svg">
<path d="M70.2606 40.7188C70.2606 40.7188 69.9927 40.6273 69.4952 40.4508C68.9913 40.2743 68.2577 40.0063 67.3201 39.6925C67.084 39.614 66.8417 39.529 66.5801 39.444C66.325 39.3591 66.0507 39.2675 65.7637 39.176C65.196 38.9995 64.5836 38.8034 63.9266 38.5942C63.2696 38.4046 62.568 38.2019 61.8281 37.9796C61.0818 37.7835 60.3036 37.5612 59.4871 37.352C59.0789 37.254 58.6579 37.1494 58.2369 37.0448C58.02 36.9925 57.8095 36.9337 57.5926 36.8879C57.3758 36.8421 57.1525 36.7898 56.9293 36.7375C56.4892 36.6395 56.0363 36.5349 55.577 36.4368C55.1241 36.3322 54.6585 36.2472 54.1801 36.1492C53.7081 36.0576 53.2297 35.953 52.7385 35.868C52.2537 35.7831 51.7626 35.6981 51.265 35.6065C51.0163 35.5608 50.7611 35.5216 50.5124 35.4889C50.2572 35.4496 50.0021 35.4104 49.7533 35.3712C49.243 35.2927 48.7327 35.2078 48.2097 35.1489C46.1302 34.8547 43.9743 34.6586 41.78 34.4886C41.2315 34.456 40.6829 34.4233 40.128 34.3906L39.7134 34.3644L39.2987 34.3514C39.0245 34.3448 38.7438 34.3317 38.4695 34.3187C37.9146 34.2991 37.3596 34.2729 36.7919 34.2729C36.2434 34.2664 35.6821 34.2664 35.1335 34.2533C34.0045 34.2729 32.8755 34.2598 31.772 34.3187C31.4913 34.3317 31.217 34.3383 30.9427 34.3514L30.5281 34.3644L30.1135 34.3906C29.5586 34.4233 29.01 34.456 28.4614 34.4886C26.2736 34.6586 24.1112 34.8547 22.0318 35.1489C21.5151 35.2078 20.9984 35.2927 20.4882 35.3712C20.233 35.4104 19.9779 35.4496 19.7291 35.4889C19.474 35.5281 19.2252 35.5608 18.9764 35.6065C18.4789 35.6915 17.9877 35.7831 17.4966 35.868C17.0118 35.9465 16.5334 36.0576 16.0614 36.1492C15.5894 36.2472 15.1174 36.3322 14.6645 36.4368C14.2052 36.5414 13.7587 36.6395 13.3122 36.7375C13.0889 36.7833 12.8657 36.8356 12.6552 36.8879C12.4383 36.9402 12.2215 36.9925 12.011 37.0448C11.5836 37.1494 11.169 37.254 10.7607 37.3586C9.94428 37.5678 9.16609 37.7901 8.42617 37.9862C7.68625 38.2019 6.9846 38.4046 6.3276 38.6007C5.6706 38.8034 5.06463 39.006 4.49693 39.176C4.2099 39.2675 3.94199 39.3591 3.68047 39.444C3.41895 39.5356 3.17656 39.614 2.94055 39.6925C2.00289 40.0063 1.26935 40.2743 0.771814 40.4508C0.27428 40.6273 0 40.7188 0 40.7188C0 40.7188 0.255145 40.5946 0.733542 40.3593C0.97593 40.2416 1.26935 40.1043 1.62017 39.9343C1.96462 39.7578 2.37285 39.5813 2.82573 39.3787C3.05536 39.2741 3.29137 39.1695 3.54014 39.0583C3.79528 38.9472 4.05681 38.8295 4.33109 38.7184C4.88603 38.4896 5.48562 38.2477 6.12986 37.9862C6.78048 37.7378 7.46937 37.4828 8.19654 37.2082C8.5665 37.084 8.93646 36.9533 9.32556 36.816C9.70827 36.6852 10.1038 36.5414 10.512 36.4172C12.1385 35.9073 13.9118 35.3712 15.8126 34.9201C16.7567 34.6717 17.739 34.469 18.7404 34.2533C19.2443 34.1356 19.7546 34.0572 20.2649 33.9591C20.7816 33.861 21.2982 33.763 21.8277 33.6845C22.3571 33.5995 22.8865 33.5211 23.416 33.4361C23.9518 33.3577 24.4939 33.2923 25.0361 33.2204C25.304 33.1877 25.5847 33.1485 25.8526 33.1158C26.1269 33.0831 26.4011 33.0569 26.6754 33.0308C27.2304 32.9785 27.7789 32.9196 28.3403 32.8739C30.5664 32.6908 32.8627 32.6058 35.108 32.5928C35.6757 32.5993 36.2498 32.6058 36.8175 32.6124C37.3852 32.6124 37.9528 32.6451 38.5142 32.6712C38.7948 32.6778 39.0755 32.6908 39.3625 32.7039L39.7835 32.7235L40.2045 32.7562C40.7658 32.7954 41.3271 32.8347 41.8885 32.8739C42.1691 32.8935 42.4434 32.9262 42.7241 32.9523C42.9983 32.9785 43.279 33.0112 43.5533 33.0308C43.8276 33.0569 44.1018 33.0896 44.3761 33.1158C44.6504 33.1485 44.9247 33.1811 45.1926 33.2204C45.7348 33.2923 46.277 33.3577 46.8128 33.4296C47.3486 33.5146 47.878 33.5995 48.401 33.6845C48.9305 33.763 49.4471 33.861 49.9574 33.9591C50.4741 34.0572 50.9908 34.1422 51.4883 34.2533C52.4897 34.469 53.4721 34.6717 54.4225 34.9201C56.3233 35.3777 58.0902 35.9073 59.7167 36.4237C60.125 36.5545 60.5141 36.6918 60.9032 36.8225C61.2859 36.9598 61.6622 37.084 62.0322 37.2082C62.7593 37.4828 63.4482 37.7443 64.0988 37.9862C64.7431 38.2477 65.3427 38.4896 65.8912 38.7184C66.1719 38.8295 66.4334 38.9537 66.6886 39.0583C66.9373 39.1695 67.1797 39.2806 67.403 39.3787C67.8622 39.5813 68.2641 39.7578 68.6085 39.9343C68.9594 40.1043 69.2528 40.2481 69.4888 40.3593C70.0118 40.5946 70.2606 40.7188 70.2606 40.7188Z" fill="#ED1C24"/>
<path d="M56.1894 16.5236V16.4648C56.183 16.4059 56.1766 16.3536 56.1703 16.3013L56.1639 16.236C56.1511 16.1641 56.1447 16.0856 56.1256 16.0072L56.0746 15.7914C56.0618 15.7391 56.0427 15.6868 56.0236 15.628L56.0108 15.5822C55.9789 15.458 55.9279 15.3469 55.8832 15.2423L55.8386 15.1507C55.7748 15.0135 55.7046 14.8892 55.6281 14.765C55.6281 14.765 55.5834 14.6997 55.5707 14.6735C55.5133 14.582 55.4495 14.4905 55.3857 14.412L55.2645 14.2551C55.2326 14.2159 55.1943 14.1701 55.1497 14.1309L55.1114 14.0851L54.9583 13.9282L54.7478 13.7321C54.7287 13.706 54.7032 13.6864 54.6777 13.6667L54.5118 13.536C54.4034 13.4575 54.2758 13.366 54.1419 13.2876C53.874 13.1241 53.5869 13.0065 53.2999 12.9215C53.0192 12.843 52.713 12.7973 52.4005 12.7842C52.3686 12.7842 52.3303 12.7842 52.2921 12.7842C51.769 12.7842 51.2396 12.8888 50.7102 13.098C50.2381 13.2876 49.7661 13.5491 49.3196 13.8759C49.1091 14.0263 48.905 14.1963 48.7136 14.3728C48.6116 14.4643 48.5159 14.5624 48.4266 14.6474L48.2863 14.7912L48.1459 14.9415L47.9865 15.1181L47.7632 15.3926L47.642 15.5561C47.5017 15.7522 47.3614 15.9614 47.1955 16.2425C46.9468 16.6805 46.7299 17.1577 46.5385 17.6938C46.3727 18.158 46.226 18.6352 46.0984 19.1582C46.041 19.3739 45.9772 19.6158 45.9134 19.8773L45.8943 19.9558L45.7476 20.5376C45.5116 21.4006 45.1926 22.257 44.8099 23.0676C44.7525 23.1984 44.6951 23.316 44.6249 23.4468C44.5867 23.5187 44.5484 23.5971 44.5101 23.6691L44.4336 23.8194C44.3507 23.9698 44.2741 24.1136 44.1912 24.2509C44.1657 24.3032 44.1274 24.349 44.1019 24.4013C44.0126 24.5516 43.9297 24.6889 43.834 24.8262L43.7638 24.9308C43.7256 24.9896 43.6873 25.0485 43.649 25.1008L43.4513 25.3753C42.9665 26.0552 42.386 26.7221 41.729 27.3431C41.4675 27.585 41.1167 27.8923 40.7404 28.1668C40.6192 28.2584 40.4916 28.3499 40.3576 28.448L40.2301 28.5395C40.179 28.5722 40.1216 28.6114 40.0706 28.6441C40.0387 28.6637 40.0004 28.6898 39.9685 28.7095L39.9175 28.7421C39.8473 28.7879 39.7836 28.8271 39.707 28.8729L39.4327 29.0298C39.3753 29.0625 39.3179 29.0886 39.2669 29.1148C39.2286 29.1344 39.1967 29.154 39.1521 29.1736C39.0309 29.239 38.9161 29.2913 38.7821 29.3501C38.7183 29.3763 38.6609 29.4024 38.6035 29.4286L38.3229 29.5462C38.2144 29.592 38.1251 29.6182 38.0486 29.6508L37.7615 29.7554L37.3342 29.8862L37.1938 29.9189L36.9068 29.9908L36.4794 30.0758L36.3327 30.1019L36.0393 30.1477L35.6119 30.1935C35.5928 30.1935 35.5673 30.1935 35.5354 30.1935C35.5163 30.1935 35.4907 30.2 35.4716 30.2L35.1016 30.2196H34.7062C34.6679 30.2196 34.6296 30.2196 34.6041 30.2196L34.2852 30.2C34.1959 30.2 34.113 30.1935 34.03 30.1804C33.9854 30.1738 33.928 30.1673 33.8833 30.1608C33.743 30.1477 33.6091 30.1281 33.4687 30.1019L33.1881 30.0562L32.9138 29.9973C32.2121 29.8404 31.5105 29.5855 30.828 29.2455C30.2092 28.9383 29.5969 28.546 29.0037 28.0949C28.4615 27.67 27.9448 27.1993 27.4728 26.6959C27.0518 26.2448 26.6436 25.7545 26.2417 25.1858C26.1014 24.9962 25.9738 24.8 25.8526 24.6105C25.8144 24.5516 25.7761 24.4928 25.7378 24.4339C25.6804 24.349 25.6294 24.2574 25.5784 24.1724C25.4763 24.0025 25.3806 23.8456 25.2913 23.6821C25.0107 23.1918 24.3983 22.1916 24.1878 21.747L22.7144 18.5895L22.7654 19.302C22.8164 19.7597 22.8866 20.4461 23.0652 21.3156C23.3012 22.4073 23.6074 23.401 23.9965 24.3555C24.0858 24.5908 24.1942 24.8197 24.3026 25.0615L24.3792 25.2381C24.3792 25.2381 24.4493 25.3753 24.4749 25.4407C24.596 25.6761 24.7109 25.9114 24.8512 26.1468C25.2403 26.8332 25.6358 27.4346 26.0568 27.9903C26.5798 28.6637 27.1092 29.2455 27.6833 29.7685C28.3275 30.3634 29.0292 30.8864 29.7627 31.331C30.5346 31.7886 31.3829 32.1678 32.3014 32.4423L32.6459 32.5404L32.9903 32.6189C33.1817 32.6646 33.373 32.6973 33.558 32.73L33.6984 32.7561C33.8195 32.7823 33.9407 32.7954 34.0619 32.8084L34.4319 32.8477C34.5148 32.8542 34.5977 32.8607 34.6807 32.8607C34.7189 32.8607 35.1016 32.8804 35.1016 32.8804L35.5928 32.8738C35.6311 32.8738 35.6693 32.8738 35.714 32.8738L36.0138 32.8542C36.1095 32.8477 36.2052 32.8411 36.3008 32.8346L36.6708 32.7888L36.8494 32.7692L37.0471 32.73L37.4107 32.6646L37.4235 32.6581C37.4936 32.6385 37.5638 32.6254 37.6403 32.6123C37.8126 32.5731 37.9848 32.5339 38.1634 32.475C38.5908 32.3574 39.0373 32.2005 39.6177 31.9455C40.1344 31.7101 40.5873 31.4683 40.9891 31.2133C41.8311 30.6968 42.6476 30.0366 43.4194 29.2455C44.1529 28.4872 44.8035 27.6635 45.3585 26.794L45.569 26.4671C45.6136 26.3952 45.6583 26.3167 45.7029 26.2383L45.7667 26.1337C45.8752 25.9572 45.9708 25.7807 46.0601 25.6042L46.1494 25.4473C46.2642 25.2119 46.3854 24.97 46.4939 24.7608V24.7543C46.5322 24.6758 46.564 24.5974 46.6023 24.5189C46.6725 24.3686 46.749 24.2117 46.8064 24.0548C47.2019 23.1265 47.5336 22.1524 47.8015 21.1521L47.9801 20.433C48.0439 20.1781 48.0885 19.9754 48.1523 19.7727C48.2863 19.2693 48.4139 18.8836 48.5478 18.5437C48.7264 18.1188 48.8922 17.7723 49.0772 17.4846C49.1729 17.3408 49.275 17.1839 49.4089 17.0335L49.4918 16.9289L49.6449 16.759L49.7725 16.6282L49.8618 16.5367L49.9702 16.4386C50.034 16.3863 50.1106 16.321 50.1871 16.2621C50.3274 16.151 50.4741 16.0398 50.6272 15.9483C50.9207 15.7522 51.2204 15.6084 51.5075 15.5103C51.7562 15.4253 51.9923 15.3861 52.2155 15.3861C52.241 15.3861 52.2665 15.3861 52.2921 15.3861C52.5153 15.3992 52.713 15.4515 52.8916 15.5626L52.9044 15.5691C52.9363 15.5888 52.9682 15.6149 53.0128 15.6411L53.032 15.6541L53.1021 15.7064L53.2744 15.8633C53.2935 15.8829 53.3126 15.9091 53.3382 15.9287C53.3509 15.9418 53.3573 15.9549 53.3764 15.9614C53.3828 15.9679 53.3828 15.9679 53.3956 15.9745L53.4657 16.0529C53.6061 16.2229 53.7017 16.3994 53.7591 16.589C53.8102 16.772 53.8165 16.9616 53.7783 17.1643C53.7336 17.3931 53.6443 17.635 53.5295 17.8507C53.2871 18.2953 52.9108 18.7267 52.477 19.0798C52.2729 19.2497 52.056 19.3936 51.8392 19.5112L51.6669 19.6028L51.4756 19.6943L51.0865 19.8839C50.5571 20.1323 50.0085 20.4069 49.5301 20.7926C49.4217 20.8841 49.3196 20.9756 49.2239 21.0606L49.192 21.0868L49.1155 21.1717C49.039 21.2502 48.9752 21.3221 48.9114 21.4006L48.905 21.4071L48.6626 21.7274C48.4713 22.0478 48.3245 22.4008 48.2352 22.7669C47.9418 24.0155 48.2735 24.9896 48.2735 24.9896L48.5478 24.3555C48.5733 24.3032 48.5925 24.2509 48.618 24.1986C48.6945 24.0286 48.7838 23.8456 48.8986 23.6429L48.905 23.6298C49.0581 23.3487 49.2558 23.0611 49.4791 22.7996C49.7215 22.5054 50.0149 22.2766 50.353 22.1001C50.7038 21.917 51.1311 21.7797 51.7116 21.6098L52.139 21.479L52.3622 21.4136C52.4196 21.394 52.4834 21.3744 52.5408 21.3483L52.6174 21.3221C52.9618 21.1914 53.2935 21.0214 53.6252 20.8253C53.9505 20.6226 54.2694 20.3807 54.5692 20.0996C54.8945 19.8054 55.1816 19.472 55.424 19.1059C55.711 18.6875 55.9215 18.2299 56.0554 17.7461C56.132 17.4389 56.1766 17.1774 56.1894 16.9159C56.2022 16.772 56.1958 16.6478 56.1894 16.5236Z" fill="#ED1C24"/>
<path d="M21.3939 13.8042C21.4194 14.0787 21.496 14.3664 21.6236 14.6279C21.7256 14.8371 21.8532 15.0332 22.019 15.2293C22.3124 15.5758 22.6186 15.8046 22.8865 15.9811C23.1544 16.1576 23.4351 16.3211 23.7413 16.4714C27.9958 18.5111 35.7395 18.5307 40.3066 17.7136C40.9699 17.5893 41.5695 17.4717 42.0798 17.3213C43.9551 16.7656 45.3265 15.8896 45.3265 15.8896C43.5979 16.0204 41.8438 16.393 40.1152 16.5499C35.7012 16.8441 30.7067 16.478 25.8526 15.3535C22.6505 14.6344 23.703 12.6732 26.0695 12.2482C27.0071 11.9475 28.066 11.7056 29.3927 11.4964C31.2744 11.1957 33.2964 11.0453 35.4142 11.0453C35.765 11.0453 36.1222 11.0519 36.4794 11.0584C37.7232 11.0846 38.9224 11.163 40.0387 11.2872C40.6446 11.3591 41.2315 11.4376 41.7864 11.5357L42.2201 11.6141L42.6794 11.7056C43.0111 11.7645 43.3364 11.7971 43.7127 11.8102C43.802 11.8168 43.8977 11.8168 43.9934 11.8168C44.6759 11.8168 45.2691 11.7252 45.8177 11.5422C46.2259 11.3984 46.5768 11.2088 46.8765 10.9734C47.221 10.7054 47.5144 10.3524 47.7058 9.96012C47.8078 9.77054 47.8844 9.56787 47.9354 9.35867L47.9482 9.33252C47.9545 9.30637 47.9609 9.28676 47.9673 9.25407L47.9992 9.1364L48.0119 9.05141L48.0247 8.97296L48.0375 8.88798C48.0438 8.82914 48.0502 8.77684 48.0502 8.72454C48.0885 8.31268 48.0438 7.88121 47.929 7.48242C47.7249 6.78291 47.3358 6.14224 46.749 5.58002C46.2961 5.14201 45.7539 4.77591 45.1097 4.46211C44.5994 4.20715 44.0253 4.01103 43.3747 3.84105C42.3541 3.58609 41.2506 3.46188 39.994 3.44881H39.9111C38.916 3.44881 37.8827 3.52072 36.843 3.66454C36.3518 3.72992 35.8543 3.8149 35.3695 3.90643L34.6678 4.04372C34.4637 4.08294 34.266 4.12216 34.0683 4.15485L33.9917 4.16793C32.3971 4.44904 31.0512 4.58632 29.8647 4.58632C29.616 4.58632 29.3736 4.57979 29.1376 4.56671C28.404 4.52749 27.747 4.42289 27.1921 4.24638C26.6053 4.06987 26.1332 3.80837 25.8207 3.48149C25.5337 3.19384 25.2402 2.65777 25.2083 2.2786C25.1509 1.5464 25.4571 0.637695 25.4571 0.637695C25.4571 0.637695 25.1637 0.944956 25.0042 1.22607C24.781 1.61178 24.6598 2.0171 24.647 2.42896C24.6406 2.71661 24.6789 2.99118 24.7746 3.25268C24.8767 3.53379 25.0361 3.80837 25.253 4.05025C25.6421 4.4948 26.197 4.8609 26.9114 5.12893C27.5174 5.35775 28.2254 5.51464 29.061 5.60617C29.6032 5.66501 30.1901 5.69116 30.8088 5.69116C31.823 5.69116 32.9584 5.61271 34.1831 5.44927L34.2469 5.44273C34.4574 5.41005 34.6742 5.3839 34.8783 5.35121L35.5736 5.24661C36.0393 5.18123 36.5177 5.12893 36.9897 5.08317C37.7679 5.01126 38.4695 4.97857 39.1265 4.97857C39.4072 4.97857 39.6815 4.98511 39.9494 4.99819C41.0847 5.05049 42.0734 5.20085 42.9601 5.46234C43.4767 5.61271 43.9551 5.80229 44.3697 6.02457C44.8418 6.27299 45.2372 6.56064 45.5434 6.87444C45.8815 7.22092 46.1047 7.6001 46.2004 7.97927C46.2961 8.3519 46.2514 8.73108 46.0792 9.03834C46.0027 9.1887 45.8942 9.30638 45.7539 9.41098C45.62 9.50904 45.435 9.59402 45.2309 9.66594C44.9119 9.764 44.542 9.80976 44.121 9.80976C44.0125 9.80976 43.8977 9.80976 43.7829 9.79669C43.515 9.78361 43.2535 9.74439 43.0239 9.69862L42.5837 9.60056L42.1245 9.5025C41.5376 9.38482 40.9061 9.28022 40.2683 9.19524C39.0882 9.0318 37.8317 8.92066 36.524 8.86836C35.9436 8.84875 35.3695 8.83568 34.8018 8.83568C32.8117 8.83568 30.8726 8.96643 29.0547 9.23446C28.4614 9.31945 27.8619 9.43059 27.2176 9.56787C26.5542 9.71824 25.961 9.87513 25.3997 10.0516C24.7236 10.2674 24.1367 10.5093 23.6009 10.7838C23.2629 10.9604 22.9758 11.1369 22.7015 11.333C22.4336 11.5357 22.1147 11.8037 21.834 12.1959C21.681 12.4182 21.5598 12.6536 21.4832 12.902C21.4641 12.9608 21.445 13.0393 21.4258 13.1112L21.4067 13.2092L21.4003 13.2289C21.3939 13.2681 21.3875 13.3138 21.3812 13.3596L21.3748 13.4184C21.3748 13.4577 21.3748 13.4707 21.3748 13.4773L21.3684 13.5427V13.6146V13.6799L21.3939 13.8042Z" fill="#ED1C24"/>
<path d="M37.5062 39.9541L35.0632 39.8299L35.178 37.4307L42.3731 37.8033L42.2583 40.2026L39.8153 40.0783L39.1647 53.624L36.862 53.5063L37.5062 39.9541Z" fill="white"/>
<path d="M44.6123 54.0032L42.3096 53.7744L43.7894 37.8818L46.0857 38.1106L44.6123 54.0032Z" fill="white"/>
<path d="M47.9421 54.5722L45.6904 54.0492L49.0073 38.4639L52.254 39.2091L51.9798 50.872L56.3746 40.1636L59.4938 40.8762L56.1769 56.4615L53.9189 55.9451L56.0047 46.1454L51.967 55.494L50.1491 55.0756L50.0215 44.8052L47.9421 54.5722Z" fill="white"/>
<path d="M29.163 41.4118C29.1248 40.9869 28.9717 40.66 28.7102 40.4312C28.4486 40.2089 28.1233 40.1108 27.7151 40.1501L26.3246 40.2939L26.7966 45.3735L28.1871 45.2362C28.5635 45.197 28.8569 45.027 29.0929 44.7328C29.3225 44.4386 29.4182 44.1052 29.3799 43.7326L29.163 41.4118ZM27.4344 37.7181C28.5507 37.607 29.4756 37.8946 30.2155 38.5549C30.898 39.1891 31.2935 40.0651 31.3892 41.1372L31.6061 43.458C31.7017 44.5106 31.4466 45.4389 30.8087 46.2364C30.1709 47.0602 29.348 47.5178 28.353 47.6158L27.0134 47.7531L27.5684 53.748L25.2721 53.9833L23.7922 38.0908L27.4344 37.7181Z" fill="white"/>
<path d="M20.6797 55.0754C19.6783 55.2519 18.7661 55.0362 17.9497 54.4347C17.1332 53.8333 16.6293 53.0161 16.4571 51.9766L14.4414 39.7908L16.6675 39.3986L18.6768 51.5648C18.7406 51.9374 18.9256 52.2316 19.2254 52.4473C19.5252 52.6631 19.8696 52.7481 20.2268 52.6892C20.584 52.6239 20.8774 52.4277 21.0943 52.1139C21.3048 51.8001 21.3686 51.4602 21.3112 51.0941L19.3019 38.9279L21.6811 38.5029L23.6968 50.6822C23.869 51.7413 23.6585 52.6892 23.0653 53.5391C22.4912 54.389 21.6811 54.8989 20.6797 55.0754Z" fill="white"/>
<path d="M56.9675 56.8143L61.726 41.6343L67.9834 43.7524L67.269 46.034L63.2058 44.6611L61.8982 48.832L64.8643 49.8388L64.1499 52.1204L61.1838 51.1201L59.8762 55.278L63.9458 56.6508L63.2313 58.9324L56.9675 56.8143Z" fill="white"/>
<path d="M12.885 57.0166C11.9091 57.3238 10.9842 57.2192 10.0848 56.7355C9.20458 56.2451 8.60499 55.4803 8.31157 54.4866L5.87493 46.1186C5.58152 45.1053 5.6772 44.1378 6.16197 43.2029C6.63399 42.2877 7.36753 41.6601 8.32433 41.3593C9.31301 41.0455 10.2443 41.1501 11.1245 41.6601C12.0048 42.1504 12.6044 42.9022 12.8978 43.9089L13.4017 45.6544L11.1054 46.3736L10.5887 44.5954C10.4803 44.2162 10.2571 43.9482 9.93812 43.7717C9.61281 43.5755 9.27474 43.5494 8.91754 43.6605C8.56672 43.7717 8.30519 43.9809 8.13935 44.3339C7.96075 44.6673 7.92247 45.0203 8.03091 45.3799L10.4739 53.7674C10.5824 54.127 10.8056 54.4147 11.1245 54.5781C11.4499 54.7546 11.7879 54.8004 12.1324 54.6892C12.496 54.5781 12.7511 54.3427 12.9233 54.0159C13.0955 53.6759 13.1402 53.3294 13.0318 52.9699L12.4194 50.8583L14.7157 50.1392L15.3344 52.2638C15.6279 53.2771 15.5386 54.2578 15.0474 55.1795C14.5754 56.0948 13.861 56.7093 12.885 57.0166Z" fill="white"/>
<path d="M34.2851 60.9196L33.6345 60.9066L33.7047 56.4219L35.5545 56.4546L35.5417 57.1279L34.3426 57.1083L34.3234 58.3373L35.1973 58.357L35.1909 59.0303L34.3107 59.0172L34.2851 60.9196Z" fill="white"/>
<path d="M36.5815 60.9719L35.9309 60.9588L36.033 56.4741L37.8764 56.5199L37.87 57.1932L36.6645 57.1671L36.6389 58.3961L37.5128 58.4223L37.5001 59.0956L36.6262 59.0695L36.5815 60.9719Z" fill="white"/>
<path d="M32.161 57.4227C32.1546 57.3181 32.1164 57.2266 32.0398 57.1612C31.9633 57.0893 31.8676 57.0631 31.7655 57.0697C31.6635 57.0762 31.5742 57.1154 31.5104 57.2004C31.4402 57.2789 31.4083 57.3704 31.4147 57.4815L31.5742 59.9265C31.5806 60.0377 31.6252 60.1227 31.7018 60.188C31.7783 60.26 31.874 60.2926 31.976 60.2861C32.0781 60.2796 32.1674 60.2338 32.2312 60.1488C32.3013 60.0769 32.3269 59.9788 32.3205 59.8742L32.161 57.4227ZM31.7337 56.3963C32.0207 56.3767 32.2695 56.4617 32.4863 56.6513C32.7032 56.8474 32.818 57.0958 32.8372 57.39L32.9966 59.8285C33.0158 60.1227 32.9328 60.3842 32.7415 60.6064C32.5565 60.8287 32.3141 60.9464 32.0334 60.966C31.7464 60.9856 31.4976 60.9006 31.2871 60.7045C31.0767 60.5149 30.9618 60.2665 30.9363 59.9723L30.7769 57.5338C30.7577 57.2396 30.8406 56.9781 31.032 56.7493C31.217 56.5336 31.453 56.4094 31.7337 56.3963Z" fill="white"/>
<path d="M38.2334 61.0116L38.361 56.5269L40.2044 56.5857L40.1853 57.259L38.9861 57.2198L38.9542 58.4554L39.8281 58.4816L39.8089 59.1549L38.935 59.1288L38.8968 60.3513L40.1023 60.3905L40.0832 61.0639L38.2334 61.0116Z" fill="white"/>
<path d="M40.5298 61.1225L40.836 56.6509L42.6858 56.7882L42.6411 57.4615L41.4419 57.37L41.3526 58.599L42.2265 58.6644L42.1818 59.3378L41.308 59.2724L41.2251 60.4949L42.4179 60.5864L42.3732 61.2598L40.5298 61.1225Z" fill="white"/>
<path d="M29.4565 61.1617C29.1695 61.1813 28.9207 61.0963 28.7039 60.9067C28.4934 60.7171 28.3722 60.4687 28.353 60.1745L28.1744 57.7295C28.1489 57.4353 28.2382 57.1738 28.4232 56.9515C28.6018 56.7293 28.8442 56.6051 29.1249 56.5854C29.4119 56.5593 29.6607 56.6508 29.8775 56.8404C30.088 57.03 30.2092 57.2784 30.2284 57.5726L30.2666 58.0825L29.5969 58.1348L29.5586 57.6118C29.5522 57.5007 29.5076 57.4157 29.431 57.3438C29.3545 57.2719 29.2652 57.2392 29.1568 57.2523C29.0547 57.2588 28.9718 57.3046 28.908 57.3895C28.8442 57.4745 28.8123 57.5661 28.8187 57.6707L28.9973 60.1222C29.0037 60.2268 29.0483 60.3183 29.1249 60.3837C29.2014 60.4556 29.2971 60.4883 29.3928 60.4818C29.5012 60.4752 29.5841 60.4295 29.6543 60.3445C29.7181 60.266 29.75 60.168 29.7436 60.0634L29.6989 59.4488L30.3687 59.3966L30.4133 60.0176C30.4325 60.3118 30.3559 60.5798 30.1646 60.7956C29.9732 61.0113 29.7436 61.1421 29.4565 61.1617Z" fill="white"/>
<path d="M44.3888 61.1551C44.4653 61.1682 44.561 61.129 44.6694 61.044C44.5865 60.8871 44.4972 60.691 44.4207 60.4687C44.3888 60.5079 44.3569 60.5472 44.325 60.5864C44.2676 60.6779 44.2293 60.7629 44.2165 60.8479C44.2038 60.9198 44.2102 60.9917 44.2357 61.044C44.2676 61.1094 44.3186 61.1486 44.3888 61.1551ZM44.5418 59.305C44.5291 59.39 44.5482 59.5338 44.5929 59.7496C44.6184 59.73 44.6375 59.7104 44.6567 59.6907L44.7205 59.6254L44.8225 59.5273C44.8991 59.4554 44.9437 59.3769 44.9501 59.305C44.9565 59.2527 44.9565 59.2135 44.9501 59.1808C44.9246 59.0828 44.8735 59.0305 44.797 59.0174C44.7205 59.0043 44.663 59.0305 44.612 59.0958C44.5737 59.1612 44.5482 59.2266 44.5418 59.305ZM45.5178 60.4164C45.403 60.691 45.2818 60.9198 45.1478 61.0963C45.2307 61.2074 45.3137 61.2728 45.3902 61.2859L45.3328 61.6651C45.1797 61.6389 45.0266 61.5343 44.8863 61.3643C44.7077 61.5082 44.5163 61.5605 44.3377 61.5343C44.1272 61.4951 43.9805 61.3839 43.8976 61.1878C43.8402 61.0701 43.8338 60.9329 43.853 60.7956C43.8721 60.6583 43.9295 60.5145 44.0188 60.3772C44.0379 60.351 44.0826 60.2987 44.1591 60.2007C44.2038 60.1484 44.2484 60.1026 44.2931 60.0568L44.2421 59.8476C44.2165 59.7561 44.1974 59.6907 44.191 59.645C44.1719 59.5665 44.1591 59.5012 44.1591 59.4423C44.1591 59.3769 44.1591 59.3116 44.1719 59.2397C44.191 59.122 44.2357 59.0174 44.3058 58.9259C44.376 58.8278 44.4653 58.7624 44.5801 58.7297C44.663 58.7036 44.7587 58.6905 44.8544 58.7101C44.9628 58.7297 45.0585 58.769 45.1414 58.8409C45.218 58.9128 45.2818 58.9978 45.3137 59.1024C45.3392 59.1874 45.3456 59.2724 45.3264 59.3639C45.3009 59.5273 45.2244 59.6711 45.0904 59.7953L44.982 59.8999C44.8863 59.9915 44.8034 60.0765 44.7268 60.1549C44.7842 60.3576 44.8544 60.5472 44.9437 60.7237C45.033 60.5864 45.1095 60.4295 45.1733 60.266L45.5178 60.4164Z" fill="white"/>
<path d="M24.9343 59.7365L25.2405 61.6062L24.5962 61.7239L23.8818 57.298L24.5197 57.1869L24.8259 59.0697L25.6041 58.9324L25.2915 57.0496L25.9294 56.9385L26.6502 61.3578L26.0123 61.4689L25.7061 59.5992L24.9343 59.7365Z" fill="white"/>
<path d="M47.4188 58.1743L46.7427 58.0501L46.8575 57.3833L48.8476 57.7494L48.7328 58.4162L48.0567 58.292L47.4188 62.038L46.7809 61.9203L47.4188 58.1743Z" fill="white"/>
<path d="M48.6497 62.2728L49.7723 57.9385L51.5519 58.4419L51.3861 59.0956L50.2252 58.7687L49.919 59.9586L50.761 60.1939L50.5951 60.8476L49.7532 60.6123L49.4406 61.7956L50.6015 62.1225L50.4293 62.7697L48.6497 62.2728Z" fill="white"/>
<path d="M22.019 58.3898L21.3493 58.5336L21.2153 57.8734L23.1991 57.4419L23.333 58.1022L22.6569 58.2525L23.4096 61.9789L22.7717 62.1162L22.019 58.3898Z" fill="white"/>
<path d="M21.6044 62.3648L20.9729 62.5151L20.0225 58.1416L20.6539 57.9912L21.6044 62.3648Z" fill="white"/>
<path d="M52.7514 59.7755L52.1327 61.4426L52.6047 61.5603L52.7514 59.7755ZM51.8903 62.0571L51.514 63.0247L50.8506 62.8678L52.5409 58.6772L53.4148 58.8864L53.1341 63.4234L52.4771 63.2665L52.5473 62.2271L51.8903 62.0571Z" fill="white"/>
<path d="M18.7914 58.4222L19.4612 58.2588L19.7801 62.7827L19.1741 62.9265L18.2811 60.6319L18.4852 63.0965L17.8729 63.2469L16.1953 59.0498L16.8587 58.8864L17.7134 61.1483L17.4902 58.736L18.1536 58.5726L19.0083 60.828L18.7914 58.4222Z" fill="white"/>
</svg>
