<svg width="32" height="30" viewBox="0 0 32 30" fill="none" xmlns="http://www.w3.org/2000/svg">
<path d="M31 14.6205V6.54144C31 5.35498 31 4.76174 30.7088 4.14998C30.5428 3.80106 30.1646 3.32644 29.8615 3.08666C29.3302 2.66626 28.8868 2.5647 28 2.36158C26.6205 2.04561 25.0989 1.87048 23.5 1.87048C20.6244 1.87048 17.9988 2.43694 16 3.37048C14.0012 4.30403 11.3756 4.87048 8.5 4.87048C6.90112 4.87048 5.37953 4.69536 4 4.37939C2.56005 4.04958 1 5.0642 1 6.54144V22.6995C1 23.886 1 24.4792 1.29117 25.091C1.45724 25.4399 1.83545 25.9145 2.13848 26.1543C2.66979 26.5747 3.11319 26.6763 4 26.8794C5.37953 27.1954 6.90112 27.3705 8.5 27.3705C10.7033 27.3705 12.7597 27.038 14.5 26.4626" stroke="#5F5F5F" stroke-width="2" stroke-linecap="round"/>
<path d="M19 25.8705C19 25.8705 20.5 25.8705 22 28.8705C22 28.8705 26.7647 21.3705 31 19.8705" stroke="#5F5F5F" stroke-width="2" stroke-linecap="round" stroke-linejoin="round"/>
<path d="M19.75 14.6205C19.75 16.6916 18.0711 18.3705 16 18.3705C13.9289 18.3705 12.25 16.6916 12.25 14.6205C12.25 12.5494 13.9289 10.8705 16 10.8705C18.0711 10.8705 19.75 12.5494 19.75 14.6205Z" stroke="#5F5F5F" stroke-width="2"/>
<path d="M6.25 16.1205L6.25 16.134" stroke="#5F5F5F" stroke-width="3" stroke-linecap="round" stroke-linejoin="round"/>
<path d="M25.75 13.1088L25.75 13.1215" stroke="#5F5F5F" stroke-width="3" stroke-linecap="round" stroke-linejoin="round"/>
</svg>
