<svg width="36" height="37" viewBox="0 0 36 37" fill="none" xmlns="http://www.w3.org/2000/svg">
<path fill-rule="evenodd" clip-rule="evenodd" d="M23.625 8.12515C21.6192 8.04864 19.6647 8.76954 18.1889 10.1302C16.7132 11.4908 15.8363 13.3805 15.75 15.3859C15.75 19.0984 18.5513 23.4769 20.7641 25.7573C21.3136 26.3566 21.9486 26.8714 22.6485 27.285C22.9433 27.4624 23.2809 27.5561 23.625 27.5561C23.9691 27.5561 24.3067 27.4624 24.6015 27.285C25.3014 26.8714 25.9364 26.3566 26.4859 25.7573C28.6987 23.4769 31.5 19.0939 31.5 15.3859C31.4137 13.3805 30.5368 11.4908 29.0611 10.1302C27.5853 8.76954 25.6308 8.04864 23.625 8.12515ZM24.8715 24.1902C24.4849 24.5702 24.068 24.9182 23.625 25.2308C23.182 24.9182 22.7651 24.5702 22.3785 24.1902C20.4908 22.2439 18 18.5517 18 15.3859C18.0859 13.9772 18.7255 12.6596 19.7794 11.7208C20.8333 10.782 22.2157 10.2983 23.625 10.3752C25.0343 10.2983 26.4167 10.782 27.4706 11.7208C28.5245 12.6596 29.1641 13.9772 29.25 15.3859C29.25 18.5517 26.7592 22.2439 24.8715 24.1902Z" fill="#5F5F5F"/>
<path fill-rule="evenodd" clip-rule="evenodd" d="M23.6249 11.561C22.8359 11.5608 22.0645 11.7946 21.4083 12.2328C20.7521 12.671 20.2406 13.294 19.9385 14.0229C19.6364 14.7518 19.5572 15.5539 19.711 16.3279C19.8648 17.1018 20.2447 17.8127 20.8025 18.3707C21.3604 18.9287 22.0712 19.3088 22.8451 19.4628C23.619 19.6168 24.4211 19.5379 25.1501 19.236C25.8791 18.9341 26.5022 18.4228 26.9406 17.7667C27.379 17.1107 27.613 16.3393 27.613 15.5503C27.6127 14.4926 27.1925 13.4782 26.4447 12.7302C25.6968 11.9822 24.6826 11.5616 23.6249 11.561ZM23.6249 17.2884C23.2808 17.2886 22.9444 17.1868 22.6582 16.9958C22.372 16.8047 22.1489 16.5331 22.0171 16.2153C21.8854 15.8974 21.8508 15.5476 21.9179 15.2101C21.985 14.8726 22.1506 14.5626 22.3939 14.3193C22.6372 14.076 22.9473 13.9103 23.2847 13.8433C23.6222 13.7762 23.972 13.8107 24.2899 13.9425C24.6077 14.0743 24.8793 14.2974 25.0704 14.5836C25.2614 14.8698 25.3632 15.2062 25.363 15.5503C25.363 16.0113 25.1799 16.4534 24.8539 16.7793C24.528 17.1053 24.0859 17.2884 23.6249 17.2884Z" fill="#5F5F5F"/>
<path d="M14.625 32C15.557 32 16.3125 31.2445 16.3125 30.3125C16.3125 29.3805 15.557 28.625 14.625 28.625C13.693 28.625 12.9375 29.3805 12.9375 30.3125C12.9375 31.2445 13.693 32 14.625 32Z" fill="#5F5F5F"/>
<path fill-rule="evenodd" clip-rule="evenodd" d="M23.625 28.625C23.3266 28.625 23.0405 28.7435 22.8295 28.9545C22.6185 29.1655 22.5 29.4516 22.5 29.75V32C22.5 32.2984 22.3815 32.5845 22.1705 32.7955C21.9595 33.0065 21.6734 33.125 21.375 33.125H7.875C7.57663 33.125 7.29048 33.0065 7.0795 32.7955C6.86853 32.5845 6.75 32.2984 6.75 32V5C6.75 4.70163 6.86853 4.41548 7.0795 4.2045C7.29048 3.99353 7.57663 3.875 7.875 3.875H10.4389L11.3074 6.4805C11.382 6.70461 11.5253 6.89953 11.7169 7.03765C11.9086 7.17576 12.1388 7.25006 12.375 7.25H16.875C17.1112 7.25006 17.3414 7.17576 17.5331 7.03765C17.7247 6.89953 17.868 6.70461 17.9426 6.4805L18.8111 3.875H21.375C21.6734 3.875 21.9595 3.99353 22.1705 4.2045C22.3815 4.41548 22.5 4.70163 22.5 5C22.5 5.29837 22.6185 5.58452 22.8295 5.7955C23.0405 6.00647 23.3266 6.125 23.625 6.125C23.9234 6.125 24.2095 6.00647 24.4205 5.7955C24.6315 5.58452 24.75 5.29837 24.75 5C24.75 4.10489 24.3944 3.24645 23.7615 2.61351C23.1286 1.98058 22.2701 1.625 21.375 1.625H7.875C6.97989 1.625 6.12145 1.98058 5.48851 2.61351C4.85558 3.24645 4.5 4.10489 4.5 5V32C4.5 32.8951 4.85558 33.7536 5.48851 34.3865C6.12145 35.0194 6.97989 35.375 7.875 35.375H21.375C22.2701 35.375 23.1286 35.0194 23.7615 34.3865C24.3944 33.7536 24.75 32.8951 24.75 32V29.75C24.75 29.4516 24.6315 29.1655 24.4205 28.9545C24.2095 28.7435 23.9234 28.625 23.625 28.625ZM16.4396 3.875L16.0639 5H13.1861L12.8104 3.875H16.4396Z" fill="#5F5F5F"/>
</svg>
