<svg width="42" height="43" viewBox="0 0 42 43" fill="none" xmlns="http://www.w3.org/2000/svg">
<g clip-path="url(#clip0_946_10162)">
<path d="M16.834 40.4458C18.4033 41.0904 20.1057 41.4731 21.8933 41.5368C24.3126 41.6231 26.6131 41.1123 28.6698 40.1423C26.2035 39.1534 23.9699 37.7066 22.0636 35.9084C20.8279 37.9279 19.0003 39.5231 16.834 40.4458Z" fill="#FF9100"/>
<path d="M22.062 35.9096C17.7105 31.8014 15.0707 25.8551 15.2938 19.3331C15.3011 19.1213 15.312 18.9096 15.3248 18.6981C14.5455 18.4923 13.7319 18.3668 12.8946 18.3369C11.6961 18.2942 10.5354 18.4459 9.43966 18.7609C8.27806 20.8381 7.57707 23.2214 7.48974 25.7742C7.26437 32.3624 11.17 38.119 16.8324 40.4469C18.9987 39.5246 20.8263 37.9313 22.062 35.9096Z" fill="#FFC400"/>
<path d="M22.0625 35.9092C23.0742 34.2564 23.6876 32.3187 23.7591 30.231C23.9469 24.7396 20.3305 20.0157 15.3254 18.6975C15.3125 18.9091 15.3016 19.1208 15.2944 19.3326C15.0713 25.8546 17.711 31.8008 22.0625 35.9092Z" fill="#FF9100"/>
<path d="M23.2005 3.26245C20.3499 5.59371 18.0989 8.66768 16.7369 12.2088C15.9572 14.2371 15.4673 16.4159 15.3242 18.6998C20.3294 20.0179 23.9458 24.7419 23.7579 30.2333C23.6865 32.321 23.0713 34.2567 22.0614 35.9114C23.9676 37.7118 26.2013 39.1564 28.6676 40.1456C33.6179 37.8094 37.1301 32.7832 37.3335 26.8379C37.4652 22.986 36.0155 19.5529 33.9669 16.655C31.8035 13.5903 23.2005 3.26245 23.2005 3.26245Z" fill="#DD2C00"/>
</g>
<defs>
<clipPath id="clip0_946_10162">
<rect width="42" height="42" fill="white" transform="translate(0 0.450684)"/>
</clipPath>
</defs>
</svg>
