<svg viewBox="0 0 40 41" fill="none" xmlns="http://www.w3.org/2000/svg">
<g clip-path="url(#clip0_999_2181)">
<path d="M33.3333 3.78394H32.5L0 36.2839V37.1173C0 38.9557 1.49495 40.4506 3.33333 40.4506H4.43237L36.6667 7.7913V7.11727C36.6667 5.27889 35.1717 3.78394 33.3333 3.78394Z" fill="#FDDC49"/>
<path d="M3.33333 3.78394C1.49495 3.78394 0 5.27889 0 7.11727V36.2839L32.5 3.78394H3.33333Z" fill="#56A959"/>
<path d="M4.43164 40.4506H32.4993L18.3736 26.325L4.43164 40.4506Z" fill="#5796FF"/>
<path d="M22.5137 22.1311L36.6667 36.2841V7.7915L22.5137 22.1311Z" fill="#CCCCCC"/>
<path d="M18.375 26.3249L32.5007 40.4506H33.334C35.1724 40.4506 36.6673 38.9556 36.6673 37.1172V36.2839L22.5143 22.1309L18.375 26.3249Z" fill="#F2F2F2"/>
<path opacity="0.2" d="M33.3333 3.78394H3.33333C1.49495 3.78394 0 5.27889 0 7.11727V7.53394C0 5.69556 1.49495 4.2006 3.33333 4.2006H33.3333C35.1717 4.2006 36.6667 5.69556 36.6667 7.53394V7.11727C36.6667 5.27889 35.1717 3.78394 33.3333 3.78394Z" fill="white"/>
<path opacity="0.1" d="M33.3333 40.034H3.33333C1.49495 40.034 0 38.5391 0 36.7007V37.1174C0 38.9557 1.49495 40.4507 3.33333 40.4507H33.3333C35.1717 40.4507 36.6667 38.9557 36.6667 37.1174V36.7007C36.6667 38.5391 35.1717 40.034 33.3333 40.034Z" fill="black"/>
<path d="M30 0.450684C24.4857 0.450684 20 4.93636 20 10.4507C20 10.8405 20.0269 11.223 20.0692 11.5868C20.4167 15.1406 22.3169 18.0679 24.3294 21.166C26.3078 24.2121 28.3529 27.3615 29.1838 31.45C29.2619 31.8382 29.6037 32.1173 30 32.1173C30.3963 32.1173 30.7381 31.8382 30.8162 31.45C31.6471 27.3615 33.6922 24.2121 35.6706 21.166C37.6831 18.0679 39.5833 15.1406 39.9292 11.6006C39.9731 11.223 40 10.8405 40 10.4507C40 4.93636 35.5143 0.450684 30 0.450684Z" fill="#E53935"/>
<path opacity="0.2" d="M29.9994 0.86735C34.4483 0.86735 38.2349 3.72364 39.617 7.70791C38.4261 3.51642 34.5675 0.450684 29.9994 0.450684C25.4312 0.450684 21.5757 3.50563 20.3848 7.69711C21.7669 3.71284 25.5504 0.86735 29.9994 0.86735Z" fill="white"/>
<path opacity="0.1" d="M39.9292 11.1838C39.5833 14.7239 37.6831 17.6511 35.6706 20.7493C33.6922 23.7953 31.6471 26.9447 30.8162 31.0333C30.7381 31.4215 30.3963 31.7006 30 31.7006C29.6037 31.7006 29.2619 31.4215 29.1838 31.0333C28.3529 26.9447 26.3078 23.7953 24.3294 20.7493C22.3169 17.6511 20.4167 14.7239 20.0692 11.17C20.0339 10.8668 20.0187 10.5457 20.0115 10.223C20.0098 10.2994 20 10.3738 20 10.4506C20 10.8404 20.0269 11.2229 20.0692 11.5867C20.4167 15.1405 22.3169 18.0678 24.3294 21.1659C26.3078 24.212 28.3529 27.3614 29.1838 31.45C29.2619 31.8381 29.6037 32.1173 30 32.1173C30.3963 32.1173 30.7381 31.8381 30.8162 31.45C31.6471 27.3614 33.6922 24.212 35.6706 21.1659C37.6831 18.0678 39.5833 15.1405 39.9292 11.6005C39.9731 11.2229 40 10.8404 40 10.4506C40 10.3734 39.9901 10.2987 39.9884 10.2219C39.9813 10.546 39.9659 10.868 39.9292 11.1838Z" fill="black"/>
<path d="M29.9993 13.7841C31.8403 13.7841 33.3327 12.2917 33.3327 10.4508C33.3327 8.60982 31.8403 7.11743 29.9993 7.11743C28.1584 7.11743 26.666 8.60982 26.666 10.4508C26.666 12.2917 28.1584 13.7841 29.9993 13.7841Z" fill="#B71C1C"/>
<path opacity="0.1" d="M29.9993 13.7841C31.8403 13.7841 33.3327 12.2917 33.3327 10.4508C33.3327 8.60982 31.8403 7.11743 29.9993 7.11743C28.1584 7.11743 26.666 8.60982 26.666 10.4508C26.666 12.2917 28.1584 13.7841 29.9993 13.7841Z" fill="black"/>
<path d="M9.16602 17.9507C6.40885 17.9507 4.16602 15.7078 4.16602 12.9507C4.16602 10.1935 6.40885 7.95068 9.16602 7.95068C10.259 7.95068 11.2974 8.29736 12.1698 8.95247L11.1688 10.2855C10.5869 9.84847 9.89437 9.61735 9.16602 9.61735C7.32764 9.61735 5.83268 11.1123 5.83268 12.9507C5.83268 14.7891 7.32764 16.284 9.16602 16.284C10.7163 16.284 12.0233 15.2204 12.3936 13.784H9.99935V12.1174H14.166V12.9507C14.166 15.7078 11.9232 17.9507 9.16602 17.9507Z" fill="#F2F2F2"/>
<path d="M40 10.4507C40 4.93636 35.5143 0.450684 30 0.450684C27.0482 0.450684 24.3994 1.74361 22.5674 3.78402H3.33333C1.49495 3.78402 0 5.27897 0 7.11735V37.1173C0 38.9557 1.49495 40.4507 3.33333 40.4507H33.3333C35.1717 40.4507 36.6667 38.9557 36.6667 37.1173V19.6124C38.2749 17.0652 39.6415 14.5446 39.9292 11.6006C39.9731 11.223 40 10.8405 40 10.4507Z" fill="url(#paint0_linear_999_2181)"/>
</g>
<defs>
<linearGradient id="paint0_linear_999_2181" x1="-2.28167" y1="11.2707" x2="39.8933" y2="30.9374" gradientUnits="userSpaceOnUse">
<stop stop-color="white" stop-opacity="0.2"/>
<stop offset="1" stop-color="white" stop-opacity="0"/>
</linearGradient>
<clipPath id="clip0_999_2181">
<rect width="40" height="40" fill="white" transform="translate(0 0.450684)"/>
</clipPath>
</defs>
</svg>
