<svg width="auto" viewBox="0 0 30 30" fill="none" xmlns="http://www.w3.org/2000/svg">
<path d="M1.15088 28.8701H28.1509M4.15088 28.8701V4.87012C4.15088 4.07447 4.46695 3.31141 5.02956 2.7488C5.59217 2.18619 6.35523 1.87012 7.15088 1.87012H22.1509C22.9465 1.87012 23.7096 2.18619 24.2722 2.7488C24.8348 3.31141 25.1509 4.07447 25.1509 4.87012V28.8701M10.1509 28.8701V22.8701C10.1509 22.0745 10.467 21.3114 11.0296 20.7488C11.5922 20.1862 12.3552 19.8701 13.1509 19.8701H16.1509C16.9465 19.8701 17.7096 20.1862 18.2722 20.7488C18.8348 21.3114 19.1509 22.0745 19.1509 22.8701V28.8701M11.6509 10.8701H17.6509M14.6509 7.87012V13.8701" stroke="#5B5B5B" stroke-width="2" stroke-linecap="round" stroke-linejoin="round"/>
</svg>
