<svg width="40" height="32" viewBox="0 0 40 32" fill="none" xmlns="http://www.w3.org/2000/svg">
<path d="M39.9851 9.08958C39.9125 8.63788 39.5837 8.2697 39.1431 8.14674C32.253 6.14145 24.9504 8.87732 21.2344 14.7994C19.5862 5.63108 10.3921 -0.790153 1.0001 0.823359C0.547545 0.890387 0.175298 1.21475 0.0471014 1.65386C-0.0812514 2.09298 0.0577259 2.56663 0.402943 2.86685C6.9523 9.12739 2.15903 19.3915 18.8248 22.7348C18.8186 23.0065 18.8272 30.2597 18.8272 30.2597C18.8891 31.8144 21.1095 31.8133 21.1708 30.2597V25.7472C36.0954 24.5532 33.0804 15.0036 39.4806 10.2487C39.8607 9.99391 40.0577 9.54128 39.9851 9.08958ZM6.51271 9.17895C5.80064 7.05351 5.07067 4.8744 3.65239 2.95442C12.9401 2.60202 20.599 11.3119 19.014 20.3849C9.64005 18.5146 8.11958 13.9749 6.51271 9.17895ZM33.1999 14.978C31.2774 18.9752 29.4565 22.7603 21.1667 23.3982C20.9146 15.3624 28.2825 8.83147 36.2645 9.95399C34.8895 11.4649 34.0344 13.2427 33.1999 14.978Z" fill="#FD684D"/>
</svg>
