<svg width="auto" viewBox="0 0 33 33" fill="none" xmlns="http://www.w3.org/2000/svg">
<path d="M1.65088 31.3701L30.9009 31.3701" stroke="#5B5B5B" stroke-width="2" stroke-linecap="round" stroke-linejoin="round"/>
<path d="M3.15088 17.8701V31.3701M30.1509 17.8701V31.3701" stroke="#5B5B5B" stroke-width="2" stroke-linecap="round" stroke-linejoin="round"/>
<path d="M9.90088 10.3701V31.3701M23.4009 10.3701V31.3701" stroke="#5B5B5B" stroke-width="2" stroke-linecap="round" stroke-linejoin="round"/>
<path d="M1.65088 17.8701H9.15088M31.6509 17.8701H24.1509" stroke="#5B5B5B" stroke-width="2" stroke-linecap="round" stroke-linejoin="round"/>
<path d="M8.40088 10.3701L24.9009 10.3701" stroke="#5B5B5B" stroke-width="2" stroke-linecap="round" stroke-linejoin="round"/>
<path d="M16.6509 10.3701V5.84343M16.6509 5.84343V2.82564C16.6509 2.11434 16.6509 1.75869 16.8705 1.53772C17.56 0.844209 20.4009 2.48466 21.4813 3.14991C22.3936 3.7117 22.6509 4.83383 22.6509 5.84343H16.6509Z" stroke="#5B5B5B" stroke-width="2" stroke-linecap="round" stroke-linejoin="round"/>
<path d="M16.6509 31.3701L16.6509 28.3701" stroke="#5B5B5B" stroke-width="2" stroke-linecap="round" stroke-linejoin="round"/>
<path d="M14.4009 16.3701L14.4009 17.1201M18.9009 16.3701V17.1201" stroke="#5B5B5B" stroke-width="2" stroke-linecap="round" stroke-linejoin="round"/>
<path d="M14.4009 22.3701L14.4009 23.1201M18.9009 22.3701V23.1201" stroke="#5B5B5B" stroke-width="2" stroke-linecap="round" stroke-linejoin="round"/>
</svg>
