<svg width="18" height="19" viewBox="0 0 18 19" fill="none" xmlns="http://www.w3.org/2000/svg">
<g clip-path="url(#clip0_262_5541)">
<path d="M4.01607 15.8068L2.58588 12.7926C2.49859 12.6086 2.31311 12.4913 2.10941 12.4913C1.90571 12.4913 1.7203 12.6086 1.63294 12.7926L0.202746 15.8069C0.0682383 16.0906 0 16.3945 0 16.7103C0 17.8734 0.946301 18.8197 2.10948 18.8197C3.27262 18.8197 4.21896 17.8734 4.21896 16.7103C4.21892 16.3945 4.15069 16.0906 4.01607 15.8068ZM2.10948 17.765C1.52789 17.765 1.05476 17.2918 1.05476 16.7103C1.05476 16.5521 1.08875 16.4003 1.15576 16.259L2.10948 14.2489L3.06316 16.2589C3.13021 16.4002 3.1642 16.5521 3.1642 16.7103C3.1642 17.2918 2.69103 17.765 2.10948 17.765Z" fill="#5F5F5F"/>
<path d="M17.537 10.1756C17.2388 9.87745 10.1796 2.81818 10.1354 2.77402L10.8812 2.02822C11.0869 1.82259 11.4214 1.82259 11.627 2.02818L15.3561 5.7572C15.562 5.96311 15.8959 5.96315 16.1019 5.7572C16.3078 5.55126 16.3078 5.21734 16.1019 5.0114L12.3728 1.28238C11.756 0.665559 10.7523 0.665559 10.1354 1.28238C10.1306 1.28716 1.15585 10.2147 1.15209 10.2184C1.00039 10.3689 0.954475 10.596 1.03583 10.7937C1.11718 10.9912 1.30976 11.1202 1.52348 11.1202H4.32311L10.4518 17.2607C11.0686 17.8776 12.0724 17.8776 12.6892 17.2607L17.537 12.413C18.1538 11.7962 18.1538 10.7925 17.537 10.1756ZM2.80405 10.0655L9.38857 3.51877L13.1689 7.29912L4.43832 10.0654H2.80405V10.0655ZM16.7912 11.6672L11.9434 16.5149C11.7378 16.7205 11.4032 16.7205 11.198 16.5153L5.52219 10.8285L14.0092 8.13936L16.7912 10.9214C16.9968 11.127 16.9968 11.4616 16.7912 11.6672Z" fill="#5F5F5F"/>
<path d="M12.6255 13.5802C12.4196 13.3743 12.0856 13.3742 11.8796 13.5802L11.5067 13.9531L10.7609 13.2073L11.8796 12.0886C12.0856 11.8826 12.0856 11.5487 11.8796 11.3428C11.6737 11.1369 11.3398 11.1368 11.1338 11.3428L10.0151 12.4615L9.26929 11.7156L9.64216 11.3428C9.84811 11.1368 9.84811 10.8029 9.64216 10.597C9.43625 10.391 9.1023 10.391 8.89636 10.597L8.15055 11.3428C7.94461 11.5487 7.94461 11.8826 8.15055 12.0885C9.0212 12.9592 10.2633 14.2013 11.1338 15.0718C11.3397 15.2777 11.6736 15.2777 11.8796 15.0718L12.6254 14.326C12.8314 14.12 12.8314 13.7861 12.6255 13.5802Z" fill="#5F5F5F"/>
</g>
<defs>
<clipPath id="clip0_262_5541">
<rect width="18" height="18" fill="white" transform="translate(0 0.819763)"/>
</clipPath>
</defs>
</svg>
