<svg width="40" height="40" viewBox="0 0 40 40" fill="none" xmlns="http://www.w3.org/2000/svg">
<path d="M2.62507 20.8514C2.23555 21.2429 2.23717 21.876 2.62869 22.2656C3.02022 22.6551 3.65338 22.6535 4.0429 22.2619L2.62507 20.8514ZM19.0505 3.47394L19.3192 2.51071V2.51071L19.0505 3.47394ZM23.0283 4.58357L23.297 3.62035L23.0283 4.58357ZM24.7452 5.72347L23.9684 6.35318L23.9684 6.35318L24.7452 5.72347ZM34.3308 20.5349L33.4207 20.9492L34.3308 20.5349ZM14.4056 5.91293L13.6701 5.23536V5.23536L14.4056 5.91293ZM18.1353 11.2306L17.9724 10.244H17.9724L18.1353 11.2306ZM22.8921 13.4282L23.6853 12.8192L23.6853 12.8192L22.8921 13.4282ZM24.5217 19.3898L23.5278 19.4999L24.5217 19.3898ZM25.7734 22.6146L25.212 23.4421C25.6322 23.7272 26.1994 23.6521 26.5309 23.2674C26.8624 22.8826 26.8529 22.3105 26.5088 21.937L25.7734 22.6146ZM12.9058 23.8685C12.5635 24.3019 12.6374 24.9307 13.0709 25.273C13.5043 25.6153 14.1332 25.5414 14.4754 25.1079L12.9058 23.8685ZM12.6793 8.94398L11.6941 9.11577L12.6793 8.94398ZM36.2976 29.3398L37.2264 29.7104L36.2976 29.3398ZM29.2279 33.7428L29.5406 34.6927L29.2279 33.7428ZM20.769 11.0402L21.1497 10.1155L21.1497 10.1155L20.769 11.0402ZM17.0081 33.9988L17.7261 34.6949L17.7261 34.6949L17.0081 33.9988ZM4.06946 33.1787C3.69526 32.7725 3.06263 32.7466 2.65644 33.1208C2.25024 33.495 2.22431 34.1276 2.59851 34.5338L4.06946 33.1787ZM17.2999 33.5909L17.6641 32.6595C17.2076 32.4811 16.6891 32.6597 16.4394 33.0814L17.2999 33.5909ZM17.2427 33.6875L16.3822 33.178L16.3822 33.178L17.2427 33.6875ZM17.9681 21.3807L18.2737 22.3329L17.9681 21.3807ZM19.0505 3.47394L18.7818 4.43716L22.7596 5.5468L23.0283 4.58357L23.297 3.62035L19.3192 2.51071L19.0505 3.47394ZM24.7452 5.72347L23.9684 6.35318C28.2861 11.6795 31.0616 15.766 33.4207 20.9492L34.3308 20.5349L35.241 20.1207C32.7862 14.7272 29.8993 10.4936 25.5221 5.09375L24.7452 5.72347ZM24.5217 19.3898L23.5278 19.4999C23.6684 20.7698 24.0768 22.249 25.0379 23.2922L25.7734 22.6146L26.5088 21.937C25.9675 21.3495 25.6364 20.37 25.5156 19.2797L24.5217 19.3898ZM22.8921 13.4282L22.0989 14.0371C22.4251 14.462 22.6552 14.762 22.8174 14.9873C22.9939 15.2325 23.0294 15.3088 23.0278 15.3049L23.9571 14.9356L24.8865 14.5664C24.7859 14.3133 24.6108 14.0553 24.4406 13.8188C24.256 13.5624 24.0031 13.2332 23.6853 12.8192L22.8921 13.4282ZM24.5217 19.3898L25.5156 19.2797C25.3608 17.881 25.2436 16.8223 25.1527 16.0829C25.1073 15.7138 25.0672 15.4138 25.0311 15.1859C25.0019 15.0018 24.9599 14.7512 24.8865 14.5664L23.9571 14.9356L23.0278 15.3049C23.0039 15.2446 23.0183 15.2626 23.0558 15.499C23.0863 15.6916 23.123 15.9639 23.1676 16.3269C23.2567 17.0514 23.3723 18.0953 23.5278 19.4999L24.5217 19.3898ZM14.4056 5.91293L13.6701 5.23536C13.0634 5.8939 12.5147 6.48398 12.1604 7.04234C11.77 7.65764 11.5558 8.32262 11.6941 9.11577L12.6793 8.94398L13.6644 8.7722C13.633 8.59231 13.65 8.42777 13.8492 8.11381C14.0845 7.7429 14.4837 7.30398 15.1411 6.59049L14.4056 5.91293ZM34.3308 20.5349L33.4207 20.9492C34.4077 23.1179 35.0949 24.6351 35.436 25.9048C35.7621 27.1188 35.7468 28.022 35.3688 28.9692L36.2976 29.3398L37.2264 29.7104C37.8017 28.2685 37.7763 26.9077 37.3675 25.3859C36.9736 23.9197 36.2006 22.2291 35.241 20.1207L34.3308 20.5349ZM29.2279 33.7428L29.5406 34.6927C31.5434 34.0332 33.1798 33.4988 34.421 32.8074C35.7271 32.0798 36.6514 31.1514 37.2264 29.7104L36.2976 29.3398L35.3688 28.9692C34.9905 29.9173 34.4188 30.5192 33.4477 31.0602C32.4118 31.6373 30.99 32.1098 28.9151 32.793L29.2279 33.7428ZM18.1353 11.2306L18.2982 12.2173C19.0503 12.0931 19.5607 12.0095 19.9379 11.9745C20.3392 11.9374 20.4174 11.9769 20.3883 11.9649L20.769 11.0402L21.1497 10.1155C20.6969 9.9291 20.1948 9.9422 19.7535 9.98306C19.2881 10.0261 18.6936 10.1249 17.9724 10.244L18.1353 11.2306ZM17.0081 33.9988L16.2902 33.3027C14.7678 34.8728 12.4833 35.6879 10.1479 35.6663C7.8128 35.6446 5.55166 34.7876 4.06946 33.1787L3.33398 33.8562L2.59851 34.5338C4.52418 36.6241 7.35295 37.6404 10.1294 37.6662C12.9055 37.692 15.7541 36.7287 17.7261 34.6949L17.0081 33.9988ZM29.2279 33.7428L28.9151 32.793C24.9831 34.0876 21.6285 34.2095 17.6641 32.6595L17.2999 33.5909L16.9358 34.5222C21.401 36.268 25.2409 36.1083 29.5406 34.6927L29.2279 33.7428ZM17.2427 33.6875L18.1032 34.197L18.1604 34.1003L17.2999 33.5909L16.4394 33.0814L16.3822 33.178L17.2427 33.6875ZM17.0081 33.9988L17.7261 34.6949C17.8799 34.5362 18.0035 34.3653 18.1032 34.1969L17.2427 33.6875L16.3822 33.178C16.3491 33.234 16.3176 33.2744 16.2902 33.3027L17.0081 33.9988ZM25.7734 22.6146L26.3348 21.7871C24.6138 20.6195 21.1843 19.2981 17.6625 20.4286L17.9681 21.3807L18.2737 22.3329C21.0154 21.4529 23.8027 22.4861 25.212 23.4421L25.7734 22.6146ZM17.9681 21.3807L17.6625 20.4286C15.9891 20.9657 14.3472 22.0431 12.9058 23.8685L13.6906 24.4882L14.4754 25.1079C15.6849 23.5763 17.0003 22.7416 18.2737 22.3329L17.9681 21.3807ZM17.9681 21.3807L18.6542 20.6532C16.5461 18.6649 13.528 17.734 10.5973 17.7655C7.66671 17.7969 4.67356 18.7923 2.62507 20.8514L3.33398 21.5566L4.0429 22.2619C5.63882 20.6578 8.08311 19.7925 10.6187 19.7653C13.1541 19.7382 15.6308 20.5509 17.282 22.1082L17.9681 21.3807ZM20.769 11.0402L20.3883 11.9649C20.5832 12.0452 20.8306 12.2621 21.153 12.6889C21.3055 12.8907 21.452 13.1075 21.6099 13.3417C21.7609 13.5657 21.9285 13.8152 22.0989 14.0371L22.8921 13.4282L23.6853 12.8192C23.5598 12.6558 23.4282 12.4611 23.2683 12.2238C23.1152 11.9967 22.9391 11.7352 22.7489 11.4834C22.3858 11.0028 21.8676 10.4111 21.1497 10.1155L20.769 11.0402ZM23.0283 4.58357L22.7596 5.5468C23.3219 5.70364 23.4018 5.73926 23.4575 5.77626C23.5182 5.8166 23.5892 5.8854 23.9684 6.35318L24.7452 5.72347L25.5221 5.09375C25.2176 4.71817 24.9377 4.35859 24.5646 4.11061C24.1864 3.85928 23.7497 3.74663 23.297 3.62035L23.0283 4.58357ZM19.0505 3.47394L19.3192 2.51071C17.8832 2.11016 16.7565 2.42467 15.8229 3.08521C14.9984 3.66859 14.2718 4.58228 13.6701 5.23536L14.4056 5.91293L15.1411 6.59049C15.9085 5.75744 16.3831 5.13885 16.9781 4.71787C17.464 4.37405 17.9751 4.21214 18.7818 4.43716L19.0505 3.47394ZM12.6793 8.94398L11.6941 9.11577C11.9755 10.7295 13.4266 11.5424 14.6347 11.9181C15.895 12.3101 17.3263 12.3777 18.2982 12.2173L18.1353 11.2306L17.9724 10.244C17.3157 10.3524 16.1992 10.3102 15.2287 10.0083C14.206 9.69027 13.7434 9.22533 13.6644 8.7722L12.6793 8.94398Z" fill="#ED1C24"/>
</svg>
