<svg width="21" height="22" viewBox="0 0 21 22" fill="none" xmlns="http://www.w3.org/2000/svg">
<path d="M19.576 3.60673C19.5525 3.52429 19.5014 3.45242 19.4313 3.40313C19.3612 3.35383 19.2762 3.33009 19.1907 3.33588C9.98693 3.6053 3.65047 9.6144 2.74136 17.5728C2.73821 17.6436 2.75456 17.7139 2.78864 17.776C2.82272 17.8382 2.87321 17.8898 2.93461 17.9252C2.996 17.9606 3.06594 17.9785 3.1368 17.9768C3.20765 17.9752 3.2767 17.9542 3.33641 17.916L11.8816 12.1747C9.99614 15.067 7.49997 17.5111 4.56858 19.3351C3.26418 20.132 1.87291 20.7771 0.421894 21.2577C0.327289 21.2908 0.249473 21.3597 0.205234 21.4497C0.160996 21.5396 0.153881 21.6433 0.185425 21.7384C0.216969 21.8335 0.284642 21.9125 0.373846 21.9581C0.46305 22.0038 0.566633 22.0126 0.662249 21.9826C2.10267 21.5034 3.48668 20.869 4.78984 20.0904C8.38719 21.994 12.2783 20.449 12.4461 20.3803C23.1123 15.9705 19.6142 3.7288 19.576 3.60673Z" fill="#34C759"/>
<path d="M2.52399 14.7726C3.45775 11.4461 5.40772 8.49448 8.10126 6.33051C7.68046 3.95428 6.03583 1.3339 3.80574 0.657923C3.74334 0.637681 3.67674 0.634071 3.61252 0.647452C3.5483 0.660833 3.48868 0.69074 3.43956 0.734219C0.805728 3.02452 -2.29718 9.41241 2.52399 14.7726Z" fill="#34C759"/>
</svg>
