<svg width="auto" viewBox="0 0 33 33" fill="none" xmlns="http://www.w3.org/2000/svg">
    <path
        d="M22.6509 13.3704L25.875 14.3376C27.9347 14.9555 28.9646 15.2645 29.5578 16.0617C30.1509 16.8588 30.1509 17.9341 30.1509 20.0845V31.3704"
        stroke="#5B5B5B" stroke-width="2" stroke-linejoin="round" />
    <path d="M10.6509 11.8704L15.1509 11.8704M10.6509 17.8704L15.1509 17.8704" stroke="#5B5B5B" stroke-width="2"
        stroke-linecap="round" stroke-linejoin="round" />
    <path
        d="M16.6509 31.3704V26.8704C16.6509 25.4561 16.6509 24.749 16.2115 24.3097C15.7722 23.8704 15.0651 23.8704 13.6509 23.8704H12.1509C10.7367 23.8704 10.0296 23.8704 9.59022 24.3097C9.15088 24.749 9.15088 25.4561 9.15088 26.8704V31.3704"
        stroke="#5B5B5B" stroke-width="2" stroke-linejoin="round" />
    <path d="M1.65088 31.3704L31.6509 31.3704" stroke="#5B5B5B" stroke-width="2" stroke-linecap="round" />
    <path
        d="M3.15088 31.3704V8.44623C3.15088 4.6801 3.15088 2.79703 4.33765 1.86273C5.52443 0.928424 7.272 1.43568 10.7672 2.4502L18.2672 4.62719C20.3763 5.23941 21.4309 5.54552 22.0409 6.37984C22.6509 7.21416 22.6509 8.35051 22.6509 10.6232V31.3704"
        stroke="#5B5B5B" stroke-width="2" stroke-linecap="round" stroke-linejoin="round" />
</svg>