<svg width="36" height="36" viewBox="0 0 36 36" fill="none" xmlns="http://www.w3.org/2000/svg">
<path d="M8 14.25C8 13.56 8.55875 13 9.25 13H16.75C17.4412 13 18 13.56 18 14.25C18 14.94 17.4412 15.5 16.75 15.5H9.25C8.55875 15.5 8 14.94 8 14.25ZM16.75 18H9.25C8.55875 18 8 18.56 8 19.25C8 19.94 8.55875 20.5 9.25 20.5H16.75C17.4412 20.5 18 19.94 18 19.25C18 18.56 17.4412 18 16.75 18ZM16.75 23H9.25C8.55875 23 8 23.56 8 24.25C8 24.94 8.55875 25.5 9.25 25.5H16.75C17.4412 25.5 18 24.94 18 24.25C18 23.56 17.4412 23 16.75 23ZM16.75 28H9.25C8.55875 28 8 28.56 8 29.25C8 29.94 8.55875 30.5 9.25 30.5H16.75C17.4412 30.5 18 29.94 18 29.25C18 28.56 17.4412 28 16.75 28ZM35.5 34.25C35.5 34.94 34.9412 35.5 34.25 35.5H1.75C1.05875 35.5 0.5 34.94 0.5 34.25C0.5 33.56 1.05875 33 1.75 33H3V10.0225C3 9.06875 3.53 8.2125 4.38125 7.78625L19.3812 0.286247C20.1637 -0.103753 21.0713 -0.0637532 21.8138 0.394997C22.5563 0.853747 22.9988 1.64875 22.9988 2.5225V11.75H30.4988C31.8775 11.75 32.9987 12.8712 32.9987 14.25V33H34.2487C34.94 33 35.5 33.56 35.5 34.25ZM23 14.25V33H30.5V14.25H23ZM5.5 33H20.5V2.5225L5.5 10.0225V33Z" fill="#FD684D"/>
</svg>
