<svg viewBox="0 0 32 32" fill="none" xmlns="http://www.w3.org/2000/svg">
<path d="M1.85798 10.3355C1.76828 9.59552 1.72343 9.22554 1.76656 8.9229C1.89215 8.04149 2.51023 7.31951 3.3428 7.08167C3.62868 7 3.99026 7 4.71343 7H27.2866C28.0097 7 28.3713 7 28.6572 7.08167C29.4898 7.31951 30.1078 8.04149 30.2334 8.9229C30.2766 9.22554 30.2317 9.59552 30.142 10.3355C29.9031 12.3066 29.7836 13.2922 29.4909 14.1066C28.6435 16.464 26.707 18.2268 24.3335 18.8015C23.5134 19 22.5502 19 20.6239 19H11.3761C9.44977 19 8.48658 19 7.66654 18.8015C5.29297 18.2268 3.3565 16.464 2.50914 14.1066C2.21638 13.2922 2.09691 12.3066 1.85798 10.3355Z" stroke="#5F5F5F" stroke-width="2"/>
<path d="M16 14.5H16.0135" stroke="#5F5F5F" stroke-width="3" stroke-linecap="round" stroke-linejoin="round"/>
<path d="M3.25 16L3.25 20.53C3.25 25.1121 3.25 27.4031 4.90973 28.8265C6.56946 30.25 9.24075 30.25 14.5833 30.25H17.4167C22.7593 30.25 25.4305 30.25 27.0903 28.8265C28.75 27.4031 28.75 25.1121 28.75 20.53V16" stroke="#5F5F5F" stroke-width="2" stroke-linecap="round" stroke-linejoin="round"/>
<path d="M22 7L21.8675 6.53641C21.2075 4.22634 20.8775 3.0713 20.0919 2.41065C19.3062 1.75 18.2626 1.75 16.1754 1.75H15.8246C13.7374 1.75 12.6938 1.75 11.9081 2.41065C11.1225 3.0713 10.7925 4.22634 10.1325 6.53641L10 7" stroke="#5F5F5F" stroke-width="2"/>
</svg>
