<svg viewBox="0 0 36 37" fill="none" xmlns="http://www.w3.org/2000/svg">
<path d="M9.5625 33.3705V31.4454C9.5625 29.893 9.2067 28.3619 8.52327 26.9733L8.08616 26.0852C7.20746 24.2999 6.75 22.3313 6.75 20.3353V12.6562C6.75 11.4727 7.6944 10.5133 8.85938 10.5133C10.0244 10.5133 10.9688 11.4727 10.9688 12.6562M22.2188 33.3705C22.2188 32.7215 22.2176 32.0752 22.2188 31.4522C22.2219 29.7368 24.0124 28.8649 25.4766 28.0104C27.1497 27.0341 28.4914 25.4586 29.1102 23.5617C29.5171 22.3144 28.3899 21.2291 27.044 21.2291C25.698 21.2291 24.5543 22.4059 23.5784 23.307C23.4255 23.4482 23.2804 23.5584 23.1636 23.6331C21.2605 24.846 18.721 23.3863 18.721 21.2291C18.721 19.0719 21.2605 17.6122 23.1636 18.8251C23.6376 19.074 24.0285 19.4046 24.341 19.748C25.0497 20.5267 25.9851 21.2291 27.0546 21.2291C28.4252 21.2291 29.574 20.1246 29.1668 18.8523C28.1499 15.6756 25.1489 13.3734 21.6051 13.3734C20.1094 13.3734 19.4062 13.7968 19.4062 13.7968L22.6235 6.29127C23.1856 4.8979 22.1769 3.37048 20.6946 3.37048C19.905 3.37048 19.1832 3.82367 18.8301 4.54111L15.1875 11.9419M15.1875 11.9419L14.5161 13.306M15.1875 11.9419V6.94191C15.1875 5.75844 14.2431 4.79905 13.0781 4.79905C11.9131 4.79905 10.9688 5.75844 10.9688 6.94191V12.6562M10.9688 12.6562V17.6562" stroke="#5F5F5F" stroke-width="2" stroke-linecap="round" stroke-linejoin="round"/>
</svg>
