<svg width="36" height="37" viewBox="0 0 36 37" fill="none" xmlns="http://www.w3.org/2000/svg">
<path fill-rule="evenodd" clip-rule="evenodd" d="M13.5832 9.90042C15.6043 8.11819 18.2578 7.03493 21.1629 7.03493C27.49 7.03493 32.628 12.1729 32.628 18.5001C32.628 24.8272 27.49 29.9652 21.1629 29.9652C18.2578 29.9652 15.6043 28.8819 13.5832 27.0997C13.093 26.6664 12.3418 26.7122 11.9085 27.2041C11.4752 27.6943 11.5227 28.4439 12.0129 28.8772C14.453 31.031 17.6569 32.3373 21.1629 32.3373C28.7994 32.3373 35.0001 26.1366 35.0001 18.5001C35.0001 10.8635 28.7994 4.66284 21.1629 4.66284C17.6569 4.66284 14.453 5.96907 12.0129 8.12294C11.5227 8.55624 11.4752 9.30582 11.9085 9.79605C12.3418 10.2879 13.093 10.3337 13.5832 9.90042Z" fill="#5B5B5B"/>
<path fill-rule="evenodd" clip-rule="evenodd" d="M19.344 11.5418V17.8673C19.344 18.182 19.4689 18.4841 19.6919 18.7055L24.7524 23.7659C25.2141 24.2293 25.9669 24.2293 26.4286 23.7659C26.892 23.3042 26.892 22.5514 26.4286 22.0897L21.7161 17.3755V11.5418C21.7161 10.8871 21.1847 10.3557 20.53 10.3557C19.8753 10.3557 19.344 10.8871 19.344 11.5418Z" fill="#5B5B5B"/>
<path fill-rule="evenodd" clip-rule="evenodd" d="M2.18605 14.1511H11.6744C12.3291 14.1511 12.8605 13.6198 12.8605 12.9651C12.8605 12.3104 12.3291 11.7791 11.6744 11.7791H2.18605C1.53135 11.7791 1 12.3104 1 12.9651C1 13.6198 1.53135 14.1511 2.18605 14.1511Z" fill="#5B5B5B"/>
<path fill-rule="evenodd" clip-rule="evenodd" d="M3.76735 19.6861H13.2557C13.9104 19.6861 14.4418 19.1547 14.4418 18.5C14.4418 17.8453 13.9104 17.314 13.2557 17.314H3.76735C3.11265 17.314 2.5813 17.8453 2.5813 18.5C2.5813 19.1547 3.11265 19.6861 3.76735 19.6861Z" fill="#5B5B5B"/>
<path fill-rule="evenodd" clip-rule="evenodd" d="M5.34889 25.221H14.8373C15.492 25.221 16.0233 24.6896 16.0233 24.0349C16.0233 23.3802 15.492 22.8489 14.8373 22.8489H5.34889C4.69419 22.8489 4.16284 23.3802 4.16284 24.0349C4.16284 24.6896 4.69419 25.221 5.34889 25.221Z" fill="#5B5B5B"/>
</svg>
