<svg width="28" height="30" viewBox="0 0 28 30" fill="none" xmlns="http://www.w3.org/2000/svg">
<path d="M5.06731 1.18592C4.4094 0.760795 3.61915 0.632303 2.87793 0.807273L15.9038 13.8332L20.1255 9.61144L5.06731 1.18592Z" fill="#0E1633"/>
<path d="M1.26088 1.86621C0.897572 2.34921 0.688477 2.94226 0.688477 3.5696V26.7725C0.688477 27.3999 0.897628 27.9929 1.26088 28.4759L14.5656 15.1711L1.26088 1.86621Z" fill="#0E1633"/>
<path d="M25.6359 12.6942L21.8417 10.5713L17.2422 15.1708L21.8419 19.7706L25.6365 17.6475C26.5456 17.1381 27.0883 16.2124 27.0883 15.1708C27.0883 14.1292 26.5456 13.2036 25.6359 12.6942Z" fill="#0E1633"/>
<path d="M15.903 16.5098L2.87793 29.5348C3.09148 29.5851 3.30881 29.6121 3.52614 29.6121C4.06324 29.6121 4.59847 29.4594 5.06658 29.157L20.1249 20.7316L15.903 16.5098Z" fill="#0E1633"/>
</svg>
