<svg width="auto" viewBox="0 0 36 37" fill="none" xmlns="http://www.w3.org/2000/svg">
<g clip-path="url(#clip0_262_2979)">
<path d="M27.8438 5.77344C27.8438 2.86566 25.4781 0.5 22.5703 0.5C19.6625 0.5 17.2969 2.86566 17.2969 5.77344V23.9605C15.9509 25.3368 15.1875 27.1902 15.1875 29.1172C15.1875 33.1881 18.4994 36.5 22.5703 36.5C26.6412 36.5 29.9531 33.1881 29.9531 29.1172C29.9531 27.1902 29.1897 25.3368 27.8438 23.9605V5.77344ZM22.5703 34.3906C19.6625 34.3906 17.2969 32.025 17.2969 29.1172C17.2969 27.6271 17.9379 26.1976 19.0557 25.1951C19.2788 24.995 19.4062 24.7096 19.4062 24.4099V5.77344C19.4062 4.02877 20.8256 2.60938 22.5703 2.60938C24.315 2.60938 25.7344 4.02877 25.7344 5.77344V24.4099C25.7344 24.7096 25.8618 24.995 26.0849 25.1951C27.2027 26.1976 27.8438 27.6271 27.8438 29.1172C27.8438 32.025 25.4782 34.3906 22.5703 34.3906Z" fill="#5B5B5B"/>
<path d="M23.625 26.1345V14.2109C23.625 13.6285 23.1528 13.1562 22.5703 13.1562C21.9878 13.1562 21.5156 13.6285 21.5156 14.2109V26.1345C20.288 26.5699 19.4062 27.7422 19.4062 29.1172C19.4062 30.8619 20.8256 32.2812 22.5703 32.2812C24.315 32.2812 25.7344 30.8619 25.7344 29.1172C25.7344 27.7422 24.8526 26.5699 23.625 26.1345ZM22.5703 30.1719C21.9888 30.1719 21.5156 29.6987 21.5156 29.1172C21.5156 28.5356 21.9888 28.0625 22.5703 28.0625C23.1519 28.0625 23.625 28.5356 23.625 29.1172C23.625 29.6987 23.1519 30.1719 22.5703 30.1719Z" fill="#5B5B5B"/>
<path d="M31.0078 6.82812H33.1172C33.6997 6.82812 34.1719 6.35591 34.1719 5.77344C34.1719 5.19097 33.6997 4.71875 33.1172 4.71875H31.0078C30.4253 4.71875 29.9531 5.19097 29.9531 5.77344C29.9531 6.35591 30.4253 6.82812 31.0078 6.82812Z" fill="#5B5B5B"/>
<path d="M31.0078 11.0469H32.0625C32.645 11.0469 33.1172 10.5747 33.1172 9.99219C33.1172 9.40972 32.645 8.9375 32.0625 8.9375H31.0078C30.4253 8.9375 29.9531 9.40972 29.9531 9.99219C29.9531 10.5747 30.4253 11.0469 31.0078 11.0469Z" fill="#5B5B5B"/>
<path d="M33.1172 13.1562H31.0078C30.4253 13.1562 29.9531 13.6285 29.9531 14.2109C29.9531 14.7934 30.4253 15.2656 31.0078 15.2656H33.1172C33.6997 15.2656 34.1719 14.7934 34.1719 14.2109C34.1719 13.6285 33.6997 13.1562 33.1172 13.1562Z" fill="#5B5B5B"/>
<path d="M31.0078 19.4844H32.0625C32.645 19.4844 33.1172 19.0122 33.1172 18.4297C33.1172 17.8472 32.645 17.375 32.0625 17.375H31.0078C30.4253 17.375 29.9531 17.8472 29.9531 18.4297C29.9531 19.0122 30.4253 19.4844 31.0078 19.4844Z" fill="#5B5B5B"/>
<path d="M33.1172 21.5938H31.0078C30.4253 21.5938 29.9531 22.066 29.9531 22.6484C29.9531 23.2309 30.4253 23.7031 31.0078 23.7031H33.1172C33.6997 23.7031 34.1719 23.2309 34.1719 22.6484C34.1719 22.066 33.6997 21.5938 33.1172 21.5938Z" fill="#5B5B5B"/>
<path d="M6.75004 18.4297V8.3197L7.76211 9.33171C7.96799 9.53772 8.23792 9.64066 8.50785 9.64066C8.77778 9.64066 9.04771 9.53772 9.25358 9.33171C9.66547 8.91982 9.66547 8.25206 9.25358 7.84017L6.44108 5.02767C6.02926 4.61578 5.36143 4.61578 4.94954 5.02767L2.13704 7.84017C1.72515 8.25206 1.72515 8.91982 2.13704 9.33171C2.54886 9.7436 3.21669 9.7436 3.62858 9.33171L4.64066 8.3197V18.4297C4.64066 19.0122 5.11288 19.4844 5.69535 19.4844C6.27782 19.4844 6.75004 19.0122 6.75004 18.4297Z" fill="#5B5B5B"/>
<path d="M11.9809 23.309L10.9688 24.321V14.2109C10.9688 13.6285 10.4966 13.1562 9.9141 13.1562C9.33163 13.1562 8.85941 13.6285 8.85941 14.2109V24.321L7.84733 23.309C7.43551 22.8971 6.76768 22.8971 6.35579 23.309C5.9439 23.7208 5.9439 24.3886 6.35579 24.8005L9.16829 27.613C9.37424 27.8189 9.64417 27.9219 9.9141 27.9219C10.184 27.9219 10.454 27.8189 10.6598 27.6129L13.4723 24.8004C13.8842 24.3885 13.8842 23.7208 13.4723 23.3089C13.0605 22.897 12.3927 22.897 11.9809 23.309Z" fill="#5B5B5B"/>
</g>
<defs>
<clipPath id="clip0_262_2979">
<rect width="36" height="36" fill="white" transform="translate(0 0.5)"/>
</clipPath>
</defs>
</svg>
