<svg width="24" height="141" viewBox="0 0 24 141" fill="none" xmlns="http://www.w3.org/2000/svg">
<path d="M10.7334 6.04507V13.4691C10.7334 18.3704 7.9084 20.1187 4.07615 21.0987C3.49215 21.248 2.88782 20.938 2.6743 20.3743C2.42274 19.7102 2.81438 18.9907 3.50103 18.8095C6.28878 18.074 7.17981 16.2633 6.74503 13.4691H2.50942C1.45493 13.4691 0.600098 12.6142 0.600098 11.5598V6.04507C0.600098 4.99058 1.45493 4.13574 2.50942 4.13574H8.8241C9.8786 4.13574 10.7334 4.99058 10.7334 6.04507Z" fill="#ED1C24"/>
<path d="M23.3999 6.04507V13.4691C23.3999 18.3704 20.5749 20.1187 16.7427 21.0987C16.1586 21.248 15.5543 20.938 15.3408 20.3743C15.0892 19.7102 15.4809 18.9907 16.1675 18.8095C18.9553 18.074 19.8463 16.2633 19.4115 13.4691H15.1759C14.1214 13.4691 13.2666 12.6142 13.2666 11.5598V6.04507C13.2666 4.99058 14.1214 4.13574 15.1759 4.13574H21.4906C22.5451 4.13574 23.3999 4.99058 23.3999 6.04507Z" fill="#ED1C24"/>
<rect x="10.5" y="38.6357" width="3" height="102" rx="1.5" fill="#ED1C24"/>
</svg>
