<svg width="40" height="40" viewBox="0 0 40 40" fill="none" xmlns="http://www.w3.org/2000/svg">
<path d="M5.83301 30C5.83301 27.643 5.83301 26.4645 6.56524 25.7322C7.29747 25 8.47598 25 10.833 25H11.6663C13.2377 25 14.0234 25 14.5115 25.4882C14.9997 25.9763 14.9997 26.762 14.9997 28.3333V36.6667H5.83301V30Z" stroke="#ED1C24" stroke-width="2" stroke-linecap="round" stroke-linejoin="round"/>
<path d="M25 31.6667C25 30.0953 25 29.3097 25.4882 28.8215C25.9763 28.3333 26.762 28.3333 28.3333 28.3333H29.1667C31.5237 28.3333 32.7022 28.3333 33.4344 29.0656C34.1667 29.7978 34.1667 30.9763 34.1667 33.3333V36.6667H25V31.6667Z" stroke="#ED1C24" stroke-width="2" stroke-linecap="round" stroke-linejoin="round"/>
<path d="M3.33301 36.6667H36.6663" stroke="#ED1C24" stroke-width="2" stroke-linecap="round" stroke-linejoin="round"/>
<path d="M15 26.6667C15 24.3097 15 23.1312 15.7322 22.3989C16.4645 21.6667 17.643 21.6667 20 21.6667C22.357 21.6667 23.5355 21.6667 24.2678 22.3989C25 23.1312 25 24.3097 25 26.6667V36.6667H15V26.6667Z" stroke="#ED1C24" stroke-width="2" stroke-linecap="round" stroke-linejoin="round"/>
<path d="M21.1514 4.29613L22.3246 6.66193C22.4846 6.99126 22.9112 7.30714 23.2712 7.36763L25.3976 7.72385C26.7575 7.95236 27.0774 8.94707 26.0976 9.92834L24.4444 11.5952C24.1644 11.8774 24.0111 12.4218 24.0978 12.8117L24.5711 14.875C24.9443 16.5082 24.0844 17.14 22.6513 16.2864L20.6582 15.0968C20.2982 14.8817 19.7049 14.8817 19.3383 15.0968L17.3452 16.2864C15.9187 17.14 15.0521 16.5015 15.4254 14.875L15.8987 12.8117C15.9853 12.4218 15.832 11.8774 15.5521 11.5952L13.8989 9.92834C12.9257 8.94707 13.239 7.95236 14.5988 7.72385L16.7253 7.36763C17.0785 7.30714 17.5052 6.99126 17.6652 6.66193L18.8384 4.29613C19.4783 3.01241 20.5182 3.01241 21.1514 4.29613Z" stroke="#ED1C24" stroke-width="2" stroke-linecap="round" stroke-linejoin="round"/>
</svg>
