<svg width="19" height="20" viewBox="0 0 19 20" fill="none" xmlns="http://www.w3.org/2000/svg">
<path d="M9.39474 0.741211C9.08631 0.741211 8.82278 0.891785 8.62405 1.07562C8.42532 1.25946 8.26585 1.48424 8.11841 1.73628C7.82353 2.24036 7.57344 2.8649 7.32938 3.50213C7.08532 4.13936 6.85136 4.78661 6.62801 5.30263C6.40466 5.81866 6.14645 6.19903 6.08364 6.24673C6.02082 6.29443 5.5946 6.43496 5.05605 6.49753C4.51751 6.56011 3.85388 6.59049 3.19866 6.63619C2.54343 6.68189 1.8992 6.74148 1.34942 6.87884C1.07452 6.94753 0.819643 7.03376 0.590962 7.17451C0.362281 7.31526 0.143935 7.52857 0.0486261 7.83517C-0.0466835 8.14177 0.0100503 8.45353 0.115908 8.7079C0.221766 8.96226 0.37865 9.18693 0.562418 9.41138C0.929952 9.86029 1.41795 10.3054 1.92233 10.7449C2.42672 11.1845 2.94699 11.6175 3.34749 11.999C3.74799 12.3805 4.01263 12.7537 4.03663 12.8309C4.06062 12.9081 4.0564 13.3753 3.94692 13.93C3.83743 14.4847 3.6613 15.1527 3.50041 15.8182C3.33952 16.4836 3.19259 17.1418 3.14769 17.7308C3.12524 18.0253 3.12495 18.3042 3.18235 18.575C3.23975 18.8458 3.36914 19.1318 3.61866 19.3213C3.86818 19.5108 4.16801 19.5498 4.43217 19.5232C4.69632 19.4966 4.94795 19.4122 5.20897 19.2989C5.731 19.0722 6.2863 18.7204 6.84209 18.3548C7.39788 17.9892 7.95133 17.6094 8.4222 17.3291C8.89308 17.0489 9.31709 16.9009 9.39474 16.9009C9.47237 16.9009 9.89639 17.0489 10.3673 17.3291C10.8381 17.6094 11.3916 17.9892 11.9474 18.3548C12.5032 18.7204 13.0585 19.0722 13.5805 19.2989C13.8415 19.4122 14.0932 19.4966 14.3573 19.5232C14.6215 19.5498 14.9213 19.5108 15.1708 19.3213C15.4203 19.1318 15.5497 18.8458 15.6071 18.575C15.6645 18.3042 15.6642 18.0253 15.6418 17.7308C15.5969 17.1418 15.45 16.4836 15.2891 15.8182C15.1282 15.1527 14.952 14.4847 14.8426 13.93C14.7331 13.3753 14.7289 12.9081 14.7529 12.8309C14.7768 12.7537 15.0415 12.3805 15.442 11.999C15.8425 11.6175 16.3628 11.1845 16.8671 10.7449C17.3715 10.3054 17.8595 9.86029 18.2271 9.41138C18.4108 9.18693 18.5677 8.96226 18.6736 8.7079C18.7794 8.45353 18.8362 8.14177 18.7408 7.83517C18.6455 7.52857 18.4272 7.31526 18.1985 7.17451C17.9698 7.03376 17.7149 6.94753 17.4401 6.87884C16.8903 6.74148 16.246 6.68189 15.5908 6.63619C14.9356 6.59049 14.272 6.56011 13.7334 6.49753C13.1949 6.43496 12.7687 6.29443 12.7058 6.24673C12.643 6.19903 12.3848 5.81866 12.1615 5.30263C11.9381 4.78661 11.7042 4.13936 11.4601 3.50213C11.216 2.8649 10.9659 2.24036 10.6711 1.73628C10.5236 1.48424 10.3642 1.25946 10.1654 1.07562C9.96669 0.891785 9.70316 0.741211 9.39474 0.741211Z" fill="#FFCA28"/>
<path d="M9.39449 0.741211C9.20007 0.741211 9.02631 0.80384 8.87256 0.89412C8.96272 0.947058 9.04783 1.00762 9.12129 1.07557C9.32002 1.25941 9.47947 1.4841 9.62691 1.73614C9.92179 2.24022 10.1719 2.8645 10.4159 3.50173C10.66 4.13896 10.8939 4.78596 11.1173 5.30198C11.3406 5.818 11.5988 6.19824 11.6616 6.24594C11.7244 6.29364 12.1506 6.43414 12.6892 6.49671C13.2277 6.55928 13.8913 6.58965 14.5465 6.63535C15.2017 6.68105 15.8459 6.7406 16.3957 6.87796C16.6706 6.94665 16.9254 7.03284 17.1541 7.17359C17.3828 7.31434 17.6011 7.52755 17.6964 7.83416C17.7917 8.14076 17.735 8.45443 17.6292 8.7088C17.5233 8.96316 17.3664 9.18773 17.1827 9.41218C16.8151 9.86108 16.3272 10.306 15.8228 10.7455C15.3184 11.1851 14.7982 11.6179 14.3977 11.9994C13.9972 12.3809 13.7326 12.754 13.7086 12.8312C13.6846 12.9084 13.6888 13.3754 13.7983 13.9301C13.9078 14.4848 14.0839 15.1526 14.2448 15.8181C14.4057 16.4835 14.5526 17.1415 14.5975 17.7304C14.6199 18.0249 14.6202 18.3037 14.5628 18.5745C14.5054 18.8453 14.376 19.1312 14.1265 19.3207C14.0667 19.3661 14.0034 19.4035 13.939 19.4328C14.0769 19.4759 14.2152 19.5082 14.3569 19.5225C14.6211 19.5492 14.9209 19.5102 15.1704 19.3207C15.4199 19.1312 15.5493 18.8453 15.6067 18.5745C15.6641 18.3037 15.6638 18.0249 15.6413 17.7304C15.5964 17.1415 15.4495 16.4835 15.2886 15.8181C15.1277 15.1526 14.9516 14.4848 14.8421 13.9301C14.7327 13.3754 14.7284 12.9084 14.7524 12.8312C14.7764 12.754 15.041 12.3809 15.4415 11.9994C15.842 11.6179 16.3623 11.1851 16.8667 10.7455C17.371 10.306 17.859 9.86109 18.2265 9.41218C18.4103 9.18773 18.5672 8.96317 18.673 8.7088C18.7789 8.45443 18.8356 8.14076 18.7403 7.83416C18.645 7.52755 18.4267 7.31434 18.198 7.17359C17.9693 7.03284 17.7144 6.94665 17.4395 6.87796C16.8898 6.7406 16.2456 6.68105 15.5904 6.63535C14.9351 6.58965 14.2716 6.55928 13.733 6.49671C13.1945 6.43414 12.7683 6.29364 12.7055 6.24594C12.6427 6.19824 12.3845 5.818 12.1611 5.30198C11.9378 4.78596 11.7038 4.13896 11.4598 3.50173C11.2157 2.8645 10.9657 2.24022 10.6708 1.73614C10.5233 1.4841 10.3639 1.25941 10.1652 1.07557C9.96642 0.891737 9.70292 0.741211 9.39449 0.741211Z" fill="#FFC107"/>
</svg>
