<svg width="41" height="43" viewBox="0 0 41 43" fill="none" xmlns="http://www.w3.org/2000/svg">
<path d="M20.0977 18.1748C21.9429 18.175 23.4394 19.6816 23.4395 21.54C23.4395 23.3985 21.943 24.9051 20.0977 24.9053C18.2522 24.9053 16.7549 23.3987 16.7549 21.54C16.755 19.6815 18.2522 18.1748 20.0977 18.1748Z" fill="#00D8FF" stroke="#00D8FF" stroke-width="0.06928"/>
<path fill-rule="evenodd" clip-rule="evenodd" d="M20.0996 14.6282C24.6331 14.6282 28.8446 15.2831 32.0201 16.3838C35.8461 17.7099 38.1985 19.72 38.1985 21.5402C38.1985 23.4369 35.7054 25.5724 31.5968 26.943C28.4906 27.9791 24.403 28.52 20.0996 28.52C15.6873 28.52 11.5091 28.0123 8.36792 26.9316C4.39371 25.5639 2 23.4008 2 21.5402C2 19.7348 4.24604 17.7402 8.01826 16.4161C11.2056 15.2973 15.5211 14.6282 20.0989 14.6282H20.0996Z" stroke="#00D8FF" stroke-width="1.66272"/>
<path fill-rule="evenodd" clip-rule="evenodd" d="M14.1271 18.104C16.392 14.1501 19.0594 10.8041 21.5928 8.5844C24.6452 5.90999 27.55 4.86261 29.116 5.77182C30.7481 6.71937 31.34 9.96064 30.4667 14.2286C29.807 17.4554 28.2298 21.2905 26.0798 25.0439C23.8755 28.8921 21.3515 32.2826 18.8526 34.4817C15.6905 37.2646 12.6334 38.2718 11.0325 37.3422C9.47909 36.441 8.88503 33.485 9.63026 29.5335C10.2599 26.1947 11.8401 22.0966 14.1264 18.104L14.1271 18.104Z" stroke="#00D8FF" stroke-width="1.66272"/>
<path fill-rule="evenodd" clip-rule="evenodd" d="M14.1272 25.054C11.8559 21.1045 10.3096 17.106 9.66408 13.7877C8.88709 9.78957 9.43645 6.73269 11.0011 5.82085C12.6315 4.87051 15.7163 5.97291 18.9527 8.8662C21.3997 11.0537 23.9125 14.3441 26.0686 18.094C28.2793 21.9385 29.9361 25.8334 30.5806 29.1113C31.3962 33.2594 30.7361 36.4289 29.1367 37.361C27.5848 38.2656 24.7449 37.3079 21.7168 34.6843C19.1582 32.4677 16.4209 29.0427 14.1272 25.0539V25.054Z" stroke="#00D8FF" stroke-width="1.66272"/>
</svg>
