<svg viewBox="0 0 23 24" fill="none" xmlns="http://www.w3.org/2000/svg">
<path d="M17.7603 8.21572C17.6796 8.1349 17.5807 8.07448 17.472 8.03948C17.3632 8.00448 17.2477 7.99591 17.135 8.01447C17.0231 8.03318 16.9173 8.07809 16.8261 8.14555C16.7349 8.21301 16.6609 8.30109 16.6103 8.4026C16.3905 8.78298 16.1223 9.13329 15.8125 9.44479C15.7395 7.5552 15.0476 5.74197 13.8431 4.28416C13.1693 3.59227 12.3546 3.05323 11.4544 2.70354C10.5541 2.35384 9.5892 2.20166 8.625 2.25729C8.49498 2.25763 8.36748 2.29325 8.2561 2.36033C8.14471 2.42741 8.05361 2.52345 7.9925 2.63822C7.93479 2.75062 7.90773 2.87624 7.91404 3.00242C7.92034 3.12861 7.9598 3.2509 8.02844 3.35697C8.12906 3.50791 10.3141 6.87166 7.82 9.8976C7.1875 9.40166 6.46875 8.61822 6.46875 8.00729C6.4678 7.84634 6.41285 7.69038 6.31272 7.56437C6.21259 7.43837 6.07306 7.34962 5.91649 7.31234C5.75992 7.27506 5.59537 7.29141 5.4492 7.35877C5.30303 7.42613 5.18369 7.5406 5.11031 7.68385C4.12855 9.81465 3.61157 12.13 3.59375 14.476C3.59375 20.6717 8.20094 22.2817 8.395 22.3823C8.5343 22.4296 8.68476 22.4331 8.82608 22.3922C8.96739 22.3512 9.09275 22.268 9.18523 22.1535C9.2777 22.0391 9.33284 21.8991 9.3432 21.7523C9.35355 21.6056 9.31862 21.4592 9.24312 21.3329C8.56128 20.1086 8.29163 18.6974 8.47406 17.3079C8.91681 18.1665 9.57577 18.8949 10.3859 19.421C10.5384 19.5221 10.7236 19.5613 10.9038 19.5305C11.0841 19.4998 11.2459 19.4015 11.3563 19.2557C12.3502 17.8015 12.8215 16.0531 12.6931 14.2963C13.4478 15.4535 14.0228 17.617 12.9663 21.4839C12.9389 21.5896 12.9361 21.7001 12.9579 21.8071C12.9797 21.9141 13.0256 22.0147 13.0921 22.1014C13.1586 22.188 13.244 22.2583 13.3418 22.3069C13.4395 22.3556 13.5471 22.3814 13.6562 22.3823C13.7205 22.3928 13.786 22.3928 13.8503 22.3823C15.4991 21.8302 16.928 20.7649 17.9277 19.3423C18.9274 17.9197 19.4456 16.2144 19.4062 14.476C19.4062 9.99822 17.9256 8.38822 17.7603 8.21572Z" fill="#F37500"/>
</svg>
