<svg width="30" height="31" viewBox="0 0 30 31" fill="none" xmlns="http://www.w3.org/2000/svg">
<path d="M11.25 14.875L13.75 17.375L19.375 11.75M25 15.5C25 21.6355 18.3075 26.098 15.8725 27.5186C15.5957 27.68 15.4574 27.7607 15.2621 27.8026C15.1106 27.8351 14.8894 27.8351 14.7379 27.8026C14.5426 27.7607 14.4043 27.68 14.1275 27.5186C11.6925 26.098 5 21.6355 5 15.5V9.52196C5 8.52257 5 8.02288 5.16345 7.59334C5.30784 7.21389 5.54248 6.87531 5.84707 6.60687C6.19187 6.30301 6.65975 6.12755 7.59551 5.77665L14.2978 3.2633C14.5576 3.16585 14.6876 3.11713 14.8212 3.09781C14.9398 3.08068 15.0602 3.08068 15.1788 3.09781C15.3124 3.11713 15.4424 3.16585 15.7022 3.2633L22.4045 5.77665C23.3403 6.12755 23.8081 6.30301 24.1529 6.60687C24.4575 6.87531 24.6922 7.21389 24.8365 7.59334C25 8.02288 25 8.52257 25 9.52196V15.5Z" stroke="#ED1C24" stroke-width="2" stroke-linecap="round" stroke-linejoin="round"/>
</svg>
