<svg viewBox="0 0 33 33" fill="none" xmlns="http://www.w3.org/2000/svg">
<path d="M19.6509 10.3701H13.6509C9.92788 10.3701 9.15088 11.1471 9.15088 14.8701V31.3701H24.1509V14.8701C24.1509 11.1471 23.3739 10.3701 19.6509 10.3701Z" stroke="#5B5B5B" stroke-width="2" stroke-linejoin="round"/>
<path d="M15.1509 16.3701L18.1509 16.3701M15.1509 20.8701H18.1509M15.1509 25.3701H18.1509" stroke="#5B5B5B" stroke-width="2" stroke-linecap="round" stroke-linejoin="round"/>
<path d="M30.1509 31.3701V10.6486C30.1509 8.80614 30.1509 7.88492 29.7028 7.14461C29.2548 6.4043 28.4479 5.99232 26.8342 5.16835L20.3217 1.84316C18.581 0.954383 18.1509 1.26761 18.1509 3.21322V9.92537" stroke="#5B5B5B" stroke-width="2" stroke-linecap="round" stroke-linejoin="round"/>
<path d="M3.15088 31.3701V17.8701C3.15088 16.6291 3.40988 16.3701 4.65088 16.3701H9.15088" stroke="#5B5B5B" stroke-width="2" stroke-linecap="round" stroke-linejoin="round"/>
<path d="M31.6509 31.3701L1.65088 31.3701" stroke="#5B5B5B" stroke-width="2" stroke-linecap="round" stroke-linejoin="round"/>
</svg>
