<svg width="18" height="19" viewBox="0 0 18 19" fill="none" xmlns="http://www.w3.org/2000/svg">
<g clip-path="url(#clip0_262_5553)">
<path d="M17.8597 6.61627C17.8175 6.41378 17.7134 6.23659 17.57 6.10157C17.4265 5.96657 17.2409 5.87657 17.0384 5.84845C16.3563 5.75177 14.9167 5.6732 13.5272 6.33697C13.4568 6.06892 13.2778 5.83881 13.0242 5.7063L11.3234 4.81872C12.3245 3.88715 13.5816 3.57297 14.1921 3.47466C14.3102 3.45215 14.4255 3.50841 14.4846 3.61529C14.6421 3.90216 14.8643 4.3606 15.0218 4.92593C15.0724 5.10875 15.2609 5.21563 15.4493 5.165C15.6321 5.11436 15.739 4.92311 15.6884 4.73749C15.5112 4.1103 15.2665 3.60123 15.0921 3.28059C14.8924 2.92058 14.4874 2.7237 14.0796 2.7884C13.36 2.90659 11.836 3.2878 10.6755 4.48061L7.23898 2.68724C6.94959 2.53578 6.60339 2.53612 6.31331 2.6869L0.536538 5.7063C0.205552 5.87906 0 6.21849 0 6.59207V13.0393C0 13.4125 0.205208 13.7513 0.535523 13.925L6.3123 16.9522C6.45767 17.0279 6.6169 17.0658 6.77581 17.0658C6.93505 17.0658 7.09428 17.0279 7.23965 16.9522L13.0249 13.925C13.277 13.793 13.4556 13.564 13.5266 13.2973C14.5226 13.1475 15.6722 12.7296 16.6137 11.7211C18.3153 9.89851 18.0509 7.54441 17.8597 6.61627ZM0.857033 13.3118C0.755272 13.2583 0.69239 13.1542 0.69239 13.0393V6.59207C0.69239 6.47746 0.755615 6.37333 0.857033 6.32025L6.63347 3.30085C6.6781 3.27752 6.72713 3.26604 6.77614 3.26604C6.82516 3.26604 6.87385 3.27752 6.91814 3.30085L12.4704 6.19851L6.77818 9.17472L1.94058 6.64515C1.77221 6.55556 1.56194 6.62182 1.47369 6.79154C1.38511 6.96091 1.45036 7.16986 1.62008 7.25842L6.43198 9.77456V16.2327L0.857033 13.3118ZM12.7044 13.3111L7.12438 16.2305V9.77457L12.8687 6.77115V13.0393C12.8687 13.1542 12.8058 13.2583 12.7044 13.3111ZM16.1075 11.2485C15.3373 12.073 14.4006 12.44 13.5611 12.5879V10.8964L14.9065 9.45694C14.9712 9.38944 15.0021 9.30225 15.0021 9.21507C14.9993 9.12506 14.9628 9.03506 14.8924 8.96756C14.7518 8.83819 14.5324 8.84662 14.4002 8.98443L13.5611 9.8814V7.09807C14.4419 6.60007 15.3837 6.47565 16.1018 6.47565C16.4422 6.47565 16.7318 6.50377 16.9428 6.5319C17.0609 6.54878 17.1565 6.63878 17.1819 6.7569C17.3506 7.57816 17.5897 9.66227 16.1075 11.2485ZM2.47265 11.818C2.47265 12.0092 2.31765 12.1642 2.12646 12.1642C1.93526 12.1642 1.78026 12.0092 1.78026 11.818C1.78026 11.6268 1.93526 11.4718 2.12646 11.4718C2.31765 11.4718 2.47265 11.6268 2.47265 11.818ZM7.6535 7.37116C7.6535 7.56236 7.4985 7.71736 7.30731 7.71736C7.11611 7.71736 6.96111 7.56236 6.96111 7.37116C6.96111 7.17997 7.11611 7.02497 7.30731 7.02497C7.4985 7.02497 7.6535 7.17997 7.6535 7.37116ZM10.3974 12.9088C10.3974 13.1 10.2424 13.255 10.0512 13.255C9.85998 13.255 9.70498 13.1 9.70498 12.9088C9.70498 12.7176 9.85998 12.5626 10.0512 12.5626C10.2424 12.5626 10.3974 12.7176 10.3974 12.9088ZM12.0833 10.6642C12.0833 10.8554 11.9283 11.0104 11.7371 11.0104C11.5459 11.0104 11.3909 10.8554 11.3909 10.6642C11.3909 10.473 11.5459 10.318 11.7371 10.318C11.9283 10.318 12.0833 10.473 12.0833 10.6642ZM5.79443 5.16683C5.79443 5.35803 5.63943 5.51302 5.44824 5.51302C5.25704 5.51302 5.10204 5.35803 5.10204 5.16683C5.10204 4.97563 5.25704 4.82064 5.44824 4.82064C5.63943 4.82064 5.79443 4.97563 5.79443 5.16683Z" fill="#5F5F5F" stroke="#5F5F5F" stroke-width="0.3"/>
</g>
<defs>
<clipPath id="clip0_262_5553">
<rect width="18" height="18" fill="white" transform="translate(0 0.819763)"/>
</clipPath>
</defs>
</svg>
