<svg width="30" height="31" viewBox="0 0 30 31" fill="none" xmlns="http://www.w3.org/2000/svg">
<path d="M25.9676 23C26.9042 23 27.6492 22.4106 28.3181 21.5864C29.6874 19.8993 27.4392 18.551 26.5817 17.8908C25.71 17.2195 24.7368 16.8393 23.75 16.75M22.5 14.25C24.2259 14.25 25.625 12.8509 25.625 11.125C25.625 9.39911 24.2259 8 22.5 8" stroke="#ED1C24" stroke-width="2" stroke-linecap="round"/>
<path d="M4.03245 23C3.09582 23 2.35083 22.4106 1.68193 21.5864C0.312611 19.8993 2.56084 18.551 3.41831 17.8908C4.28997 17.2195 5.26323 16.8393 6.25 16.75M6.875 14.25C5.14911 14.25 3.75 12.8509 3.75 11.125C3.75 9.39911 5.14911 8 6.875 8" stroke="#ED1C24" stroke-width="2" stroke-linecap="round"/>
<path d="M10.1048 19.389C8.82753 20.1787 5.47873 21.7914 7.51837 23.8093C8.51472 24.795 9.6244 25.5 11.0195 25.5H18.9805C20.3756 25.5 21.4853 24.795 22.4816 23.8093C24.5213 21.7914 21.1725 20.1787 19.8952 19.389C16.9002 17.537 13.0998 17.537 10.1048 19.389Z" stroke="#ED1C24" stroke-width="2" stroke-linecap="round" stroke-linejoin="round"/>
<path d="M19.375 9.875C19.375 12.2912 17.4162 14.25 15 14.25C12.5838 14.25 10.625 12.2912 10.625 9.875C10.625 7.45875 12.5838 5.5 15 5.5C17.4162 5.5 19.375 7.45875 19.375 9.875Z" stroke="#ED1C24" stroke-width="2"/>
</svg>
